<?xml  version="1.0" encoding="UTF-8"?>
<!DOCTYPE svg PUBLIC "-//W3C//DTD SVG 1.0//EN" "http://www.w3.org/TR/2001/REC-SVG-20010904/DTD/svg10.dtd" >
<svg xmlns="http://www.w3.org/2000/svg" >
<metadata>
<version>1.0</version>
<id><![CDATA[ITC Garamond W01 Bold Italic]]></id>
<vendor>Monotype Imaging Inc.</vendor>
<credits>
<name>Fonts.com WebFonts</name>
<URL>http://webfonts.fonts.com</URL>
<role>Home of the Web fonts</role>
</credits>
<license>
<URL>http://webfonts.fonts.com/Legal</URL>
</license>
<copyright><![CDATA[Copyright © 1994, 2001 Adobe Systems Incorporated.  All Rights Reserved.]]></copyright>
<trademark><![CDATA[ITC Garamond is a trademark of International Typeface Corporation.]]></trademark>
<licensee>
<name></name>
</licensee>
</metadata>
<defs >
<font horiz-adv-x="566" id="856c1065-4ec4-4125-8c23-8f75453b7b72">
<font-face font-family="" panose-1="2 2 8 5 7 7 6 9 3 4" ascent="869" descent="-250" units-per-em="1000" alphabetic="0">
</font-face>
<missing-glyph horiz-adv-x="300" />

<glyph unicode="&#xA;" />
<glyph unicode="&#xD;" horiz-adv-x="600" />
<glyph unicode=" " horiz-adv-x="300" />
<glyph unicode="!" horiz-adv-x="305" d="M362 613Q362 591 340 547Q304 471 269 395T197 243Q183 216 172 206T146 195Q135 195 129 198T120 206T116 216T115 225Q115 230 116 236T118 250Q131 322 144 399T171 542Q175 564 182 585T201 621T234 646T286 656Q297 656 310 655T334 649T354 636T362 614V613ZM19 56Q19 72 25 88T44 117T72 138T110 146Q142 146 163 126T185 77Q185 40 158 13T91 -14Q56 -14 38 7T19 55V56Z"  />
<glyph unicode="&quot;" horiz-adv-x="338" d="M141 312Q120 312 117 344Q114 374 111 409T104 477T99 537T97 579Q97 606 106 624T142 642Q168 642 178 624T188 579Q188 565 186 538T181 477T174 409T167 344Q164 312 142 312H141ZM310 312Q289 312 286 344Q283 374 280 409T273 477T268 537T266 579Q266 606 275 624T311 642Q337 642 347 624T357 579Q357 565 355 538T350 477T343 409T336 344Q333 312 311 312H310Z"  />
<glyph unicode="#" horiz-adv-x="601" d="M202 320Q214 320 217 322T226 336L251 402Q255 412 255 415Q255 420 239 420H150Q134 420 134 427Q134 431 137 437L155 484Q158 492 162 494T176 496H270Q282 496 285 499T294 513L329 603Q334 614 339 616T362 619Q373 619 377 619T382 613Q382 608 378 600L345 515Q341 505 341 502Q341 496 357 496H439Q451 496 454 499T463 513L498 603Q503 614 507 616T525 619Q539 619 545 618T551 612Q551 610 550 608T547 600L514 515Q511 507 511 502Q511 496 526 496H615Q623 496 627 496T632 490Q632 487 631 485T629 480L611 433Q608 425 604 423T589 420H495Q483 420 480 418T472 404L446 339Q445 336 444 332T442 326Q442 320 458 320H547Q555 320 559 320T563 314Q563 312 561 304L543 256Q539 248 535 246T521 244H427Q415 244 412 242T404 228L367 133Q362 121 358 119T334 116Q324 116 319 117T314 123Q314 126 314 128T317 135L353 226Q356 233 356 239Q356 243 353 243T340 244H259Q246 244 243 242T235 228L197 133Q193 121 189 119T171 116Q157 116 151 117T145 123Q145 127 148 135L184 226Q187 233 187 239Q187 244 171 244H82Q66 244 66 251Q66 255 69 261L87 308Q90 316 94 318T109 320H202ZM326 420Q313 420 310 418T305 410L277 339Q273 329 273 325Q273 320 289 320H371Q384 320 387 322T393 330L420 401Q424 409 424 415Q424 420 408 420H326Z"  />
<glyph unicode="$" horiz-adv-x="561" d="M298 281Q278 294 260 309T227 342T203 383T194 433Q194 476 211 508T257 562T320 596T393 613L410 674Q414 686 420 688T434 691Q441 691 447 689T449 673L433 616H446Q450 616 457 616T473 615L490 674Q494 686 499 688T513 691Q521 691 527 689T529 673L512 611Q518 611 533 608T565 600T595 587T608 572Q608 567 605 555T596 528Q591 515 590 501T584 476Q581 467 575 461T561 455Q549 455 546 463T543 480Q543 513 532 533T498 564L444 373Q463 359 480 344T510 311T530 272T538 226Q538 189 523 157T482 98T421 52T344 23L325 -46Q321 -58 315 -61T301 -64Q294 -64 288 -61T286 -45L303 17Q293 15 288 15T279 16Q275 16 272 16T263 17L245 -46Q241 -59 236 -61T222 -64Q218 -64 215 -64T208 -61T205 -56T206 -45L224 20Q198 23 173 30T127 47T93 69T80 96Q80 102 83 110T88 125Q93 138 96 152T101 180Q103 191 107 204T125 218Q138 218 140 209T144 189Q150 83 238 67L298 281ZM378 422Q386 417 394 411T411 397L462 573Q456 574 452 574T442 574Q436 574 431 574T421 572L378 422ZM379 564Q358 557 343 542T327 498Q327 472 347 452L379 564ZM366 235Q358 240 350 246T332 258L276 63H285Q297 63 317 66L366 235ZM360 78Q386 89 401 109T416 161Q416 175 411 185T396 206L360 78Z"  />
<glyph unicode="%" horiz-adv-x="837" d="M149 -7Q149 -4 155 3T173 23L662 614Q678 632 684 635T701 638H734Q743 638 747 638T751 632Q751 628 745 621T731 605L239 9Q232 0 228 -4T219 -11T211 -13T200 -14H166Q155 -14 152 -14T149 -8V-7ZM295 603Q270 603 250 578T216 519T195 450T187 394Q187 383 189 373T195 354T208 340T229 334Q255 334 275 359T309 418T330 488T337 544Q337 554 336 564T330 583T317 597T296 603H295ZM674 291Q649 291 629 266T595 207T574 137T566 81Q566 70 568 60T574 41T587 27T608 21Q634 21 654 46T688 105T709 175T717 232Q717 241 715 251T709 271T696 285T675 291H674ZM232 299Q199 299 173 311T128 343T99 389T89 445Q89 481 105 515T148 577T211 621T290 638Q323 638 350 626T395 594T424 548T434 492Q434 456 418 422T375 360T311 316T233 299H232ZM612 -14Q579 -14 553 -2T508 30T479 76T469 132Q469 168 485 203T528 265T591 309T670 326Q703 326 730 314T775 282T804 236T814 180Q814 144 798 109T755 47T691 3T613 -14H612Z"  />
<glyph unicode="&amp;" horiz-adv-x="717" d="M34 188Q34 233 53 268T102 329T171 371T247 394Q233 410 222 429T210 477Q210 504 225 533T271 585T344 624T442 639Q461 639 487 635T538 622T578 602T595 575Q595 571 593 563T589 547T585 530T581 518Q577 504 571 492T547 479Q529 479 520 493T499 529Q487 553 472 567T427 582Q397 582 374 570T334 540T308 499T299 458Q299 441 304 429T317 408Q326 410 336 411T361 413Q374 413 388 411T414 404T432 391T440 372Q440 361 434 353T419 338T397 329T374 326Q348 326 326 334T283 354Q250 343 225 312T200 235Q200 199 214 170T254 119T310 86T377 74Q405 74 434 83T488 108T528 148T544 199Q544 219 529 228T496 238Q479 238 467 233T447 223T434 212T425 207Q418 207 413 212T407 228Q407 241 414 253T428 274Q442 289 459 298T496 313T534 320T572 323Q599 324 617 325T647 328T667 336T681 351Q689 365 694 372T706 379Q717 379 724 366T731 338Q731 313 719 295T690 265T654 245T622 236Q606 234 598 229Q600 223 600 213T598 187Q590 141 562 103T493 39Q408 -14 292 -14Q243 -14 197 -1T114 38T56 101T34 187V188Z"  />
<glyph unicode="&apos;" horiz-adv-x="209" d="M150 312Q129 312 126 344Q123 374 120 409T113 477T107 537T105 579Q105 606 115 624T151 642Q177 642 186 624T196 579Q196 565 194 538T189 477T183 409T176 344Q173 312 151 312H150Z"  />
<glyph unicode="(" horiz-adv-x="398" d="M529 666Q529 655 519 653T492 647T453 634T406 600Q374 569 344 519T287 407T236 279T196 150T169 34T159 -53Q159 -110 179 -139T226 -177Q240 -182 251 -184T262 -198Q262 -208 256 -212T230 -216Q188 -216 154 -199T96 -148T59 -68T46 38Q46 101 60 175T103 322T173 461T267 577Q332 636 394 660T504 684Q529 684 529 667V666Z"  />
<glyph unicode=")" horiz-adv-x="398" d="M-112 -198Q-112 -188 -102 -185T-75 -179T-36 -166T11 -132Q42 -101 72 -51T130 61T181 190T222 319T248 435T259 522Q259 579 239 608T192 645Q177 650 166 653T155 667Q155 677 161 680T187 684Q229 684 263 667T321 616T359 536T372 430Q372 367 358 293T315 146T245 7T150 -109Q85 -168 23 -192T-87 -216Q-112 -216 -112 -199V-198Z"  />
<glyph unicode="*" horiz-adv-x="469" d="M333 640Q350 640 364 629T379 595Q379 579 368 562T344 529T320 499T309 473Q309 468 312 466T321 463Q333 463 347 474T377 497T409 521T442 532Q461 532 474 521T487 487Q487 466 473 454T436 442Q413 442 391 448T345 454Q335 454 328 451T320 440Q320 427 340 419T385 401T430 378T451 343Q451 323 438 310T405 297Q389 297 378 306T359 330T345 362T333 393T321 417T305 427Q299 427 295 418T291 396Q291 379 293 368T297 347T301 327T303 301Q303 281 290 268T255 255Q235 255 223 268T211 304Q211 319 222 335T246 366T270 396T281 425Q281 434 273 434Q258 434 243 423T212 399T180 374T149 363Q128 363 115 375T102 408Q102 429 114 442T150 455Q158 455 170 454T197 450Q211 448 223 446T243 444Q259 444 265 447T272 456Q272 469 252 477T206 494T161 517T140 556Q140 573 151 587T181 601Q205 601 218 581T240 537T258 493T284 473Q290 473 294 478T299 493Q299 500 297 510T292 533T287 559T285 586Q285 611 297 625T332 640H333Z"  />
<glyph unicode="+" horiz-adv-x="587" d="M269 506H365V301H569V205H365V0H269V205H65V301H269V506Z"  />
<glyph unicode="&#x2c;" horiz-adv-x="297" d="M19 54Q19 70 26 85T45 113T73 132T110 140Q147 140 167 116T187 62Q187 33 175 4T145 -53T104 -105T59 -147T18 -175T-11 -186Q-20 -186 -27 -181T-34 -168Q-34 -162 -27 -155T-10 -140T13 -122T36 -100Q48 -87 58 -74T75 -48T87 -26T92 -12Q92 -4 84 -4Q80 -4 77 -5T69 -6Q51 -6 35 11T19 53V54Z"  />
<glyph unicode="-" horiz-adv-x="279" d="M266 270Q274 270 278 269T282 262Q282 260 280 253T274 236T267 216T260 196Q256 183 253 181T239 178H31Q15 178 15 186Q15 188 17 195T23 212T30 233T37 253Q42 265 45 267T58 270H266Z"  />
<glyph unicode="." horiz-adv-x="297" d="M204 75Q204 58 197 43T178 14T149 -6T112 -14Q76 -14 60 7T43 55Q43 70 49 85T67 113T95 134T132 143Q164 143 184 124T204 76V75Z"  />
<glyph unicode="/" horiz-adv-x="373" d="M494 672Q494 667 488 659L-65 -194Q-71 -204 -76 -207T-89 -211H-156Q-161 -211 -164 -211T-168 -206Q-168 -203 -166 -199T-162 -192L390 659Q398 670 403 675T417 680H482Q487 680 490 679T494 673V672Z"  />
<glyph unicode="0" horiz-adv-x="601" d="M52 224Q52 270 64 318T98 413T153 500T224 571T311 620T411 638Q455 638 492 621T555 573T596 499T611 404Q611 360 600 312T567 217T515 128T446 55T361 5T264 -14Q212 -14 173 6T106 59T66 134T52 223V224ZM468 505Q468 517 466 531T458 558T440 579T409 587Q385 587 363 570T322 525T287 462T259 392Q246 356 236 319T218 247T206 182T201 131Q201 117 203 101T213 72T233 49T266 40Q290 40 311 61T352 113T385 181T411 248Q421 276 431 311T449 382T463 450T468 504V505Z"  />
<glyph unicode="1" horiz-adv-x="601" d="M69 19Q69 28 75 33T90 41T109 43T129 44Q151 44 164 47T186 58T200 82T213 121Q238 206 262 290T311 459Q313 465 315 476T318 495Q318 500 315 505T301 511Q295 511 280 507T247 496T214 486T192 481Q181 481 174 486T166 502Q166 520 186 527T233 540Q301 556 360 576T467 618Q475 622 488 627T508 632Q521 632 521 618Q521 613 518 601T512 580Q479 465 446 351T379 120Q376 111 373 98T370 76Q370 54 385 49T418 44Q437 44 456 41T476 21Q476 2 463 -1T437 -4Q392 -4 348 -2T261 0Q223 0 187 -2T110 -4Q93 -4 81 0T69 18V19Z"  />
<glyph unicode="2" horiz-adv-x="601" d="M154 114Q166 116 181 117T227 118Q238 118 255 118T290 118T326 117T354 117Q401 117 425 131T466 173Q477 190 485 196T501 203Q511 203 516 197T522 183Q522 178 516 158T502 113T486 65T475 31Q468 8 460 2T428 -4Q412 -4 389 -4T340 -2T286 -1T232 0Q188 0 139 -2T54 -4Q45 -4 35 -4T17 -1T4 6T-1 21Q-1 30 3 38T19 58T48 84T92 122Q142 163 187 200T274 273Q332 326 369 378T407 487Q407 523 384 550T319 578Q282 578 255 560T206 518Q183 490 172 476T149 461Q140 461 135 468T129 482Q129 497 145 523T192 575T269 619T375 638Q419 638 456 627T519 594T561 543T576 477Q576 428 553 391T494 325T418 274T345 232Q303 211 275 196T225 167T188 143T152 117L154 114Z"  />
<glyph unicode="3" horiz-adv-x="601" d="M544 528Q544 492 522 465T465 416T393 380T321 353V351Q332 352 346 353T375 352Q406 350 434 339T485 309T519 262T532 201Q532 137 497 83T407 -10T288 -71T162 -93Q137 -93 108 -89T54 -74T13 -46T-4 -5Q-4 19 12 35T55 51Q84 51 99 35T129 -4Q143 -27 157 -38T189 -50Q221 -50 252 -31T309 20T350 95T366 184Q366 238 335 270T256 302Q236 302 218 298T185 289T160 280T144 276Q136 276 132 282T127 296Q127 306 134 313T156 328T194 345T249 366Q279 378 302 395T341 432T366 474T375 518Q375 549 358 563T317 577Q290 577 268 564T234 542Q208 521 198 512T178 503Q168 503 164 509T159 522Q159 534 174 553T219 592T289 624T382 638Q454 638 499 610T544 529V528Z"  />
<glyph unicode="4" horiz-adv-x="601" d="M48 199Q28 199 22 200T16 210Q16 225 22 239Q27 253 34 261T52 279Q159 377 265 473T478 667Q487 675 492 679T501 686T510 689T522 690H585Q594 690 599 689T604 683Q604 678 598 673T575 654Q440 547 319 448T100 262H293Q310 262 314 267T324 286L361 413Q364 422 365 427T370 436T377 442T390 447Q418 457 444 466T491 482T524 493T540 498Q546 498 546 490Q546 485 545 478T541 466Q528 421 515 376T488 284Q485 272 485 268Q485 265 490 264T503 262H576Q586 262 591 261T597 254Q597 247 594 236T587 216Q583 205 579 202T561 199H484Q472 199 467 197T457 180Q454 171 450 157T441 126T433 96T430 73Q430 54 443 48T485 40Q510 39 519 35T528 21Q528 10 519 3T486 -4Q476 -4 460 -4T423 -2T380 -1T336 0Q292 0 249 -2T162 -4Q152 -4 143 -2T133 13Q133 32 150 36T191 43Q229 45 245 57T270 101Q273 111 277 125T285 152T292 175T295 189Q295 199 275 199H48Z"  />
<glyph unicode="5" horiz-adv-x="601" d="M307 501Q289 499 278 498T259 491Q254 488 248 479T237 458T227 437T223 424Q223 419 231 419T252 417Q295 414 340 407T423 383Q469 362 497 324T525 224Q525 186 513 152T478 89T427 35T363 -9Q300 -45 221 -64T42 -83Q35 -83 27 -83T12 -80T-1 -74T-6 -61Q-6 -47 8 -43T47 -36Q104 -32 158 -17T256 25T326 93T353 190Q353 226 336 247T294 281T238 297T181 304Q151 306 143 308T135 319Q135 324 138 333T142 344Q163 406 184 467T226 589Q232 605 236 608T258 613Q341 621 422 627T586 641Q605 641 605 631Q605 629 603 620T597 599T590 575T583 552Q577 530 569 526T540 520L307 501Z"  />
<glyph unicode="6" horiz-adv-x="601" d="M578 250Q578 200 556 153T495 68T401 9T283 -14Q232 -14 190 2T117 50T69 127T52 230Q52 282 67 330T108 420T169 499T244 566Q287 599 334 623T426 664T514 689T589 698Q600 698 608 694T616 680Q616 666 601 661T571 651Q481 626 416 577T302 459Q277 420 260 379T232 298T216 223T211 160Q211 143 214 122T225 82T249 50T288 37Q321 37 345 63T384 126T406 203T414 270Q414 304 398 330T350 360Q330 365 318 363T302 366Q299 367 299 373Q299 388 327 405T412 423Q449 423 480 409T532 370T566 315T578 251V250Z"  />
<glyph unicode="7" horiz-adv-x="601" d="M212 484H156Q146 484 139 485T131 494Q131 498 135 513T144 546T153 581T160 607Q165 626 176 627Q196 624 214 624T253 622Q331 619 410 619Q436 619 464 619T519 621Q546 622 570 622T613 623Q624 623 633 622T642 612Q642 599 634 579T616 543Q525 393 435 245T254 -54Q247 -65 239 -71T206 -77Q186 -77 175 -75T164 -64Q164 -59 167 -54T174 -43Q251 85 327 212T481 467Q488 479 488 483Q488 487 469 487L212 484Z"  />
<glyph unicode="8" horiz-adv-x="601" d="M554 202Q554 154 530 114T464 46T369 2T256 -14Q211 -14 170 -4T97 27T46 77T27 146Q27 186 46 214T93 261T156 293T222 318Q208 325 192 335T161 361T136 398T126 447Q126 488 145 523T200 583T284 623T394 638Q434 638 471 631T536 608T581 570T598 515Q598 476 578 451T530 409T472 383T423 366Q443 356 466 343T508 311T541 265T554 203V202ZM271 502Q271 481 281 465T308 436T342 414T376 397Q394 405 412 415T445 438T469 468T478 506Q478 525 470 540T448 567T416 584T376 590Q356 590 337 584T304 566T280 539T271 503V502ZM153 144Q153 96 184 66T265 36Q290 36 313 44T355 68T384 105T395 153Q395 181 381 201T346 237T302 262T259 281Q215 261 184 228T153 145V144Z"  />
<glyph unicode="9" horiz-adv-x="601" d="M603 389Q603 339 590 294T553 207T496 130T424 62Q385 31 338 5T241 -40T138 -70T38 -81Q35 -81 29 -81T18 -78T8 -72T3 -61Q3 -47 21 -42T58 -32Q95 -24 131 -13T203 18T273 65T339 137Q370 178 391 224T426 314T445 400T451 472Q451 487 448 506T437 544T415 574T377 587Q346 587 322 564T282 506T257 433T248 364Q248 325 265 300T311 271Q324 270 333 273T350 274Q358 271 358 261Q358 245 329 229T251 212Q220 212 191 223T138 257T101 312T87 385Q87 436 109 481T169 562T259 617T368 638Q419 638 462 621T536 572T585 494T603 390V389Z"  />
<glyph unicode=":" horiz-adv-x="297" d="M259 353Q259 336 252 321T233 292T204 272T167 264Q131 264 115 285T98 333Q98 348 104 363T122 391T150 412T187 420Q219 420 239 402T259 354V353ZM177 75Q177 58 170 43T151 14T123 -6T86 -14Q49 -14 33 7T17 55Q17 70 23 85T41 113T69 134T105 143Q137 143 157 124T177 76V75Z"  />
<glyph unicode=";" horiz-adv-x="297" d="M258 352Q258 335 251 320T232 291T203 271T166 263Q129 263 113 284T97 332Q97 347 103 362T121 390T149 411T186 419Q217 419 237 401T258 353V352ZM12 54Q12 70 19 85T38 113T66 132T103 140Q141 140 161 116T181 62Q181 33 169 4T139 -53T97 -105T52 -147T12 -175T-17 -186Q-27 -186 -33 -181T-40 -168Q-40 -162 -34 -155T-17 -140T6 -122T29 -100Q41 -87 51 -74T69 -48T81 -26T86 -12Q86 -4 78 -4Q73 -4 70 -5T62 -6Q45 -6 29 11T12 53V54Z"  />
<glyph unicode="&lt;" horiz-adv-x="587" d="M571 -8L63 213V293L571 514V420L185 253L571 86V-8Z"  />
<glyph unicode="=" horiz-adv-x="587" d="M569 309H65V404H569V309ZM569 102H65V197H569V102Z"  />
<glyph unicode="&gt;" horiz-adv-x="587" d="M449 253L63 420V514L571 293V213L63 -8V86L449 253Z"  />
<glyph unicode="?" horiz-adv-x="441" d="M480 474Q480 430 462 397T414 340T348 300T278 273Q255 265 239 260T212 248T192 231T175 202Q170 192 165 185T149 178Q140 178 134 182T128 198Q128 203 129 212T132 225Q145 279 156 333Q160 349 163 358T171 373T186 383T213 394Q229 400 256 410T308 437T352 479T371 539Q371 568 354 584T313 601Q303 601 294 595T274 578T254 556T232 534Q218 522 203 514T170 505Q135 505 135 537Q135 549 138 562T145 586Q150 598 157 610T176 632Q193 645 220 650T275 656Q320 656 358 643T423 605T465 547T480 475V474ZM190 69Q190 53 184 38T167 12T140 -7T105 -14Q73 -14 54 5T34 50Q34 83 58 108T119 134Q152 134 171 115T190 70V69Z"  />
<glyph unicode="@" horiz-adv-x="726" d="M543 213Q541 205 540 198T539 182Q539 167 547 155T574 142Q596 142 616 159T651 204T676 267T686 340Q686 388 667 433T612 513T526 570T413 592Q360 592 310 570T222 507T160 406T136 270Q136 208 160 157T223 68T315 11T425 -10Q459 -10 486 -6T535 5T577 21T616 40L634 1Q586 -24 535 -41T424 -59Q325 -59 253 -27T135 54T66 163T44 275Q44 357 73 424T153 539T270 613T413 639Q484 639 545 617T650 554T720 460T745 341Q745 302 733 260T696 182T637 123T557 100Q532 100 515 109T486 131T471 155T466 173H464Q461 167 451 155T426 131T390 110T348 101Q322 101 304 110T274 137T257 178T251 227Q251 269 265 313T304 392T366 449T447 472Q474 472 491 460T520 423L530 458H604L543 213ZM337 235Q337 220 339 206T348 180T363 162T387 155Q412 155 432 173T467 221T489 285T500 354Q500 380 491 399T457 418Q434 418 413 401T374 358T347 299T337 236V235Z"  />
<glyph unicode="A" horiz-adv-x="702" d="M224 216Q218 216 215 215T208 209Q195 193 179 170T145 123Q136 110 129 97T122 73Q122 55 136 50T165 42Q179 40 188 36T198 18Q198 2 184 -1T158 -4Q132 -4 107 -2T55 0Q32 0 9 -2T-35 -4Q-56 -4 -60 4T-65 17Q-65 30 -54 34T-27 44Q1 51 24 75T78 137Q169 249 259 362T446 597Q462 617 481 624T539 631Q566 631 574 624T582 604Q582 584 582 547T582 464T581 368T580 270T579 185T579 124Q579 102 580 88T584 64T595 51T615 44Q635 40 645 37T655 20Q655 11 651 6T640 -1T627 -3T614 -4Q595 -4 557 -2T481 0Q429 0 400 -2T352 -4Q347 -4 341 -4T329 -1T319 5T315 17Q315 34 329 37T364 42Q377 43 386 45T402 55T411 75T415 109Q416 135 416 162T415 216H224ZM419 478L417 479Q375 425 334 374T251 268H417L419 478Z"  />
<glyph unicode="B" horiz-adv-x="711" d="M501 344Q526 342 556 335T612 313T655 270T673 200Q673 149 646 108T583 41Q551 21 502 9T387 -4Q354 -4 301 -2T172 0Q110 0 69 -2T5 -4Q-11 -4 -23 -2T-36 16Q-36 33 -20 37T23 46Q38 47 47 51T63 66T75 93T88 136Q114 225 140 313T193 490Q198 507 202 523T207 547Q207 557 203 562T193 570T181 574T169 575Q149 577 138 579T126 596Q126 613 142 618T172 623Q183 623 201 623T238 621T278 620T314 619Q386 619 440 621T533 623Q585 623 619 612T673 582T702 543T710 504Q710 462 687 434T632 387T563 359T501 346V344ZM450 572Q440 572 423 571T397 564Q391 560 387 549T380 527L344 406Q340 393 337 381T329 354Q339 354 348 354T368 355Q408 356 440 366T497 398Q520 420 532 447T545 498Q545 536 517 554T451 572H450ZM265 142Q261 129 258 113T254 83Q254 71 260 64T277 54T298 50T319 49Q348 49 379 57T436 89Q460 111 475 142T490 211Q490 239 481 257T455 287T416 302T366 306Q317 306 315 304Q313 303 309 291T300 260L265 142Z"  />
<glyph unicode="C" horiz-adv-x="647" d="M46 229Q46 270 61 312T102 393T164 467T244 529Q286 555 334 575T431 608T529 629T623 636Q636 636 650 635T676 631T695 622T703 607Q703 602 701 594T697 576Q690 553 683 529T671 490Q666 472 658 460T634 447Q621 447 614 453T604 468T601 484T600 498Q600 502 600 510T602 527T603 544T604 557Q604 570 598 577T570 585Q516 585 457 557T348 480Q298 430 266 365T234 223Q234 199 241 167T264 107T306 58T373 38Q398 38 417 46T453 67T482 100T508 142Q514 153 520 164T532 185T547 201T566 207Q572 207 582 203T592 185Q592 180 590 169T585 145Q580 130 576 113T567 79T558 49T551 29Q545 18 519 10T460 -3T392 -11T332 -14Q278 -14 228 -1T136 43Q94 75 70 121T46 228V229Z"  />
<glyph unicode="D" horiz-adv-x="769" d="M195 495Q200 513 203 526T207 547Q207 558 202 563T191 571T177 574T164 575Q159 575 152 575T138 578T127 584T122 597Q122 607 127 612T141 619T159 622T175 623Q220 623 264 621T352 619Q393 619 433 621T515 623Q574 623 619 609T697 567Q736 535 756 490T776 394Q776 316 743 242T651 112Q590 55 512 26T340 -4Q301 -4 250 -2T123 0Q77 0 48 -2T3 -4Q-2 -4 -9 -4T-24 -2T-36 4T-41 17Q-41 34 -27 38T17 44Q33 45 43 50T61 64T73 86T83 117L195 495ZM266 140Q261 123 255 102T248 70Q248 52 265 48T301 44Q362 44 416 73T513 162Q532 189 548 221T575 288T592 359T599 428Q599 459 591 485T566 531T524 562T463 573Q440 573 422 572T398 565Q392 560 388 550T380 527L266 140Z"  />
<glyph unicode="E" horiz-adv-x="631" d="M263 132Q258 113 254 98T250 72Q250 55 268 52T332 49Q371 49 406 54T463 72Q488 87 505 113T537 163Q546 176 551 181T568 186Q582 186 587 178T592 162Q592 158 590 151T586 134Q579 108 572 83T559 32Q554 10 544 3T513 -4Q472 -4 399 -2T222 0Q166 0 130 0T69 -2T31 -3T5 -4Q-8 -4 -22 -1T-36 17Q-36 34 -22 37T15 43Q31 44 41 48T59 61T72 86T85 125Q113 219 140 312T195 500Q198 511 202 524T206 546Q206 575 167 576Q147 578 134 580T121 600Q121 617 136 620T165 624Q181 624 201 623T248 622T308 621T388 620Q471 620 537 622T639 624Q655 624 664 622T673 609Q673 605 670 591T661 560T650 525T641 496Q636 479 629 464T607 449Q594 449 590 456T583 479Q581 502 577 523T559 555Q544 568 520 570T456 572Q428 572 417 571T398 567Q391 563 388 552T381 529L327 349Q344 349 359 349T390 350Q423 351 442 360T480 403Q493 428 499 437T519 446Q526 446 533 441T540 423Q540 417 537 406T530 383T523 359T518 344Q515 335 510 320T501 288T493 256T487 232Q485 224 479 211T456 197Q443 197 439 204T433 219Q432 228 432 239T433 262Q433 288 418 292T377 298H312L263 132Z"  />
<glyph unicode="F" horiz-adv-x="593" d="M262 129Q259 118 255 103T250 77Q250 66 254 60T266 50T285 46T311 44Q320 44 331 41T343 22Q343 12 338 7T325 0T310 -3T298 -4Q273 -4 230 -2T138 0Q103 0 68 -2T15 -4Q-7 -4 -20 -1T-33 19Q-33 36 -17 39T25 44Q40 45 48 50T63 65T73 86T82 115Q111 212 139 307T196 500Q201 515 204 529T208 551Q208 561 203 566T191 574T176 577T161 578Q157 578 151 578T140 581T131 587T127 599Q127 617 142 620T183 624Q192 624 205 624T239 622T289 621T358 620Q464 620 535 622T660 624Q665 624 671 622T677 611Q677 607 676 602T672 588Q668 576 663 560T654 529T645 500T639 482Q637 473 630 458T608 443Q599 443 593 450T584 474Q582 502 575 524Q565 549 538 560T459 572H424Q402 572 395 564T383 540L327 347H394Q429 347 448 356T483 394Q494 416 501 426T522 437Q543 437 543 415Q543 409 541 401T536 382Q525 347 513 304T492 225Q487 208 481 197T459 186Q447 186 443 192T436 208Q436 216 436 225T437 244Q437 276 421 284T373 293H311L262 129Z"  />
<glyph unicode="G" horiz-adv-x="749" d="M47 229Q47 275 62 318T103 401T166 474T247 535Q323 583 418 609T613 636Q635 636 665 635T718 626Q729 623 737 618T746 603Q746 595 738 576Q731 556 720 529T701 481Q694 464 686 453T661 441Q644 441 638 453T631 479Q631 486 632 496T634 516T636 537T637 553Q637 567 628 576T587 585Q562 585 532 578T471 556T407 520T347 470Q323 447 303 419T267 359T242 291T233 215Q233 180 245 147T276 90Q316 38 381 38Q394 38 407 41T429 52Q437 58 441 71T450 96L478 193Q480 201 482 209T484 226Q484 240 475 247T442 257Q436 257 429 257T416 260T406 266T402 278Q402 295 418 300T448 306Q480 306 512 304T577 301Q622 301 660 303T717 306Q722 306 728 306T740 303T750 297T754 285Q754 269 741 266T705 258Q691 256 682 252T668 240T659 222T651 197L605 35Q600 21 583 15T531 3Q512 0 490 -3T444 -9T399 -12T359 -14Q233 -14 153 35Q119 56 98 83T66 137T51 188T47 228V229Z"  />
<glyph unicode="H" horiz-adv-x="816" d="M257 110Q255 102 251 89T247 68Q247 52 257 49T278 43Q288 41 294 35T301 19Q301 6 289 1T259 -4Q229 -4 195 -2T129 0Q100 0 70 -2T12 -4Q-3 -4 -17 -2T-32 18Q-32 28 -26 32T-12 39Q-2 41 10 42T35 48Q55 54 64 69T79 105L200 516Q203 524 206 534T209 552Q209 569 194 572T155 578Q147 578 137 581T127 597Q127 607 133 612T147 619T166 622T184 623Q212 623 243 621T305 619Q336 619 369 621T431 623Q439 623 451 620T464 600Q464 584 434 575Q418 572 409 567T393 554T383 534T374 505L328 352H451H574L618 501Q621 510 624 522T628 545Q628 562 617 568T591 577Q583 580 576 584T568 600Q568 608 573 612T585 619T599 622T611 623Q632 623 663 621T723 619Q755 619 789 621T855 623Q869 623 881 621T894 601Q894 587 884 584T861 580Q836 579 823 565T798 516L680 117Q677 105 674 93T670 72Q670 54 681 49T709 43Q720 42 730 39T741 22Q741 12 736 7T723 0T706 -3T688 -4Q678 -4 663 -4T631 -2T596 -1T561 0Q527 0 499 -2T448 -4Q434 -4 419 -2T404 15Q404 29 412 33T430 40Q441 42 454 45T478 57Q487 65 492 79T502 109L558 298H435H312L257 110Z"  />
<glyph unicode="I" horiz-adv-x="394" d="M251 75Q251 55 265 50T297 43Q307 43 319 40T331 22Q331 12 326 7T313 0T297 -3T282 -4Q261 -4 225 -2T131 0Q93 0 59 -2T0 -4Q-17 -4 -28 1T-39 18Q-39 36 -24 40T20 46Q35 47 45 52T62 66T74 92T87 132L197 505Q202 520 204 531T207 551Q207 568 193 572T158 576Q155 576 149 576T138 578T128 585T124 598Q124 608 130 613T144 620T162 622T176 623Q201 623 231 621T308 619Q360 619 393 621T456 623Q459 623 464 623T476 620T486 614T490 602Q490 585 476 581T438 575Q421 574 411 570T394 558T382 535T371 500L265 139Q262 128 257 108T251 76V75Z"  />
<glyph unicode="J" horiz-adv-x="421" d="M229 551Q229 571 213 574T180 578Q166 577 157 582T147 600Q147 609 152 614T166 621T184 623T203 623Q224 623 257 621T328 619Q372 619 410 621T471 623Q475 623 480 623T491 620T501 614T505 601Q505 592 501 588T490 581T478 578T469 578Q451 578 439 575T417 562T401 535T387 490Q365 415 344 340T302 190Q291 152 280 115T255 43T221 -24T173 -87Q148 -114 118 -137T55 -179T-15 -207T-88 -217Q-100 -217 -117 -215T-151 -205T-178 -182T-189 -141Q-189 -106 -167 -84T-114 -61Q-72 -61 -55 -97Q-50 -105 -46 -116T-39 -136Q-32 -157 -15 -157Q5 -157 21 -138T47 -92Q57 -65 66 -31T85 38Q118 151 150 263T215 489Q223 517 226 529T229 550V551Z"  />
<glyph unicode="K" horiz-adv-x="768" d="M231 547Q231 566 216 571T178 579Q171 579 162 582T152 600Q152 609 157 613T171 620T190 622T208 623Q224 623 255 621T323 619Q343 619 363 619T402 621T435 622T455 623Q459 623 465 623T478 620T488 614T492 602Q492 588 481 584T454 577Q440 575 432 571T417 559T407 536T396 501Q383 458 371 416T344 329Q346 329 346 327Q350 330 354 333T366 342Q413 380 458 415T549 488Q558 495 569 505T591 525T608 544T615 561Q615 569 608 572T589 578Q575 580 568 584T560 600Q560 609 565 613T577 620T593 622T608 623Q624 623 649 621T699 619Q712 619 727 619T757 621T784 622T803 623Q822 623 826 616T831 604Q831 590 823 585T795 576Q769 571 745 558T698 528Q644 491 596 456T493 380Q508 377 517 368T540 330L643 105Q659 70 672 58T709 44Q725 42 736 38T747 20Q747 6 735 1T709 -4Q686 -4 662 -2T615 0Q592 0 569 -2T521 -4Q508 -4 502 4T485 34Q460 88 436 140T385 246Q368 284 358 287Q347 282 339 273T324 255L286 128Q282 115 279 101T275 77Q275 55 288 50T311 43Q328 41 340 38T352 21Q352 4 339 0T315 -4Q288 -4 253 -2T172 0Q136 0 100 -2T42 -4Q36 -4 28 -4T13 -1T1 6T-4 19Q-4 35 9 38T49 44Q77 46 87 64T107 117Q135 212 162 306T218 494Q222 508 226 522T231 546V547Z"  />
<glyph unicode="L" horiz-adv-x="576" d="M207 551Q207 567 192 570T161 575Q150 575 138 579T126 599Q126 608 131 613T145 620T161 622T176 623Q185 623 195 623T221 621T257 620T310 619Q354 619 393 621T454 623Q458 623 465 623T478 620T488 614T493 600Q493 586 481 581T455 575Q435 574 422 572T401 562T387 543T375 511Q346 414 317 317T259 120Q255 108 250 91T245 67Q245 53 269 53H301Q340 53 368 56T418 70T458 101T496 154Q504 167 510 175T528 183Q538 183 545 177T552 157Q552 149 549 134T540 101T528 62T516 24Q511 4 504 0T469 -4Q421 -4 352 -2T207 0Q172 0 146 0T98 -2T58 -3T22 -4Q-1 -4 -17 -1T-34 20Q-34 29 -29 34T-17 41T-3 44T10 45Q27 46 38 49T57 61T70 84T82 119Q110 213 137 305T193 492Q198 508 202 523T207 550V551Z"  />
<glyph unicode="M" horiz-adv-x="908" d="M149 600Q149 609 154 613T166 620T180 622T193 623Q213 623 239 622T304 620Q339 620 370 621T420 623Q437 623 439 614T441 578Q443 495 445 413T450 246H452Q510 331 568 414T684 581Q691 593 696 600T707 613T718 620T734 623Q753 623 772 622T827 620Q840 620 855 620T886 621T914 622T937 623Q976 623 976 602Q976 594 972 589T961 582T949 578T940 577Q923 576 913 574T895 563T882 541T870 503Q846 406 823 310T774 117Q771 103 768 90T765 69Q765 52 779 47T807 41Q824 41 835 37T846 21Q846 12 842 7T831 -1T817 -3T805 -4Q785 -4 745 -2T653 0Q615 0 582 -2T533 -4Q526 -4 518 -4T503 -1T491 5T486 17Q486 31 497 36T520 42Q542 42 556 47T578 62T590 85T600 116Q624 212 648 307T696 498L693 499Q614 381 535 266T377 32Q365 15 356 8T326 1Q300 1 294 15T288 63Q286 143 284 222T279 383Q277 412 277 441T275 499H273Q247 428 220 358T167 216Q162 202 156 184T145 147T135 110T131 80Q131 57 141 50T166 41Q180 39 190 36T201 19Q201 3 189 0T165 -4Q153 -4 127 -2T71 0Q45 0 23 -2T-14 -4Q-24 -4 -36 -1T-48 15Q-48 38 -7 41Q12 43 24 48T45 65T61 95T79 141Q114 235 148 326T215 511Q218 519 222 531T226 551Q226 560 222 565T211 573T197 577T183 578Q180 578 175 578T164 581T154 587T149 599V600Z"  />
<glyph unicode="N" horiz-adv-x="734" d="M574 211Q596 283 617 355T658 501Q662 512 665 524T668 550Q668 568 654 572T622 577Q611 578 601 581T591 598Q591 607 596 612T609 620T625 622T640 623Q651 623 670 621T715 619Q741 619 765 621T801 623Q804 623 809 623T820 620T829 614T833 601Q833 585 820 581T782 574Q769 573 761 569T745 555T732 530T719 492Q684 371 649 252T578 12Q574 -1 568 -5T533 -10Q515 -10 506 -10T492 -7T484 0T477 13L250 496H248Q226 418 205 340T161 183Q154 160 147 131T140 81Q140 58 154 51T185 43Q200 41 209 36T218 19Q218 10 214 6T204 -1T192 -3T181 -4Q177 -4 167 -4T144 -2T117 -1T88 0Q64 0 44 -2T12 -4Q7 -4 0 -4T-14 -1T-25 5T-30 18Q-30 30 -22 34T1 41Q16 43 28 46T49 59Q60 73 68 93T83 137Q111 231 138 322T192 508Q196 520 199 532T202 552Q202 569 188 573T161 578Q150 578 138 581T126 602Q126 618 139 620T169 623Q182 623 204 622T261 620Q293 620 320 621T361 623Q378 623 382 614T397 584Q441 490 484 398T572 211H574Z"  />
<glyph unicode="O" horiz-adv-x="735" d="M736 373Q736 298 705 228T621 105T496 19T342 -14Q221 -14 144 60Q60 138 60 256Q60 338 93 407T181 528T307 607T456 636Q520 636 571 616T659 560T716 477T736 374V373ZM458 586Q430 586 406 572T360 534T320 478T287 409Q274 377 263 342T244 275T232 214T227 165Q227 105 256 71T335 36Q359 36 379 44T417 65T447 94T469 125Q485 152 502 193T534 280T557 371T567 453Q567 513 542 549T459 586H458Z"  />
<glyph unicode="P" horiz-adv-x="672" d="M721 482Q721 452 710 421T675 361T617 310T535 274Q490 258 442 255T332 250Q324 250 316 250T298 249Q290 220 281 192T263 133Q257 113 254 100T251 76Q251 54 266 49T307 42Q318 41 327 37T336 22Q336 12 331 7T319 0T304 -3T290 -4Q270 -4 232 -2T141 0Q94 0 65 -2T15 -4Q-3 -4 -19 0T-36 20Q-36 37 -21 40T22 46Q37 47 47 53T63 69T74 94T84 125Q113 222 141 317T198 509Q200 519 203 529T206 546Q206 565 194 570T165 577Q142 579 133 582T123 600Q123 611 131 617T166 624Q178 624 193 624T230 623T281 622T348 621Q406 621 449 622T537 624Q624 624 673 583Q698 563 709 537T721 483V482ZM542 497Q542 521 535 535T514 558T484 569T447 572Q427 572 416 571T399 567T391 559T385 545Q368 486 351 428T316 310Q314 304 315 302T326 299Q368 299 410 312T487 367Q514 399 528 434T542 496V497Z"  />
<glyph unicode="Q" horiz-adv-x="742" d="M28 -151Q28 -138 37 -128T61 -108T95 -92T134 -80Q171 -67 208 -48T301 -6Q245 -2 201 20T126 78T79 158T62 254Q62 322 88 390T166 512Q218 567 291 600T457 634Q532 634 586 611T674 550T725 467T742 375Q742 330 730 286T696 201T639 125T562 64Q517 30 471 12T378 -21Q329 -36 299 -48T250 -71L251 -72Q274 -67 297 -66T348 -68Q377 -71 406 -78T464 -93T519 -107T566 -113Q598 -113 615 -104T642 -82Q655 -66 663 -58T680 -49Q690 -49 694 -56T699 -72Q699 -93 682 -119T642 -163Q610 -191 565 -209T467 -227Q428 -227 385 -214T299 -179Q288 -173 273 -164T242 -145T213 -130T192 -124Q183 -124 169 -133T137 -158Q126 -166 107 -176T67 -187Q50 -187 39 -178T28 -152V-151ZM569 452Q569 479 564 503T546 546T513 575T463 586Q436 586 412 573T367 538T327 486T293 422Q279 391 268 357T249 290T237 227T232 174Q232 150 237 125T254 80T288 46T340 33Q364 33 385 42T423 64T454 95T476 128Q495 163 511 207T541 295T561 380T569 451V452Z"  />
<glyph unicode="R" horiz-adv-x="732" d="M720 497Q720 463 707 436T673 387T624 350T570 323Q551 315 532 309T499 301V299Q517 294 530 283T551 246Q565 209 577 173T603 98Q610 78 619 64T660 44Q671 42 681 38T692 21Q692 12 687 8T676 1T662 -2T648 -3Q644 -3 636 -3T616 -2T593 -1T570 0Q531 0 508 -1T471 -3Q457 -3 451 5T438 36Q424 81 410 124T381 211Q374 234 369 248T353 263Q349 264 331 263T301 260Q299 252 297 245T292 229L258 115Q255 102 253 92T250 75Q250 64 254 58T266 48T280 44T293 43Q306 41 318 38T330 23Q330 13 324 8T309 0T292 -3T279 -4Q254 -4 213 -2T124 0Q89 0 55 -2T2 -4Q0 -4 -6 -4T-19 -2T-31 4T-36 17Q-36 33 -24 36T15 42Q31 43 41 47T59 60T72 86T86 129Q115 225 142 318T197 506Q199 514 203 527T207 548Q207 562 197 566T171 573Q155 574 140 576T124 596Q124 606 130 611T144 620T161 623T179 624Q192 624 212 624T258 623T310 622T364 621Q386 621 407 621T449 622T495 623T549 624Q577 624 607 619T663 599T704 560T720 498V497ZM533 498Q533 523 525 538T504 560T474 570T439 572Q422 572 413 572T398 568T390 559T384 540L332 364Q323 338 316 310Q322 310 328 310T340 311Q373 313 404 326T464 362Q495 387 514 422T533 497V498Z"  />
<glyph unicode="S" horiz-adv-x="557" d="M114 440Q114 494 140 531T206 592T296 626T391 636Q409 636 431 635T475 631T517 623T555 610Q567 605 575 598T584 579Q584 574 582 565T577 546Q572 530 568 515T562 491Q560 486 559 480T554 467T545 457T532 452Q521 452 516 459T508 475Q503 489 498 506T482 547Q460 589 402 589Q383 589 364 583T330 566T305 539T295 502Q295 485 300 471T319 443T351 413T400 374Q424 356 445 338T481 299T506 255T516 204Q516 160 495 121T435 51T343 4T227 -14Q212 -14 189 -12T141 -5T90 7T45 24Q29 32 19 41T8 64Q8 73 10 86T15 113T21 140T28 164Q33 183 39 192T59 201Q75 201 81 190T91 164Q96 144 101 123T118 84Q132 62 155 50T211 38Q235 38 256 45T292 66T317 99T326 140Q326 175 302 204T226 273Q205 289 185 306T150 344T124 387T114 439V440Z"  />
<glyph unicode="T" horiz-adv-x="631" d="M331 566H300Q273 566 249 563T201 545Q166 526 143 484Q133 465 125 454T101 442Q90 442 84 449T78 468Q78 475 84 497T99 544T116 594T129 630Q131 636 137 648T159 660Q170 660 173 653T191 631Q199 622 213 621T258 619H599Q616 619 637 620T672 628Q687 635 695 641T709 651T718 657T728 659Q737 659 743 653T749 637Q749 631 743 609T729 562T714 514T703 481Q699 470 692 457T666 443Q656 443 651 447T644 458T641 470T640 480Q640 487 640 497T641 517Q641 530 639 539T628 555T604 563T563 566H507L378 127Q376 119 372 103T367 75Q367 57 383 52T422 44Q433 44 443 40T453 22Q453 6 438 1T403 -4Q370 -4 337 -2T271 0Q251 0 230 0T188 -2T151 -3T124 -4Q119 -4 112 -4T97 -1T85 5T80 18Q80 36 94 40T138 47Q153 48 163 54T180 71T192 98T204 135L331 566Z"  />
<glyph unicode="U" horiz-adv-x="704" d="M89 127Q89 141 90 153T95 181T104 215T118 260L190 509Q194 522 196 532T199 551Q199 565 187 570T163 576Q147 578 135 581T122 599Q122 607 131 615T164 623Q187 623 226 621T316 619Q357 619 385 621T433 623Q437 623 443 623T455 620T465 614T469 601Q469 587 459 583T434 575Q417 573 406 569T388 556T376 535T365 503Q344 428 323 355T278 207Q270 180 265 158T259 118Q259 79 290 59T365 38Q415 38 448 56T504 101T540 162T562 228Q582 294 600 358T638 488Q642 502 646 519T650 547Q650 568 638 572T599 579Q590 580 583 585T576 599Q576 614 588 618T611 623Q625 623 647 621T693 619Q718 619 737 621T769 623Q777 623 787 621T798 603Q798 589 787 584T759 576Q746 574 738 571T723 561T713 543T702 511Q681 441 661 372T619 232Q607 191 590 145T540 63Q506 27 454 7T326 -14Q306 -14 280 -12T228 -5T177 11T133 36T101 74T89 126V127Z"  />
<glyph unicode="V" horiz-adv-x="665" d="M360 170Q416 252 472 333T585 500Q593 511 600 527T607 556Q607 570 596 573T575 579Q563 581 554 584T545 601Q545 617 558 620T581 623Q594 623 613 621T656 619Q682 619 709 621T748 623Q762 623 775 621T788 604Q788 591 780 587T754 579Q717 573 696 550T652 494Q566 373 481 253T310 10Q303 0 293 -4T249 -9Q229 -9 218 -7T202 -1T195 9T194 23Q189 150 184 275T172 526Q172 543 170 552T161 567T146 575T122 578Q106 579 100 585T94 599Q94 608 99 613T113 620T129 622T142 623Q156 623 191 621T264 619Q306 619 338 621T387 623Q398 623 411 620T425 602Q425 588 414 584T390 579Q358 578 349 567T342 525V502Q347 418 350 336T358 170H360Z"  />
<glyph unicode="W" horiz-adv-x="900" d="M472 520Q471 529 470 538T464 557T454 572T436 581Q426 583 419 586T412 599Q412 612 421 617T442 623Q486 623 530 621T619 618Q664 618 707 620T794 623Q803 623 810 619T817 604Q817 595 813 590T802 583T788 579T775 576Q740 572 717 543L637 432L669 193H671L889 515Q894 523 902 535T911 559Q911 569 902 572T881 578Q870 580 860 584T850 600Q850 614 861 618T884 623Q905 623 927 621T969 618Q992 618 1010 620T1043 623Q1066 623 1066 600Q1066 593 1061 588T1047 580T1030 574T1015 570Q992 563 977 550T948 518L616 30Q606 15 594 1T561 -13Q540 -13 535 4T528 39L504 265H502L351 42Q338 22 322 5T283 -13Q270 -13 262 -7T250 10T243 32T240 56L182 507Q180 517 179 528T173 550T162 569T143 579Q135 581 124 585T113 601Q113 614 121 618T143 623Q171 623 203 621T266 618Q296 618 322 620T374 623Q384 623 391 618T398 601Q398 590 390 586T372 579Q358 577 348 572T338 550Q338 539 339 528T342 506L389 178H391L494 330L472 520ZM654 530Q659 536 667 548T675 568Q675 576 667 577T648 578Q639 578 627 576T615 559Q615 545 618 522T623 486H625L654 530Z"  />
<glyph unicode="X" horiz-adv-x="727" d="M111 602Q111 610 115 614T126 620T141 622T156 623Q165 623 178 623T208 621T242 620T277 619Q323 619 361 621T418 623Q425 623 437 621T450 603Q450 592 441 587T419 576Q411 574 401 567T391 548Q391 539 394 528T404 502Q416 476 427 449T450 394Q479 424 507 454T564 515Q573 523 581 535T589 558Q589 569 578 573T555 581Q544 584 538 588T532 604Q532 618 544 620T569 623Q587 623 607 621T660 619Q690 619 714 621T757 623Q773 623 778 617T784 603Q784 589 772 584T742 575Q716 569 691 550T633 500Q593 462 554 424T474 348L573 116Q588 81 599 63T641 41Q657 39 667 36T677 19Q677 2 665 -1T641 -4Q619 -4 579 -2T485 0Q468 0 450 0T415 -2T385 -3T362 -4Q357 -4 350 -4T336 -2T325 4T320 16Q320 30 330 35T350 42Q357 43 366 44T383 48T396 56T401 71Q401 79 397 91T387 117Q373 152 360 186T333 254Q302 222 272 191T210 127Q206 123 199 115T184 98T171 80T165 65Q165 53 173 48T193 40Q201 38 209 34T217 19Q217 11 211 4T187 -4Q164 -4 137 -2T84 0Q60 0 36 -2T-10 -4Q-26 -4 -35 0T-45 17Q-45 27 -37 33T-6 43Q23 46 53 68T126 132Q171 176 215 218T303 304L213 508Q205 524 200 537T187 558T169 572T144 578Q131 579 121 583T111 601V602Z"  />
<glyph unicode="Y" horiz-adv-x="669" d="M366 550Q366 544 369 529T377 503Q390 458 403 415T428 326Q466 370 504 413T580 500Q590 511 602 526T614 556Q614 569 602 572T580 578Q566 581 559 585T551 600Q551 614 561 618T585 623Q600 623 618 621T666 619Q692 619 713 621T753 623Q761 623 774 621T787 602Q787 591 780 586T758 578Q731 574 715 562T679 527Q622 464 566 401T453 274Q442 236 431 197T407 120Q403 106 400 92T397 70Q397 52 409 47T441 40Q448 40 461 37T474 20Q474 3 458 0T419 -4Q388 -4 346 -2T273 0Q243 0 211 -2T160 -4Q143 -4 128 -2T112 17Q112 34 127 37T171 44Q186 45 196 51T212 67T223 89T231 116Q242 154 253 191T275 265L185 517Q174 546 164 560T134 576Q113 579 103 583T92 598Q92 607 97 612T110 620T126 622T142 623Q171 623 200 621T259 619Q306 619 344 621T407 623Q415 623 427 621T440 603Q440 588 427 583T400 576Q390 575 378 571T366 551V550Z"  />
<glyph unicode="Z" horiz-adv-x="652" d="M-6 16Q-6 22 6 38T33 72Q131 186 227 298T421 525Q436 541 445 551T454 566Q454 569 440 569T379 570Q343 570 314 567T261 555T220 530T189 487Q181 472 176 463T165 447T154 439T140 437Q130 437 124 444T118 460Q118 466 122 483T133 521T145 560T156 591Q160 602 163 608T173 618T189 623T217 624Q262 624 307 622T415 620Q444 620 478 620T545 622T606 623T652 624Q670 624 681 621T692 607Q692 598 683 586T659 554Q562 440 466 327T272 99Q239 60 239 56Q239 54 241 53T252 51T276 50T319 50Q371 50 406 54T466 69T507 100T538 153Q546 170 553 181T577 192Q591 192 597 184T603 167Q603 159 599 144T590 110T580 72T570 37Q563 8 555 2T528 -4Q512 -4 492 -4T440 -2T366 -1T261 0Q214 0 180 0T119 -1T73 -3T35 -4Q20 -4 7 -2T-6 15V16Z"  />
<glyph unicode="[" horiz-adv-x="322" d="M407 680Q418 680 425 677T433 662Q433 645 420 641T396 636H357Q344 636 336 635T323 628T314 613T306 589L101 -110Q98 -119 96 -129T93 -144Q93 -155 102 -158T131 -161H175Q198 -161 198 -183Q198 -197 189 -201T163 -205H-20Q-35 -205 -40 -202T-46 -190Q-46 -182 -41 -165T-27 -115L200 657Q204 671 209 675T233 680H407Z"  />
<glyph unicode="\" horiz-adv-x="458" d="M67 673Q67 680 82 680H138Q147 680 151 675T158 660L478 -177Q481 -185 483 -192T486 -204Q486 -211 472 -211H415Q407 -211 404 -207T396 -194L75 646Q72 654 70 660T67 672V673Z"  />
<glyph unicode="]" horiz-adv-x="322" d="M-70 -206Q-81 -206 -88 -204T-96 -189Q-96 -172 -83 -167T-59 -162H-20Q5 -162 13 -154T31 -116L237 583Q239 592 241 602T244 617Q244 628 235 631T207 635H162Q139 635 139 657Q139 671 148 674T174 678H357Q372 678 377 675T383 664Q383 651 364 588L137 -184Q133 -198 128 -202T104 -206H-70Z"  />
<glyph unicode="^" horiz-adv-x="587" d="M357 619L571 219H475L313 521L150 219H55L270 619H357Z"  />
<glyph unicode="_" horiz-adv-x="500" d="M500 -75V-125H0V-75H500Z"  />
<glyph unicode="`" horiz-adv-x="437" d="M145 649Q145 664 157 673T186 683Q203 683 217 674T245 650L343 554Q366 533 366 524Q366 515 355 515Q350 515 341 519T322 528L182 600Q167 608 156 618T145 648V649Z"  />
<glyph unicode="a" horiz-adv-x="635" d="M14 97Q14 127 23 159T47 221T84 281T128 334Q152 359 180 380T238 417T299 442T360 451Q379 451 392 447T415 439T431 430T444 426Q449 426 453 433T462 448Q466 455 471 458T489 462Q507 463 529 463T570 463Q583 462 590 459T598 445Q598 440 596 431T590 411Q572 354 550 288T509 162Q504 148 501 136T498 117Q498 109 501 107T507 104Q513 104 521 110T538 125T554 143T565 158Q578 173 583 179T597 186Q605 186 609 181T614 170Q614 161 608 148T592 121T569 91T543 64Q528 50 510 37T471 12T429 -6T386 -13Q371 -13 362 -8T349 6T343 24T341 40Q341 68 350 98Q359 130 370 164T396 237H394Q370 197 336 153T263 72T183 11T104 -14Q87 -14 71 -7T42 15T22 49T14 96V97ZM432 370Q432 383 422 392T393 402Q376 402 358 394T321 373T286 343T255 309Q241 292 228 272T204 231T187 189T180 151Q180 138 187 126T208 114Q223 114 241 125T278 152T315 188T347 224Q359 239 374 259T402 299T423 338T432 369V370Z"  />
<glyph unicode="b" horiz-adv-x="597" d="M590 325Q590 258 558 197T473 89T351 14T209 -14Q188 -14 160 -9T106 10T64 51T46 120Q46 142 49 163T58 204T69 241T79 270Q98 329 117 386T156 502Q166 529 170 543T174 567Q174 581 167 586T148 592Q129 594 116 596T103 613Q103 630 119 634T168 642Q214 646 249 654T327 679Q341 684 350 684Q356 684 362 681T368 670Q366 662 363 651T355 629L238 285L240 284Q259 311 285 341T342 398T407 441T477 458Q505 458 526 447T561 417T583 374T590 326V325ZM435 312Q435 334 424 348T398 362Q380 362 356 346T307 305T257 247T214 182T183 122T171 74Q171 50 184 42T215 34Q248 36 286 65T358 137T413 227T435 311V312Z"  />
<glyph unicode="c" horiz-adv-x="474" d="M485 389Q485 367 467 350T425 333Q410 333 398 338T376 353Q365 362 360 371T348 393Q343 401 338 407T325 414Q309 414 286 389T245 333Q233 314 222 292T203 246T189 198T184 153Q184 115 202 95T249 74Q265 74 282 80T316 95T348 118T375 145Q391 162 401 173T419 184Q427 184 430 179T434 167Q434 155 423 136T398 100Q381 79 359 59T309 23T251 -4T184 -14Q149 -14 120 0T69 37T37 90T25 153Q25 203 48 256T113 353Q155 397 217 427T357 458Q390 458 414 452T454 435T477 412T485 390V389Z"  />
<glyph unicode="d" horiz-adv-x="632" d="M23 113Q23 178 54 241T132 352Q178 398 237 428T359 458Q388 458 408 448T442 425Q450 451 457 476T473 528Q475 535 477 545T480 561Q480 572 476 578T465 587T452 591T440 592Q425 592 415 595T405 612Q405 628 416 631T439 636Q477 640 517 646T589 666Q602 671 616 676T639 682Q655 682 655 663Q655 657 653 648T647 627L518 195Q515 186 512 175T507 152T502 132T500 119Q500 104 512 104Q517 104 524 110T540 124T555 142T566 159Q577 176 584 182T597 188Q605 188 608 183T611 172Q611 164 607 154T596 131T581 107T563 85Q548 68 529 51T487 19T439 -4T389 -14Q369 -14 356 -3T342 34Q342 53 347 75T357 117Q364 142 371 165T385 207L383 209Q366 185 340 147T279 73T206 12T124 -14Q95 -14 76 -2T45 29T28 70T23 112V113ZM426 370Q426 387 415 395T388 404Q370 404 352 396T315 376T280 347T250 313Q237 295 225 275T204 233T189 191T183 152Q183 138 189 125T214 112Q230 112 248 123T284 150T319 186T349 222Q361 237 374 256T399 297T418 337T426 369V370Z"  />
<glyph unicode="e" horiz-adv-x="477" d="M485 358Q485 327 471 304T432 263T378 235T317 216T257 204T206 195Q200 193 193 192T180 189Q177 172 177 156Q177 114 196 93T251 72Q270 72 289 79T324 96T355 120T380 145Q392 157 399 162T412 167Q420 167 424 162T428 152Q428 144 420 130T401 103Q384 82 362 62T311 24T249 -3T179 -14Q138 -14 109 -1T59 35T30 86T20 144Q20 198 45 254T115 355T217 429T343 458Q356 458 379 455T426 441T467 411T485 359V358ZM334 417Q314 417 293 405T251 368T214 310T187 232Q241 243 285 263T350 313Q362 331 367 348T372 378Q372 396 362 406T335 417H334Z"  />
<glyph unicode="f" horiz-adv-x="415" d="M588 609Q588 585 571 568T525 551Q490 551 471 577Q460 594 458 618Q456 623 454 629T443 635Q435 635 423 627T399 601Q385 583 373 555T351 496Q347 483 344 470T335 442H425Q435 442 441 441T447 434Q447 427 444 419T438 400Q435 391 429 390T414 388H320Q297 305 275 223T226 57Q208 -4 184 -55T121 -145Q98 -169 72 -185T21 -211T-27 -225T-68 -229Q-124 -229 -153 -206T-182 -150Q-182 -122 -164 -105T-116 -87Q-89 -87 -74 -99T-52 -130Q-50 -135 -49 -142T-46 -155Q-45 -164 -43 -172T-31 -180Q-20 -180 -8 -162T15 -120Q31 -86 44 -42T69 40Q95 128 120 214T170 388H92Q77 388 77 396Q77 403 80 413T86 430Q90 439 96 440T113 442H186Q204 492 232 537T303 615Q340 644 388 663T482 683Q527 683 557 665T588 610V609Z"  />
<glyph unicode="g" horiz-adv-x="553" d="M62 293Q62 325 77 354T121 407T192 444T287 458Q319 458 345 453T386 443Q408 435 415 433T428 430H551Q568 430 574 429T581 421Q581 417 578 406T572 387Q568 379 563 376T545 373H474Q486 359 494 341T503 298Q503 259 483 229T432 179T363 148T288 137Q259 137 228 143T177 158Q166 153 161 145T156 130Q156 105 196 92T302 67Q327 62 355 53T409 30T450 -6T467 -58Q467 -84 452 -114T404 -169T318 -212T188 -229Q123 -229 77 -215T0 -181T-44 -139T-59 -98Q-59 -71 -41 -53T2 -21T55 -1T101 11Q76 24 57 43T38 91Q38 109 49 123T76 148T109 166T139 179Q127 186 114 196T89 221T70 252T62 292V293ZM364 354Q364 363 362 374T354 394T338 409T313 415Q290 415 271 396T237 348T214 291T205 240Q205 217 217 199T256 180Q276 180 295 197T330 241T354 298T364 353V354ZM226 -185Q244 -185 263 -181T297 -168T323 -148T333 -118Q333 -104 326 -94T307 -77T281 -65T255 -56Q228 -48 198 -39T143 -19Q131 -23 118 -29T93 -43T75 -62T67 -89Q67 -112 82 -130T120 -160T171 -178T225 -185H226Z"  />
<glyph unicode="h" horiz-adv-x="623" d="M598 321Q598 273 574 215T511 106T421 21T316 -14Q283 -14 262 -1T241 36Q241 51 249 59T271 68Q281 68 287 62T298 49Q308 37 322 37Q335 37 348 51T375 89T400 143T421 203T436 260T443 308Q445 334 436 349T407 364Q392 364 374 352T337 322T301 281T270 237Q244 197 220 150T175 47Q169 32 164 23T150 8T128 0T90 -2Q47 -2 35 4T22 19Q22 27 26 38T32 57Q67 166 102 274T172 492Q174 501 179 519T185 551Q185 571 175 578T150 587Q140 588 133 588T121 590Q116 592 114 595T111 606Q111 620 126 625T155 631Q194 634 238 642T324 667Q337 672 347 676T362 680Q370 680 374 675T379 664Q379 660 375 650T369 632Q340 547 311 462T252 292L254 291Q273 316 297 345T351 400T413 442T483 459Q533 459 565 426T598 322V321Z"  />
<glyph unicode="i" horiz-adv-x="375" d="M372 590Q372 573 365 558T345 532T317 513T282 506Q250 506 234 523T218 563Q218 580 225 595T244 623T272 642T306 649Q336 649 354 633T372 591V590ZM326 413Q326 403 321 385T310 349Q296 302 279 253T246 158Q240 143 237 131T233 112Q233 106 235 101T245 96Q251 96 258 102T274 117T291 137T306 159Q326 190 337 190Q345 190 348 185T351 174Q351 160 339 138T312 98Q298 80 278 60T234 24T184 -3T131 -14Q93 -14 82 5T70 48Q70 62 75 84T89 129Q104 178 122 229T154 321Q157 330 160 338T163 350Q163 363 153 363Q147 363 140 359T125 348T112 335T101 323Q85 306 76 297T59 287Q52 287 49 292T45 303Q45 309 50 318T62 339T79 360T98 380Q112 393 131 406T172 431T218 450T268 458Q287 458 306 449T326 414V413Z"  />
<glyph unicode="j" horiz-adv-x="350" d="M379 590Q379 572 371 557T350 530T322 512T292 506Q269 506 256 513T235 529T226 549T223 565Q223 582 230 597T250 623T278 642T312 649Q344 649 361 633T379 591V590ZM337 415Q337 404 333 389T323 353Q296 265 270 178T216 2Q200 -49 176 -94T115 -171Q82 -200 37 -216T-62 -232Q-73 -232 -89 -231T-121 -222T-148 -201T-160 -163Q-160 -142 -146 -124T-105 -105Q-81 -105 -68 -119T-42 -154Q-34 -168 -27 -178T-8 -189Q5 -189 10 -179T19 -160Q22 -144 24 -132T29 -107T36 -80T47 -46Q75 41 102 126T157 299Q159 305 161 312T166 327T170 340T172 348Q172 353 170 357T160 362Q150 362 135 348T109 323Q89 303 81 294T64 284Q57 284 54 289T50 300Q50 306 54 315T66 334T83 354T100 372Q115 386 135 401T180 429T230 450T285 458Q311 458 324 446T337 416V415Z"  />
<glyph unicode="k" horiz-adv-x="598" d="M574 364Q574 325 556 297T509 249T442 219T368 204L367 202Q389 197 398 182T420 134Q424 123 430 109T445 81T463 60T485 51Q496 51 505 58T515 80Q515 90 511 95T500 106T490 116T485 132Q485 141 493 150T514 159Q535 159 547 141T560 100Q560 75 548 54T517 18T473 -5T424 -14Q381 -14 353 1T306 39T278 86T261 129Q256 145 249 157T228 169Q220 169 216 163T208 144Q194 99 178 54Q173 37 168 26T156 9T138 1T107 -2H68Q37 -1 29 3T20 16Q20 23 23 34T30 60Q65 178 100 294T170 528Q173 538 176 551T180 572Q180 592 165 596T133 601Q125 602 116 604T107 619Q107 626 110 630T122 637T146 642T186 646Q208 647 239 651T309 670Q318 673 327 676T344 680Q347 680 353 678T360 665Q360 662 354 643T343 607L249 302L251 300Q263 318 284 345T334 397T398 440T472 458Q520 458 547 430T574 365V364ZM429 344Q429 356 422 364T400 373Q384 373 360 360T311 324T263 272T226 210Q231 210 237 210T255 211Q291 214 322 227T378 258T415 299T429 343V344Z"  />
<glyph unicode="l" horiz-adv-x="336" d="M33 42Q33 71 41 105T62 179Q89 266 116 351T170 523Q174 537 177 548T180 567Q180 584 168 587T135 591Q124 591 116 594T107 608Q107 622 119 627T157 634Q175 635 196 638T239 646T279 657T314 669Q339 680 347 680Q352 680 358 677T364 665Q364 661 361 651T355 632Q319 515 283 400T209 167Q203 147 199 131T194 105Q194 100 196 95T205 90Q211 90 221 98T241 118T262 143T278 165Q283 173 289 179T301 185Q308 185 311 180T314 169Q314 162 310 152T299 131T283 107T265 85Q251 69 232 52T189 20T141 -4T89 -14Q71 -14 60 -9T43 5T35 22T33 41V42Z"  />
<glyph unicode="m" horiz-adv-x="903" d="M292 399Q292 373 281 338T257 250L260 249Q275 276 297 312T349 381T412 435T483 458Q522 458 537 434T553 380Q553 352 544 319T528 260L531 259Q549 290 573 327T629 396Q652 419 686 438T756 458Q768 458 782 455T808 444T829 421T838 382Q838 363 834 345T822 304Q811 272 799 236T770 153Q766 142 763 130T759 109Q759 94 772 94Q778 94 786 100T804 116T821 136T836 156Q842 164 850 175T866 186Q875 186 877 180T880 170Q880 161 875 149T861 124T842 96T820 71Q806 56 788 41T748 14T705 -6T659 -14Q652 -14 642 -12T623 -5T608 11T601 38Q601 55 609 81T626 135Q637 167 648 199T671 263Q680 288 688 312T697 347Q697 358 692 362T678 366Q669 366 656 357T627 331T596 292T565 243Q542 205 517 153T475 47Q470 32 466 23T455 8T437 0T405 -2H381Q352 -2 341 1T330 16Q330 21 332 28T336 43Q343 68 352 97T372 158T392 221T410 281Q416 299 420 314T424 338Q424 346 421 353T406 361Q398 361 386 353T361 330T335 296T309 256Q294 233 279 204T249 145T224 88T205 41Q199 26 193 18T179 5T161 -1T136 -2H108Q75 -2 67 2T59 17Q59 29 72 66L147 306Q151 319 154 330T157 351Q157 365 148 365Q143 365 136 360T121 348T104 331T90 314Q79 301 71 292T54 282Q49 282 45 286T40 300Q40 304 45 313T57 335T75 359T94 381Q107 394 123 407T158 432T197 451T239 458Q263 458 277 444T292 400V399Z"  />
<glyph unicode="n" horiz-adv-x="684" d="M617 376Q617 363 614 348T606 319Q595 286 582 251T553 178Q542 149 536 134T530 110Q530 102 534 98T545 93Q552 93 560 98T577 112T594 128T607 144Q618 158 629 172T649 187Q657 187 661 182T665 171Q665 156 650 132T608 80Q592 64 571 48T527 18T478 -5T426 -14Q419 -14 408 -12T387 -5T370 11T363 40Q363 60 369 82T385 132Q397 163 410 197T439 272Q441 278 444 287T451 306T457 325T460 340Q460 351 454 357T439 363Q428 363 414 354T383 330T350 294T318 250Q304 232 289 208T260 156T233 101T211 45Q206 30 202 21T189 7T167 0T130 -2H106Q98 -2 89 -2T73 0T60 5T55 15Q55 21 58 34T64 52Q85 115 106 177T147 303Q152 317 155 328T159 348Q159 362 145 362Q140 362 132 357T114 342T96 323T79 304Q74 297 67 290T54 283Q46 283 43 288T39 299Q39 305 43 314T55 335T72 357T90 377Q103 391 121 405T158 431T199 450T241 458Q268 458 285 445T302 401Q302 386 299 371T291 340Q285 319 278 296T262 247L264 245Q285 280 313 317T376 386T448 438T528 458Q573 458 595 434T617 377V376Z"  />
<glyph unicode="o" horiz-adv-x="554" d="M530 259Q530 206 507 157T444 71Q405 34 352 10T243 -14Q196 -14 157 1T91 43T48 106T32 184Q32 239 56 289T119 376T210 436T316 458Q362 458 401 443T469 402T514 339T530 260V259ZM390 334Q390 347 388 360T378 385T360 403T331 411Q302 411 275 384T228 317Q215 293 205 267T188 214T177 163T173 118Q173 103 176 88T185 61T203 42T233 34Q263 34 289 61T337 131Q349 153 358 179T375 231T386 284T390 333V334Z"  />
<glyph unicode="p" horiz-adv-x="596" d="M585 318Q585 287 577 254T554 189T518 127T469 73Q427 33 373 14T263 -7Q241 -8 221 -3T184 10Q178 -11 172 -32T159 -75Q154 -89 150 -106T146 -133Q146 -147 151 -155T164 -167T182 -173T201 -175Q219 -176 234 -178T249 -196Q249 -207 239 -212T214 -218Q188 -218 146 -215Q125 -214 102 -214T56 -213Q39 -213 17 -214T-26 -216T-65 -219T-90 -220Q-100 -220 -109 -216T-118 -200Q-118 -185 -105 -181T-67 -174Q-49 -173 -38 -168T-20 -151T-7 -122T7 -78L139 369Q142 376 133 374Q116 372 92 366T52 358Q48 358 43 360T38 373Q38 385 46 392T65 405Q81 413 101 417T141 426Q150 428 153 431T159 444L181 516Q186 533 191 541T207 552Q219 555 237 556T275 557Q287 557 297 557T319 556Q337 554 337 543Q337 540 336 535T333 524Q327 505 322 487T310 448Q338 452 366 454Q380 455 392 455T418 456Q446 456 475 451T529 431T569 389T585 319V318ZM352 404Q338 404 324 402T298 396L280 339Q264 287 249 236T217 133Q212 118 209 101T205 73Q205 55 219 46T250 37Q284 37 315 67T372 143Q384 163 395 186T415 234T428 282T433 327Q433 404 353 404H352Z"  />
<glyph unicode="q" horiz-adv-x="595" d="M16 105Q16 136 25 168T49 231T85 290T129 342Q153 366 181 387T240 424T302 449T363 458Q386 458 405 453T454 436Q462 433 471 431T492 428Q510 428 522 435T551 456Q560 464 567 466T580 469Q599 469 599 453Q599 446 596 436T588 410Q550 285 512 162T436 -88Q433 -99 428 -116T423 -142Q423 -155 431 -164T461 -176Q478 -178 489 -181T501 -196Q501 -210 489 -214T468 -218Q465 -218 448 -218T410 -215Q389 -214 369 -214T338 -213Q329 -213 307 -214T261 -216T215 -219T186 -220Q178 -220 168 -218T157 -202Q157 -187 171 -183T215 -176Q246 -173 258 -153T284 -94L364 169L363 171Q348 148 323 116T267 55T198 6T121 -14Q94 -14 75 -4T42 23T23 61T16 104V105ZM428 368Q428 388 416 396T389 404Q371 404 353 396T317 373T282 340T251 302Q237 283 224 261T201 217T184 175T177 138Q177 116 187 105T213 93Q233 93 256 109T304 150T350 206T390 267T417 324T428 367V368Z"  />
<glyph unicode="r" horiz-adv-x="487" d="M527 385Q527 367 521 351T503 321T478 300T446 292Q433 292 421 297Q411 304 405 313T395 333Q391 343 385 343Q379 343 370 334T349 310T326 277T305 241Q295 223 283 199T258 149T234 95T213 41Q208 27 204 19T193 6T173 0T137 -2Q102 -2 81 0T60 21Q60 31 64 43T71 65Q89 125 107 184T144 302Q147 313 150 326T154 348Q154 356 152 361T143 367Q138 367 132 363T118 351T105 337T94 325Q86 314 81 308T70 295Q67 291 64 288T55 285Q39 285 39 301Q39 308 44 319T58 344T77 369T99 392Q123 416 157 437T226 458Q248 458 269 443T290 390Q290 364 279 326T253 235L255 233Q271 263 292 302T340 375T395 434T457 458Q489 458 508 438T527 386V385Z"  />
<glyph unicode="s" horiz-adv-x="448" d="M400 145Q400 112 378 80T320 26Q290 7 251 -3T166 -14Q122 -14 83 -3T19 22Q-5 36 -5 60Q-5 70 -2 83T5 107Q10 121 19 135T45 150Q59 150 68 142T90 111Q98 96 108 82T131 56T157 37T189 30Q212 30 228 45T245 80Q245 109 220 132T165 181Q135 206 110 236T85 308Q85 339 100 366T143 414T212 446T302 458Q317 458 342 457T391 450T432 434T450 406Q450 401 447 388T437 362Q431 350 422 338T398 326Q380 326 368 340T344 372Q332 389 318 403T280 418Q257 418 242 404T226 369Q226 356 231 346T246 324T273 300T312 270Q327 258 343 245T371 217T392 185T400 146V145Z"  />
<glyph unicode="t" horiz-adv-x="352" d="M38 44Q38 62 44 89T62 152Q79 212 96 270T131 388H78Q61 388 61 396Q61 401 65 413T72 431Q75 439 80 440T96 442H147L178 545Q182 556 186 559T198 565Q202 566 212 567T233 568T254 569T271 569Q284 569 295 569T319 568Q324 568 327 566T331 559Q331 556 326 539Q319 515 313 491T298 442H377Q394 442 394 435Q394 430 392 422T386 404Q382 393 377 391T360 388H282Q266 334 251 279T218 169Q216 164 214 156T210 138T206 120T204 108Q204 92 216 92Q223 92 232 99T250 115T267 135T279 150Q290 165 297 174T311 184Q318 184 322 179T326 168Q326 157 316 140T295 108Q280 89 259 68T211 28T155 -2T96 -14Q89 -14 79 -12T60 -3T45 15T38 43V44Z"  />
<glyph unicode="u" horiz-adv-x="680" d="M69 54Q69 67 71 82T78 110T85 135T92 154Q106 192 119 231T147 308Q150 316 154 329T159 350Q159 356 157 360T148 365Q142 365 134 359T118 346T103 330T92 317Q76 298 69 291T54 284Q41 284 41 300Q41 312 58 338T105 391T175 438T263 458Q269 458 279 456T298 449T313 434T320 410Q320 401 317 384T305 346Q291 302 277 259T248 170Q244 161 239 143T234 114Q234 103 239 99T252 94Q261 94 275 102T305 124T337 156T367 196Q407 253 432 309T472 411Q480 434 486 439T511 446Q520 446 533 446T561 446T588 446T608 446Q616 446 622 445T629 435Q629 430 627 424T621 408Q604 353 587 298T553 185Q538 132 538 117Q538 109 540 104T551 99Q558 99 567 106T586 125T604 147T618 166Q629 179 633 184T646 189Q661 189 661 174Q661 159 641 128T588 65T511 10T423 -14Q377 -14 377 32Q377 57 389 99T418 192L415 193Q380 143 341 104T263 39T190 0T132 -14Q97 -14 83 7T69 53V54Z"  />
<glyph unicode="v" horiz-adv-x="529" d="M66 80Q66 100 73 125T88 171Q102 207 115 243T142 315Q147 330 150 338T154 351Q154 365 142 365Q136 365 128 359T112 345T96 329T86 316Q70 297 64 292T49 286Q41 286 39 290T36 300Q36 315 49 333Q65 357 89 379T147 421Q170 434 197 444T253 454Q276 454 294 443T312 400Q312 389 308 367T294 319Q280 281 266 244T238 168Q233 153 228 136T222 104Q222 85 233 77T255 68Q282 68 314 92T374 152T421 229T440 305Q440 313 439 321T431 342Q418 365 414 375T409 398Q409 425 428 442T475 459Q492 459 504 452T524 434T536 410T540 385Q540 351 524 308T479 221T413 135T334 59T249 6T166 -14Q118 -14 92 12T66 79V80Z"  />
<glyph unicode="w" horiz-adv-x="793" d="M578 446Q598 446 604 445T610 436Q610 432 608 424T601 402Q592 375 578 332T549 244T525 162T515 109Q515 96 520 85T541 74Q563 74 593 98T650 159T697 236T716 309Q716 324 712 335T701 356T691 376T686 399Q686 422 700 440T741 459Q757 459 769 452T788 435T799 412T803 387Q803 349 787 305T742 215T678 129T602 56T521 5T444 -14Q423 -14 409 -8T386 8T374 32T370 60Q370 84 376 107T394 164L392 165Q373 133 348 102T292 44T227 2T156 -14Q114 -14 92 12T69 71Q69 105 83 147T114 229T145 302T159 352Q159 358 157 362T149 367Q139 367 127 356T100 329Q77 303 67 292T49 281Q41 281 38 286T35 297Q35 312 55 339T108 393T178 439T252 459Q279 459 298 444T318 398Q318 385 311 362T294 312T272 256T249 200T232 151T225 117Q225 102 232 94T252 86Q268 86 287 99T325 137T364 193T399 262Q416 301 430 339T456 407Q464 428 470 437T494 446H578Z"  />
<glyph unicode="x" horiz-adv-x="562" d="M592 396Q592 370 574 349T526 328Q515 328 509 331T498 339Q494 344 491 349T485 358Q479 366 471 366Q465 366 455 359T432 339Q415 321 397 297T368 255Q372 242 377 226T388 193T399 161T408 135Q410 130 413 123T420 108T430 96T443 91Q452 91 459 97T471 112T479 131T484 148Q493 176 506 176Q517 176 520 169T523 154Q523 136 512 108T481 52T433 6T371 -14Q341 -14 325 3T296 43Q284 66 273 91T251 146Q228 116 203 85T150 30Q127 10 103 -2T49 -14Q13 -14 -6 4T-26 51Q-26 77 -8 98T35 119Q62 119 73 98Q75 92 76 87T82 75Q84 71 89 67T101 62Q114 62 134 79T173 120T209 165T231 197Q227 209 222 225T212 259T202 291T192 317Q190 323 187 331T179 346T168 359T153 364Q137 364 127 349T112 319Q105 299 100 286T83 273Q72 273 70 281T67 294Q67 317 78 345T111 399T161 441T227 458Q266 458 286 437T320 379Q327 361 333 343T347 305Q371 336 392 364T434 413T476 446T522 458Q550 458 571 442T592 397V396Z"  />
<glyph unicode="y" horiz-adv-x="532" d="M542 388Q542 348 519 298T463 197T390 98T319 14Q305 -3 290 -20T260 -53Q229 -86 197 -117T131 -171T66 -208T1 -222Q-32 -222 -57 -204T-83 -157Q-83 -134 -66 -117T-23 -100Q-3 -100 10 -109T33 -128Q41 -136 49 -142T70 -148Q96 -148 117 -127T150 -84Q160 -66 164 -45T171 -2Q172 25 171 60T167 134Q164 160 161 198T152 272T139 333T119 359Q112 359 105 352T90 336T78 319T72 307Q67 296 61 286T43 275Q35 275 32 281T28 293Q28 309 40 332T65 373Q77 388 92 403T126 431T164 450T207 458Q239 458 260 430T296 349Q304 317 311 267T318 159Q318 141 317 122T315 73L316 71Q345 106 367 138T407 199Q424 229 437 257T450 310Q450 323 446 333T440 350Q429 370 425 378T421 398Q421 422 439 440T483 458Q499 458 510 451T529 434T539 411T542 389V388Z"  />
<glyph unicode="z" horiz-adv-x="517" d="M-18 20Q-18 28 -13 36T-1 51T15 65T31 75Q51 86 65 93T91 107Q106 120 122 134T159 169Q206 214 254 253T353 330L351 332Q322 318 305 314T269 309Q257 309 242 312T212 319T182 326T158 329Q138 329 126 320T111 289Q109 281 107 274T95 266Q87 266 82 271T74 284T70 300T69 315Q69 343 80 368T110 413T157 444T216 456Q228 456 239 455T262 449T291 440T331 425Q354 416 375 410T422 405Q434 408 445 416T478 439Q505 458 524 458Q529 458 540 455T552 440Q552 430 544 420T526 401T504 385T488 374Q462 357 447 347T414 322Q380 295 347 266T280 209Q228 164 171 118L173 116Q193 127 211 132T252 138Q278 138 295 133T327 122Q341 116 352 111T376 105Q393 105 408 115T423 145Q423 152 422 158T421 169Q423 181 437 181Q450 181 458 166T467 130Q467 106 457 81T426 35Q404 12 373 -1T304 -14Q276 -14 244 -4T180 32Q157 48 146 55T124 62Q117 62 110 56T97 44Q92 39 84 31T66 15T42 1T15 -5Q-2 -5 -10 2T-18 19V20Z"  />
<glyph unicode="{" horiz-adv-x="303" d="M13 -103Q13 -78 20 -47Q29 -5 41 34T64 115Q68 131 70 146T73 175Q73 189 68 200T48 213Q23 219 23 236Q23 246 31 253T56 262Q87 265 106 299T141 386L180 529Q194 579 216 609T265 656T318 678T370 684Q389 684 402 681T415 663Q415 651 407 646T387 641Q364 641 342 619T303 534L263 392Q254 359 244 334T220 289T187 258T139 238V236Q165 224 176 201T186 149Q186 132 184 115T176 80Q166 44 157 9T136 -63Q131 -82 129 -97T126 -129Q125 -151 133 -160T158 -171Q167 -173 173 -177T179 -194Q179 -207 167 -211T135 -216Q78 -216 46 -190T13 -104V-103Z"  />
<glyph unicode="|" horiz-adv-x="508" d="M233 -250V750H329V-250H233Z"  />
<glyph unicode="}" horiz-adv-x="303" d="M311 571Q311 546 304 515Q295 474 283 434T260 353Q256 337 253 322T250 293Q250 279 256 268T275 255Q300 249 300 232Q300 222 293 215T268 206Q237 203 218 169T183 82L144 -61Q130 -111 108 -141T59 -188T5 -210T-46 -216Q-65 -216 -78 -213T-91 -195Q-91 -183 -83 -178T-63 -173Q-40 -173 -18 -151T21 -66L60 77Q69 110 79 135T104 179T137 210T185 230V232Q159 244 148 267T138 319Q138 353 148 389Q159 424 168 459T187 531Q192 550 195 566T198 597Q199 619 191 628T166 640Q157 642 151 645T145 662Q145 676 157 680T189 684Q246 684 278 658T311 572V571Z"  />
<glyph unicode="~" horiz-adv-x="587" d="M80 243Q100 278 129 304T206 331Q235 331 262 322T320 298Q346 286 372 275T421 263Q450 263 471 285T509 333L546 259Q534 242 522 226T494 198T461 179T420 171Q390 171 364 181T313 205Q288 219 262 229T203 239Q187 239 175 233T152 217T133 195T117 171L80 243Z"  />
<glyph unicode="&#xA0;" horiz-adv-x="300" />
<glyph unicode="&#xA1;" horiz-adv-x="305" d="M128 368Q128 386 135 402T154 431T184 450T221 458Q256 458 275 438T294 390Q294 373 288 357T269 328T240 307T203 299Q170 299 149 318T128 367V368ZM-49 -169Q-49 -147 -27 -103Q10 -26 45 49T116 201Q130 228 141 238T167 249Q178 249 184 246T193 238T197 228T198 219Q198 214 197 208T195 194Q181 122 169 45T142 -98Q138 -121 131 -141T112 -177T79 -202T27 -212Q16 -212 3 -211T-21 -205T-41 -192T-49 -170V-169Z"  />
<glyph unicode="&#xA2;" horiz-adv-x="601" d="M248 98Q192 109 158 148T124 250Q124 283 138 324T182 404T259 476T375 525L399 606Q403 621 409 624T436 627Q454 627 459 625T460 605L438 529Q452 529 471 527T509 519T539 502T552 470Q552 453 539 438T500 423Q483 423 473 428T453 441Q444 449 439 459T428 480Q421 495 409 495Q391 495 368 472T323 412T287 333T272 251Q272 217 289 197T334 177Q372 177 403 199T458 248Q471 262 477 268T490 275Q498 275 501 270T505 259Q505 247 489 222T445 170T383 122T310 99L287 18Q282 1 276 -2T249 -5Q231 -5 226 -2T225 19L248 98Z"  />
<glyph unicode="&#xA3;" horiz-adv-x="601" d="M172 285Q163 285 159 286T155 292Q155 297 157 307T162 327Q164 335 170 337T187 340H256Q253 360 251 382T248 427Q248 473 265 512T312 579T382 622T470 638Q491 638 511 634T546 621T570 598T580 563Q580 541 567 525T527 509Q508 509 494 516T478 543Q476 553 476 562T474 580Q471 596 447 596Q431 596 420 585T402 557T392 522T389 488Q389 452 398 414T408 340H499Q508 340 512 339T517 333Q517 328 515 318T509 298Q507 290 501 288T484 285H406Q401 187 340 124Q363 110 392 97T449 84Q492 84 513 104T537 152Q538 160 538 167T537 182Q539 195 553 195Q561 195 566 189T575 174T580 154T582 131Q582 98 571 71T540 25T494 -4T438 -14Q391 -14 356 6T281 60Q252 28 213 9T125 -10Q104 -10 82 -6T41 9T11 38T-1 84Q-1 111 11 130T41 162T83 181T128 187Q160 187 192 180T256 154Q270 185 270 222Q270 256 262 285H172ZM98 85Q98 62 112 52T146 41Q171 41 194 57T230 95Q216 111 196 123T155 136Q132 136 115 124T98 86V85Z"  />
<glyph unicode="&#xA4;" horiz-adv-x="601" d="M59 98L154 193Q137 216 128 246T119 311Q119 346 129 376T154 429L59 524L116 581L211 486Q234 502 264 511T329 521Q364 521 394 512T447 486L542 581L600 524L505 429Q520 407 530 377T540 311Q540 276 530 246T505 193L600 98L542 41L447 136Q425 120 395 110T329 100Q294 100 264 110T211 135L116 41L59 98ZM328 436Q302 436 280 426T242 399T217 359T208 311Q208 285 217 262T242 222T280 195T329 185Q355 185 377 195T416 222T442 262T451 311Q451 336 442 359T417 399T378 426T329 436H328Z"  />
<glyph unicode="&#xA5;" horiz-adv-x="601" d="M344 550Q344 542 346 528T350 503Q361 458 370 414T390 325Q425 370 459 413T528 500Q536 511 547 528T559 558Q559 569 549 573T530 579Q522 583 515 587T507 605Q507 616 515 619T536 623Q552 623 569 621T614 619Q639 619 659 621T699 623Q707 623 720 621T733 602Q733 591 726 586T705 578Q681 574 663 563T625 527L534 416H610Q621 416 624 415T627 408Q627 404 623 393T616 373Q614 364 610 362T592 359H489Q472 338 455 318T419 275H569Q580 275 583 274T586 268Q586 263 583 252T576 232Q573 224 570 222T552 219H400Q392 195 385 170T369 120Q365 106 362 92T359 70Q359 52 371 47T403 40Q410 40 423 37T436 20Q436 3 420 0T381 -4Q352 -4 318 -2T254 0Q221 0 187 -2T130 -4Q113 -4 98 -2T82 17Q82 34 96 37T141 44Q171 47 182 67T201 116Q209 142 216 167T232 219H81Q70 219 67 220T64 226Q64 231 68 242T75 262Q77 270 81 272T99 275H241Q236 297 230 317T218 359H113Q102 359 99 360T96 366Q96 371 99 382T106 402Q109 410 112 413T130 416H202L172 516Q164 544 153 559T120 576Q101 579 91 583T81 598Q81 607 86 612T98 620T115 622T131 623Q156 623 185 621T246 619Q280 619 316 621T377 623Q385 623 397 621T410 603Q410 588 398 584T375 577Q364 575 354 570T344 551V550Z"  />
<glyph unicode="&#xA6;" horiz-adv-x="508" d="M233 325V675H329V325H233ZM233 -175V175H329V-175H233Z"  />
<glyph unicode="&#xA7;" horiz-adv-x="542" d="M477 196Q477 170 469 149T445 111T408 84T363 73Q349 71 336 74Q328 74 328 66Q331 60 338 50T353 26T367 -5T373 -45Q373 -83 358 -111T317 -157T258 -185T190 -194Q163 -194 136 -187T88 -167T54 -133T40 -85Q40 -59 56 -38T102 -17Q126 -17 141 -31T156 -72Q156 -86 151 -94T140 -110T129 -122T123 -134Q123 -141 130 -146T146 -154T167 -160T188 -162Q226 -162 253 -143T281 -82Q281 -56 267 -31T231 20T185 72T138 127T103 185T88 249Q88 276 97 298T120 336T153 363T192 376Q211 379 227 376Q234 376 234 384Q229 393 222 403T208 427T195 457T190 495Q190 524 201 550T236 596T292 627T369 639Q406 639 433 630T477 605T503 572T512 537Q512 511 496 493T453 475Q432 475 416 488T400 523Q400 535 404 544T413 560T422 572T426 584Q426 593 412 600T370 608Q332 608 308 587T283 530Q283 504 297 479T333 428T380 376T426 321T462 262T477 197V196ZM335 100Q361 100 375 118T390 158Q390 176 379 202T335 270Q300 316 276 333T231 351Q208 351 191 336T173 296Q173 287 175 277T183 253T202 221T233 177Q265 135 288 118T334 100H335Z"  />
<glyph unicode="&#xA8;" horiz-adv-x="424" d="M204 540Q184 540 169 552T153 588Q153 603 159 616T176 641T200 658T229 665Q249 665 264 653T280 616Q280 601 274 588T258 564T234 547T205 540H204ZM394 540Q374 540 359 552T344 588Q344 603 350 616T366 641T390 658T419 665Q439 665 455 653T471 616Q471 601 465 588T448 564T424 547T395 540H394Z"  />
<glyph unicode="&#xA9;" horiz-adv-x="786" d="M767 348Q767 272 740 207T666 93T554 16T413 -12Q337 -12 272 16T160 92T85 207T58 349Q58 425 85 491T159 607T272 684T413 712Q489 712 553 684T665 607T740 492T767 349V348ZM132 348Q132 286 153 231T213 134T302 68T413 44Q473 44 524 68T612 133T671 230T693 349Q693 412 672 468T613 565T524 631T413 656Q353 656 302 632T213 566T154 468T132 349V348ZM571 194Q569 185 562 181T542 172Q528 167 498 160T433 153Q384 153 344 166T275 204T230 269T214 361Q214 393 226 428T265 494T335 543T441 563Q480 563 503 557T547 543Q569 536 569 521V449H547Q543 465 536 480T516 508T485 528T441 536Q382 536 350 490T317 366Q316 326 323 292T345 232T385 193T442 179Q487 179 517 204T564 269H586L571 194Z"  />
<glyph unicode="&#xAA;" horiz-adv-x="400" d="M323 500Q308 476 288 452T246 408T201 376T156 363Q136 363 119 379T102 427Q102 462 121 498T170 564T236 613T305 632Q324 632 334 628T354 620Q360 622 362 625T367 631Q370 634 375 636T392 638H422Q434 638 441 637T448 627Q448 622 444 608T433 574T419 533T405 492T395 457T390 437Q390 432 394 432Q400 432 410 443T427 463Q432 468 437 473T447 479Q458 479 458 469Q458 458 446 440T413 405T369 376T322 363Q304 363 300 374T295 395Q295 412 304 441T325 500H323ZM352 587Q352 595 346 600T328 605Q309 605 286 589T244 550T211 500T198 455Q198 448 202 441T216 434Q229 434 252 453T297 497T336 548T352 586V587Z"  />
<glyph unicode="&#xAB;" horiz-adv-x="369" d="M111 89Q97 89 90 92T77 109L40 186Q37 192 34 197T26 208Q24 211 22 213T19 219Q19 224 29 229Q36 233 42 239T53 251L122 329Q133 342 143 345T167 349H238Q249 349 249 342Q249 335 235 335Q221 335 211 327T190 307L129 237Q117 224 105 217Q112 210 116 199L149 131Q155 118 161 111T185 103Q196 103 196 96Q196 89 180 89H111ZM260 89Q246 89 239 92T226 109L189 186Q186 192 183 197T175 208Q173 211 171 213T168 219Q168 224 178 229Q185 233 191 239T202 251L271 329Q282 342 292 345T316 349H387Q399 349 399 342Q399 337 395 336T384 335Q370 335 360 327T339 307L278 237Q269 225 254 217Q261 210 265 199L298 131Q304 118 310 111T334 103Q345 103 345 96Q345 89 329 89H260Z"  />
<glyph unicode="&#xAC;" horiz-adv-x="587" d="M474 309H65V404H569V108H474V309Z"  />
<glyph unicode="&#xAD;" horiz-adv-x="279" d="M266 270Q274 270 278 269T282 262Q282 260 280 253T274 236T267 216T260 196Q256 183 253 181T239 178H31Q15 178 15 186Q15 188 17 195T23 212T30 233T37 253Q42 265 45 267T58 270H266Z"  />
<glyph unicode="&#xAE;" horiz-adv-x="788" d="M767 348Q767 272 740 207T666 93T554 16T413 -12Q337 -12 272 16T160 92T85 207T58 349Q58 425 85 491T159 607T272 684T413 712Q489 712 553 684T665 607T740 492T767 349V348ZM132 348Q132 286 153 231T213 134T302 68T413 44Q473 44 524 68T612 133T671 230T693 349Q693 412 672 468T613 565T524 631T413 656Q353 656 302 632T213 566T154 468T132 349V348ZM243 550H443Q467 550 487 544T524 526T549 496T558 451Q558 416 537 387T478 346L537 261Q554 237 572 215T605 176V163H522Q510 163 498 178T473 219T444 274T410 334H374V226Q374 213 375 205T380 193T393 186T419 183L420 163H243V183Q260 184 269 186T282 192T288 205T289 226V489Q289 502 288 510T283 522T269 529T243 532V550ZM374 357H407Q425 357 437 364T458 385T469 414T473 447Q473 492 454 509T409 527H374V357Z"  />
<glyph unicode="&#xAF;" horiz-adv-x="432" d="M456 623Q470 623 475 622T480 616Q480 614 478 608T472 593T466 578T459 565Q453 554 448 552T428 549H193Q179 549 174 550T169 557Q169 562 177 579T190 608Q196 619 201 621T221 623H456Z"  />
<glyph unicode="&#xB0;" horiz-adv-x="400" d="M257 639Q288 639 315 627T363 595T395 546T407 487Q407 455 395 427T363 378T315 345T256 333Q224 333 197 345T149 378T116 427T104 487Q104 518 116 546T148 594T196 627T256 639H257ZM255 591Q234 591 216 583T184 560T164 527T156 487Q156 443 184 412T256 381Q277 381 295 389T327 412T347 446T355 487Q355 508 348 527T327 560T296 582T256 591H255Z"  />
<glyph unicode="&#xB1;" horiz-adv-x="587" d="M269 538H365V372H569V277H365V114H269V277H65V372H269V538ZM65 51H569V-44H65V51Z"  />
<glyph unicode="&#xB2;" horiz-adv-x="382" d="M146 327Q154 328 162 328T191 329Q198 329 209 329T231 329T254 328T271 328Q302 328 317 336T344 361Q356 379 367 379Q375 379 378 375T382 365Q382 362 378 350T369 323T358 294T351 274Q346 260 341 257T321 253Q300 253 263 254T188 255Q159 255 127 254T72 253Q59 253 48 255T36 268Q36 279 49 291T97 329Q129 353 158 375T215 419Q253 451 277 482T301 547Q301 568 287 584T247 600Q223 600 205 590T173 565Q158 548 151 540T135 531Q129 531 126 535T123 544Q123 553 132 569T162 600T214 627T287 638Q345 638 381 612T418 541Q418 512 403 490T365 450T316 420T268 395Q241 382 223 373T191 357T167 343T144 328L146 327Z"  />
<glyph unicode="&#xB3;" horiz-adv-x="382" d="M257 466Q265 467 273 467T292 467Q313 466 331 460T364 441T386 413T394 376Q394 337 371 305T313 249T234 212T148 199Q130 199 111 202T77 211T51 228T40 252Q40 268 51 278T79 288Q99 288 109 279T128 255Q145 228 166 228Q186 228 206 239T243 269T269 313T279 365Q279 397 260 416T209 435Q182 435 162 427T136 419Q124 419 124 433Q124 446 143 453T204 475Q242 489 263 514T285 566Q285 583 275 591T250 600Q235 600 221 594T196 579Q186 571 176 563T158 555Q146 555 146 568Q146 575 156 587T185 610T232 630T295 638Q343 638 372 621T402 573Q402 551 388 535T351 506T304 484T258 468L257 466Z"  />
<glyph unicode="&#xB4;" horiz-adv-x="416" d="M226 515Q216 515 216 524Q216 532 225 540T245 556L367 647Q379 656 395 665T430 674Q446 674 459 665T472 637Q472 615 458 604T425 586L271 529Q259 524 247 520T227 515H226Z"  />
<glyph unicode="&#xB5;" horiz-adv-x="680" d="M415 193Q380 143 341 104T263 39T190 0T132 -14Q123 -37 123 -66T121 -118Q119 -162 97 -189T34 -216Q1 -216 -11 -200T-24 -166Q-24 -148 -16 -127T3 -84T26 -37T46 13Q52 31 61 57T79 107Q98 160 115 212T147 308Q150 316 154 329T159 350Q159 356 157 360T148 365Q142 365 134 359T118 346T103 330T92 317Q76 298 69 291T54 284Q41 284 41 300Q41 312 58 338T105 391T175 438T263 458Q269 458 279 456T298 449T313 434T320 410Q320 401 317 384T305 346Q291 302 277 259T248 170Q244 161 239 143T234 114Q234 103 239 99T252 94Q261 94 275 102T305 124T337 156T367 196Q407 255 432 311T473 415Q481 438 487 443T512 450Q521 450 534 450T562 450T589 450T609 450Q617 450 623 449T630 439Q630 432 623 413Q606 357 589 302T554 189Q546 163 542 146T538 117Q538 109 540 104T551 99Q558 99 567 106T586 125T604 147T618 166Q629 179 633 184T646 189Q661 189 661 174Q661 159 641 128T588 65T511 10T423 -14Q377 -14 377 32Q377 57 389 99T418 192L415 193Z"  />
<glyph unicode="&#xB6;" horiz-adv-x="601" d="M223 212Q158 216 126 253T94 350Q94 405 117 454T178 540T267 598T373 619H633Q648 619 658 616T669 597Q669 582 654 579T624 575Q605 575 594 572T575 558T561 530T547 481L365 -176H270L474 563H415L212 -176H116L223 212Z"  />
<glyph unicode="&#xB7;" horiz-adv-x="297" d="M249 264Q249 247 242 232T223 203T194 183T157 175Q120 175 104 196T88 244Q88 259 94 274T112 302T140 323T177 332Q209 332 229 313T249 265V264Z"  />
<glyph unicode="&#xB8;" horiz-adv-x="412" d="M139 -57Q144 -56 150 -56T161 -55Q196 -55 219 -72T242 -120Q242 -158 207 -185T112 -212Q92 -212 74 -209T42 -199T19 -183T10 -163Q8 -153 15 -145T34 -136Q47 -136 54 -143T69 -159T86 -175T111 -182Q137 -182 153 -167T169 -128Q169 -108 156 -100T127 -91Q116 -91 104 -93T83 -96Q73 -96 73 -89Q73 -85 77 -78T84 -67L126 0H174L139 -57Z"  />
<glyph unicode="&#xB9;" horiz-adv-x="382" d="M279 300Q279 289 290 287T311 284Q324 284 336 282T349 269Q349 257 339 255T324 253Q295 253 266 254T204 255Q178 255 153 254T104 253Q93 253 86 256T78 267Q78 279 92 281T117 284Q132 284 140 285T154 292T163 305T172 328Q188 379 204 429T235 531Q240 544 240 551Q240 553 239 556T231 560Q226 560 216 557T195 551T173 545T159 542Q141 542 141 556Q141 567 154 571T185 581Q230 590 268 602T338 627Q346 630 353 632T368 635Q378 635 378 626Q378 623 376 616T372 603Q351 534 330 466T286 327Q284 322 282 314T279 301V300Z"  />
<glyph unicode="&#xBA;" horiz-adv-x="400" d="M436 523Q436 491 422 463T383 413T328 378T263 365Q234 365 211 374T172 400T148 438T139 483Q139 513 152 540T189 590T243 625T309 638Q336 638 359 630T399 606T426 569T436 524V523ZM224 441Q224 434 225 426T231 411T242 399T260 394Q279 394 295 412T324 458T343 514T350 564Q350 581 343 595T316 609Q296 609 280 591T251 546T231 492T224 442V441Z"  />
<glyph unicode="&#xBB;" horiz-adv-x="369" d="M124 349Q137 349 144 346T158 329L195 252Q199 240 208 230Q210 227 213 225T216 219Q216 214 206 209Q198 205 192 199T181 187L112 109Q101 95 91 92T68 89H-4Q-15 89 -15 96Q-15 100 -11 101T0 103Q14 103 23 110T44 131L105 200Q111 207 116 212T129 221Q126 223 124 228T118 238L86 307Q79 320 73 327T50 335Q38 335 38 342Q38 349 54 349H124ZM272 349Q285 349 292 346T306 329L343 252Q347 240 356 230Q358 227 361 225T364 219Q364 214 354 209Q346 205 340 199T329 187L260 109Q249 95 239 92T215 89H144Q133 89 133 96Q133 100 137 101T148 103Q162 103 171 110T192 131L253 200Q259 207 264 212T277 221Q274 223 272 228T266 238L234 307Q227 320 221 327T198 335Q186 335 186 342Q186 349 202 349H272Z"  />
<glyph unicode="&#xBC;" horiz-adv-x="941" d="M370 635Q379 635 379 626Q379 623 377 616T373 603Q352 534 331 466T287 327Q285 322 283 314T281 301Q281 290 291 287T313 284Q325 284 337 282T350 269Q350 257 340 255T325 253Q296 253 267 254T206 255Q180 255 155 254T105 253Q94 253 87 256T79 267Q79 279 93 281T118 284Q133 284 141 285T155 292T164 305T173 328Q189 379 205 429T237 531Q239 537 240 542T241 551Q241 553 240 556T232 560Q227 560 217 557T196 551T174 545T160 542Q142 542 142 556Q142 567 155 571T186 581Q231 590 269 601T339 627Q346 629 354 632T369 635H370ZM242 -14Q232 -14 229 -14T225 -8Q225 -4 231 3T249 23L738 614Q754 632 760 635T777 638H810Q819 638 823 638T827 632Q827 628 822 621T808 605L315 9Q308 0 304 -4T295 -11T287 -13T276 -14H242ZM863 118Q855 118 852 117T846 107Q844 101 841 92T836 74T831 56T829 43Q829 33 837 30T863 26Q880 25 885 23T891 12Q891 -2 869 -2Q852 -2 823 -1T763 0Q734 0 706 -1T649 -2Q642 -2 636 -1T630 8Q630 19 641 23T667 28Q692 30 702 36T718 61Q722 74 728 91T734 113Q733 118 722 118H573Q561 119 557 120T553 126Q553 134 556 143Q560 152 564 157T575 167Q645 226 714 284T853 400Q864 410 868 412T883 414H928Q940 414 940 410Q940 405 921 392Q833 329 755 269T613 158H733Q744 158 747 161T753 172L777 249Q780 260 783 263T798 269Q836 282 864 291T898 300Q904 300 904 296Q904 290 900 280Q892 254 884 227T866 172Q865 168 865 166T864 161Q864 158 877 158H923Q936 158 936 153Q936 148 934 142T930 129Q928 122 925 120T913 118H863Z"  />
<glyph unicode="&#xBD;" horiz-adv-x="941" d="M379 625Q379 623 377 616T373 603Q352 534 331 466T287 327Q285 322 283 314T281 301Q281 290 291 287T313 284Q325 284 337 282T350 269Q350 257 340 255T325 253Q296 253 267 254T206 255Q180 255 155 254T105 253Q94 253 87 256T79 267Q79 279 93 281T118 284Q133 284 141 285T155 292T164 305T173 328Q189 379 205 429T237 531Q239 537 240 542T241 551Q241 553 240 556T232 560Q227 560 217 557T196 551T174 545T160 542Q142 542 142 556Q142 567 155 571T186 581Q231 590 269 601T339 627Q346 629 354 632T369 635Q379 635 379 626V625ZM233 -14Q222 -14 219 -14T216 -8Q216 -4 222 3T240 23L729 614Q745 632 751 635T768 638H801Q810 638 814 638T818 632Q818 628 812 621T798 605L306 9Q299 0 295 -4T286 -11T278 -13T267 -14H233ZM653 71Q661 73 670 73T699 73H779Q810 73 825 81T852 106Q864 124 875 124Q883 124 886 120T890 110Q890 107 886 95T877 67T866 38T859 18Q854 5 849 2T829 -2Q808 -2 771 -1T696 0Q667 0 635 -1T580 -2Q567 -2 556 -1T544 12Q544 23 557 35T605 74Q637 98 666 120T723 164Q761 196 785 227T809 292Q809 313 795 329T755 345Q731 345 713 335T681 310Q666 293 659 284T643 275Q637 275 634 279T631 289Q631 298 641 314T671 345T722 372T795 383Q853 383 889 357T926 286Q926 257 911 235T873 195T824 164T776 139Q749 126 731 117T699 101T675 87T652 72L653 71Z"  />
<glyph unicode="&#xBE;" horiz-adv-x="941" d="M259 466Q266 467 275 467T293 467Q314 466 332 460T365 441T387 413T396 376Q396 337 373 305T314 249T235 212T149 199Q131 199 112 202T78 211T52 228T41 252Q41 268 52 278T81 288Q100 288 110 279T129 255Q147 228 167 228Q187 228 207 239T244 269T270 313T280 365Q280 397 261 416T210 435Q184 435 164 427T137 419Q125 419 125 433Q125 446 144 453T205 475Q243 489 265 514T287 566Q287 583 276 591T250 600Q234 600 221 594T197 579Q186 571 177 563T159 555Q147 555 147 568Q147 575 157 587T186 610T234 630T297 638Q345 638 374 621T403 573Q403 551 389 535T352 506T305 484T259 468V466ZM247 -14Q236 -14 233 -14T230 -8Q230 -4 236 3T254 23L743 614Q759 632 765 635T782 638H814Q824 638 827 638T831 632Q831 628 826 621T812 605L319 9Q305 -8 299 -11T281 -14H247ZM863 118Q855 118 852 117T846 107Q844 101 841 92T836 74T831 56T829 43Q829 33 837 30T863 26Q880 25 885 23T891 12Q891 -2 869 -2Q852 -2 823 -1T763 0Q734 0 706 -1T649 -2Q642 -2 636 -1T630 8Q630 19 641 23T667 28Q692 30 702 36T718 61Q722 74 728 91T734 113Q733 118 722 118H573Q561 119 557 120T553 126Q553 134 556 143Q560 152 564 157T575 167Q645 226 714 284T853 400Q864 410 868 412T883 414H928Q940 414 940 410Q940 405 921 392Q833 329 755 269T613 158H733Q744 158 747 161T753 172L777 249Q780 260 783 263T798 269Q836 282 864 291T898 300Q904 300 904 296Q904 290 900 280Q892 254 884 227T866 172Q865 168 865 166T864 161Q864 158 877 158H923Q936 158 936 153Q936 148 934 142T930 129Q928 122 925 120T913 118H863Z"  />
<glyph unicode="&#xBF;" horiz-adv-x="441" d="M258 374Q258 390 264 405T281 431T308 450T344 457Q376 457 395 438T414 393Q414 360 390 335T329 309Q297 309 278 328T258 373V374ZM-32 -31Q-32 13 -14 46T34 103T99 143T170 170Q194 178 210 183T237 195T257 212T273 241Q278 251 283 258T299 265Q308 265 314 261T321 245Q321 240 319 231T316 218Q305 164 292 110Q288 94 285 85T277 70T262 60T236 49Q219 43 192 33T140 6T96 -36T77 -96Q77 -125 95 -141T135 -158Q145 -158 155 -152T175 -135T195 -114T217 -91Q230 -79 245 -71T278 -62Q313 -62 313 -94Q313 -118 303 -143Q299 -155 292 -167T272 -189Q255 -202 228 -207T174 -213Q128 -213 90 -200T25 -162T-17 -104T-32 -32V-31Z"  />
<glyph unicode="&#xC0;" horiz-adv-x="702" d="M224 216Q218 216 215 215T208 209Q195 193 179 170T145 123Q136 110 129 97T122 73Q122 55 136 50T165 42Q179 40 188 36T198 18Q198 2 184 -1T158 -4Q132 -4 107 -2T55 0Q32 0 9 -2T-35 -4Q-56 -4 -60 4T-65 17Q-65 30 -54 34T-27 44Q1 51 24 75T78 137Q169 249 259 362T446 597Q462 617 481 624T539 631Q566 631 574 624T582 604Q582 584 582 547T582 464T581 368T580 270T579 185T579 124Q579 102 580 88T584 64T595 51T615 44Q635 40 645 37T655 20Q655 11 651 6T640 -1T627 -3T614 -4Q595 -4 557 -2T481 0Q429 0 400 -2T352 -4Q347 -4 341 -4T329 -1T319 5T315 17Q315 34 329 37T364 42Q377 43 386 45T402 55T411 75T415 109Q416 135 416 162T415 216H224ZM419 478L417 479Q375 425 334 374T251 268H417L419 478ZM310 806Q310 821 322 830T351 840Q368 840 382 831T410 807L508 711Q531 690 531 681Q531 672 520 672Q515 672 506 676T487 685L347 757Q332 765 321 775T310 805V806Z"  />
<glyph unicode="&#xC1;" horiz-adv-x="702" d="M224 216Q218 216 215 215T208 209Q195 193 179 170T145 123Q136 110 129 97T122 73Q122 55 136 50T165 42Q179 40 188 36T198 18Q198 2 184 -1T158 -4Q132 -4 107 -2T55 0Q32 0 9 -2T-35 -4Q-56 -4 -60 4T-65 17Q-65 30 -54 34T-27 44Q1 51 24 75T78 137Q169 249 259 362T446 597Q462 617 481 624T539 631Q566 631 574 624T582 604Q582 584 582 547T582 464T581 368T580 270T579 185T579 124Q579 102 580 88T584 64T595 51T615 44Q635 40 645 37T655 20Q655 11 651 6T640 -1T627 -3T614 -4Q595 -4 557 -2T481 0Q429 0 400 -2T352 -4Q347 -4 341 -4T329 -1T319 5T315 17Q315 34 329 37T364 42Q377 43 386 45T402 55T411 75T415 109Q416 135 416 162T415 216H224ZM419 478L417 479Q375 425 334 374T251 268H417L419 478ZM397 672Q387 672 387 681Q387 689 396 697T416 713L538 804Q550 813 566 822T601 831Q617 831 630 822T643 794Q643 772 629 761T596 743L442 686Q430 681 418 677T398 672H397Z"  />
<glyph unicode="&#xC2;" horiz-adv-x="702" d="M224 216Q218 216 215 215T208 209Q195 193 179 170T145 123Q136 110 129 97T122 73Q122 55 136 50T165 42Q179 40 188 36T198 18Q198 2 184 -1T158 -4Q132 -4 107 -2T55 0Q32 0 9 -2T-35 -4Q-56 -4 -60 4T-65 17Q-65 30 -54 34T-27 44Q1 51 24 75T78 137Q169 249 259 362T446 597Q462 617 481 624T539 631Q566 631 574 624T582 604Q582 584 582 547T582 464T581 368T580 270T579 185T579 124Q579 102 580 88T584 64T595 51T615 44Q635 40 645 37T655 20Q655 11 651 6T640 -1T627 -3T614 -4Q595 -4 557 -2T481 0Q429 0 400 -2T352 -4Q347 -4 341 -4T329 -1T319 5T315 17Q315 34 329 37T364 42Q377 43 386 45T402 55T411 75T415 109Q416 135 416 162T415 216H224ZM419 478L417 479Q375 425 334 374T251 268H417L419 478ZM341 688Q331 681 322 677T307 672Q295 672 295 681Q295 687 303 695T321 714L423 813Q442 831 451 838T471 846H526Q537 846 542 842T558 817L611 709Q614 702 617 695T621 681Q621 672 610 672Q603 672 595 679T579 695L492 779L341 688Z"  />
<glyph unicode="&#xC3;" horiz-adv-x="702" d="M224 216Q218 216 215 215T208 209Q195 193 179 170T145 123Q136 110 129 97T122 73Q122 55 136 50T165 42Q179 40 188 36T198 18Q198 2 184 -1T158 -4Q132 -4 107 -2T55 0Q32 0 9 -2T-35 -4Q-56 -4 -60 4T-65 17Q-65 30 -54 34T-27 44Q1 51 24 75T78 137Q169 249 259 362T446 597Q462 617 481 624T539 631Q566 631 574 624T582 604Q582 584 582 547T582 464T581 368T580 270T579 185T579 124Q579 102 580 88T584 64T595 51T615 44Q635 40 645 37T655 20Q655 11 651 6T640 -1T627 -3T614 -4Q595 -4 557 -2T481 0Q429 0 400 -2T352 -4Q347 -4 341 -4T329 -1T319 5T315 17Q315 34 329 37T364 42Q377 43 386 45T402 55T411 75T415 109Q416 135 416 162T415 216H224ZM419 478L417 479Q375 425 334 374T251 268H417L419 478ZM531 688Q502 688 480 698T440 720T406 742T370 753Q353 753 342 744T321 725T303 705T286 696Q273 696 273 709Q273 722 282 740T308 774T350 802T408 814Q438 814 460 804T501 782T536 760T571 749Q588 749 599 757T620 777T637 797T654 806Q667 806 667 792Q667 779 658 762T632 728T590 700T532 688H531Z"  />
<glyph unicode="&#xC4;" horiz-adv-x="702" d="M224 216Q218 216 215 215T208 209Q195 193 179 170T145 123Q136 110 129 97T122 73Q122 55 136 50T165 42Q179 40 188 36T198 18Q198 2 184 -1T158 -4Q132 -4 107 -2T55 0Q32 0 9 -2T-35 -4Q-56 -4 -60 4T-65 17Q-65 30 -54 34T-27 44Q1 51 24 75T78 137Q169 249 259 362T446 597Q462 617 481 624T539 631Q566 631 574 624T582 604Q582 584 582 547T582 464T581 368T580 270T579 185T579 124Q579 102 580 88T584 64T595 51T615 44Q635 40 645 37T655 20Q655 11 651 6T640 -1T627 -3T614 -4Q595 -4 557 -2T481 0Q429 0 400 -2T352 -4Q347 -4 341 -4T329 -1T319 5T315 17Q315 34 329 37T364 42Q377 43 386 45T402 55T411 75T415 109Q416 135 416 162T415 216H224ZM419 478L417 479Q375 425 334 374T251 268H417L419 478ZM368 697Q348 697 333 709T317 745Q317 760 323 773T340 798T364 815T393 822Q413 822 428 810T444 773Q444 758 438 745T422 721T398 704T369 697H368ZM558 697Q538 697 523 709T508 745Q508 760 514 773T530 798T554 815T583 822Q603 822 619 810T635 773Q635 758 629 745T612 721T588 704T559 697H558Z"  />
<glyph unicode="&#xC5;" horiz-adv-x="702" d="M224 216Q218 216 215 215T208 209Q195 193 179 170T145 123Q136 110 129 97T122 73Q122 55 136 50T165 42Q179 40 188 36T198 18Q198 2 184 -1T158 -4Q132 -4 107 -2T55 0Q32 0 9 -2T-35 -4Q-56 -4 -60 4T-65 17Q-65 30 -54 34T-27 44Q1 51 24 75T78 137Q169 249 259 362T446 597Q462 617 481 624T539 631Q566 631 574 624T582 604Q582 584 582 547T582 464T581 368T580 270T579 185T579 124Q579 102 580 88T584 64T595 51T615 44Q635 40 645 37T655 20Q655 11 651 6T640 -1T627 -3T614 -4Q595 -4 557 -2T481 0Q429 0 400 -2T352 -4Q347 -4 341 -4T329 -1T319 5T315 17Q315 34 329 37T364 42Q377 43 386 45T402 55T411 75T415 109Q416 135 416 162T415 216H224ZM419 478L417 479Q375 425 334 374T251 268H417L419 478ZM526 658Q504 658 484 666T449 688T426 721T417 764Q417 787 425 806T449 839T484 861T527 869Q550 869 570 861T605 839T629 806T638 764Q638 717 606 688T527 658H526ZM528 705Q553 705 569 721T586 764Q586 789 570 805T527 822Q502 822 486 806T469 764Q469 738 485 722T527 705H528Z"  />
<glyph unicode="&#xC6;" horiz-adv-x="939" d="M275 284Q266 284 262 282T252 272L151 150Q145 143 137 133T122 111T109 89T103 69Q103 53 117 48T148 41Q157 40 167 36T177 20Q177 11 172 6T161 -1T147 -3T134 -4Q120 -4 93 -2T46 0Q13 0 -11 -2T-47 -4Q-50 -4 -56 -4T-67 -2T-77 3T-82 14Q-82 27 -73 31T-47 41Q-34 43 -22 51T1 69T21 90T36 109L392 529Q404 543 410 551T417 568Q417 574 410 577T395 582Q385 583 376 587T367 603Q367 617 382 620T429 624Q456 624 488 624T553 622T619 621T682 620Q765 620 831 622T933 624Q948 624 957 622T966 608Q966 603 963 589T954 558T944 524T935 495Q930 477 923 463T901 448Q888 448 884 455T877 478Q875 501 871 522T853 554Q838 566 816 568T765 571Q736 571 725 570T706 565Q699 561 696 550T689 528L632 338Q645 338 657 338T680 339Q697 340 709 342T732 349T752 365T770 392Q783 417 789 426T809 435Q816 435 823 430T831 412Q831 406 828 395T821 372T813 348T808 333Q805 324 800 309T791 277T783 245T777 222Q776 218 774 212T769 200T760 190T746 186Q733 186 729 193T723 208Q722 217 722 228T723 251Q723 264 719 271T708 281T691 286T667 287Q656 288 644 288T617 288L572 131Q567 112 563 97T558 72Q558 55 576 52T636 49Q674 49 705 54T759 72Q784 87 801 112T833 163Q839 174 844 180T863 186Q877 186 882 178T887 162Q887 158 885 151T881 134Q874 108 867 83T854 32Q849 10 839 3T808 -4Q767 -4 695 -2T519 0Q458 0 409 -2T315 -4Q301 -4 287 -1T273 16Q273 33 288 37T329 43Q344 44 353 48T369 61T381 85T394 125L442 284H275ZM457 335L514 530Q517 539 519 546T521 557Q521 562 518 563T510 565Q501 565 492 557T465 529Q424 481 384 433T301 335H457Z"  />
<glyph unicode="&#xC7;" horiz-adv-x="647" d="M300 -57Q305 -56 311 -56T322 -55Q357 -55 380 -72T403 -120Q403 -158 368 -185T273 -212Q253 -212 235 -209T202 -199T179 -183T170 -163Q169 -153 176 -145T194 -136Q207 -136 215 -143T230 -159T247 -175T272 -182Q298 -182 314 -167T330 -128Q330 -108 317 -100T287 -91Q276 -91 264 -93T244 -96Q234 -96 234 -89Q234 -85 238 -78T245 -67L280 -10Q240 -5 204 7T136 43Q94 75 70 121T46 228Q46 269 61 311T102 393T164 467T244 529Q286 555 334 575T430 608T527 629T620 636Q633 636 647 635T673 631T692 622T700 607Q700 602 698 594T694 576Q687 553 680 529T668 490Q663 472 656 460T632 447Q619 447 612 453T602 468T598 484T597 498Q597 502 597 510T599 527T600 544T601 557Q601 570 596 577T570 585Q516 585 457 557T348 480Q298 430 266 365T234 223Q234 199 241 167T264 107T306 58T373 38Q398 38 417 46T453 67T482 100T508 142Q514 153 520 164T532 185T547 201T566 207Q572 207 582 203T592 185Q592 180 590 169T585 145Q580 130 576 113T567 79T558 49T551 29Q545 19 524 12T474 0T414 -9T357 -13Q338 -14 327 -13L300 -57Z"  />
<glyph unicode="&#xC8;" horiz-adv-x="631" d="M263 132Q258 113 254 98T250 72Q250 55 268 52T332 49Q371 49 406 54T463 72Q488 87 505 113T537 163Q546 176 551 181T568 186Q582 186 587 178T592 162Q592 158 590 151T586 134Q579 108 572 83T559 32Q554 10 544 3T513 -4Q472 -4 399 -2T222 0Q166 0 130 0T69 -2T31 -3T5 -4Q-8 -4 -22 -1T-36 17Q-36 34 -22 37T15 43Q31 44 41 48T59 61T72 86T85 125Q113 219 140 312T195 500Q198 511 202 524T206 546Q206 575 167 576Q147 578 134 580T121 600Q121 617 136 620T165 624Q181 624 201 623T248 622T308 621T388 620Q471 620 537 622T639 624Q655 624 664 622T673 609Q673 605 670 591T661 560T650 525T641 496Q636 479 629 464T607 449Q594 449 590 456T583 479Q581 502 577 523T559 555Q544 568 520 570T456 572Q428 572 417 571T398 567Q391 563 388 552T381 529L327 349Q344 349 359 349T390 350Q423 351 442 360T480 403Q493 428 499 437T519 446Q526 446 533 441T540 423Q540 417 537 406T530 383T523 359T518 344Q515 335 510 320T501 288T493 256T487 232Q485 224 479 211T456 197Q443 197 439 204T433 219Q432 228 432 239T433 262Q433 288 418 292T377 298H312L263 132ZM263 806Q263 821 275 830T304 840Q321 840 335 831T363 807L461 711Q484 690 484 681Q484 672 473 672Q468 672 459 676T440 685L300 757Q285 765 274 775T263 805V806Z"  />
<glyph unicode="&#xC9;" horiz-adv-x="631" d="M263 132Q258 113 254 98T250 72Q250 55 268 52T332 49Q371 49 406 54T463 72Q488 87 505 113T537 163Q546 176 551 181T568 186Q582 186 587 178T592 162Q592 158 590 151T586 134Q579 108 572 83T559 32Q554 10 544 3T513 -4Q472 -4 399 -2T222 0Q166 0 130 0T69 -2T31 -3T5 -4Q-8 -4 -22 -1T-36 17Q-36 34 -22 37T15 43Q31 44 41 48T59 61T72 86T85 125Q113 219 140 312T195 500Q198 511 202 524T206 546Q206 575 167 576Q147 578 134 580T121 600Q121 617 136 620T165 624Q181 624 201 623T248 622T308 621T388 620Q471 620 537 622T639 624Q655 624 664 622T673 609Q673 605 670 591T661 560T650 525T641 496Q636 479 629 464T607 449Q594 449 590 456T583 479Q581 502 577 523T559 555Q544 568 520 570T456 572Q428 572 417 571T398 567Q391 563 388 552T381 529L327 349Q344 349 359 349T390 350Q423 351 442 360T480 403Q493 428 499 437T519 446Q526 446 533 441T540 423Q540 417 537 406T530 383T523 359T518 344Q515 335 510 320T501 288T493 256T487 232Q485 224 479 211T456 197Q443 197 439 204T433 219Q432 228 432 239T433 262Q433 288 418 292T377 298H312L263 132ZM366 672Q356 672 356 681Q356 689 365 697T385 713L507 804Q519 813 535 822T570 831Q586 831 599 822T612 794Q612 772 598 761T565 743L411 686Q399 681 387 677T367 672H366Z"  />
<glyph unicode="&#xCA;" horiz-adv-x="631" d="M263 132Q258 113 254 98T250 72Q250 55 268 52T332 49Q371 49 406 54T463 72Q488 87 505 113T537 163Q546 176 551 181T568 186Q582 186 587 178T592 162Q592 158 590 151T586 134Q579 108 572 83T559 32Q554 10 544 3T513 -4Q472 -4 399 -2T222 0Q166 0 130 0T69 -2T31 -3T5 -4Q-8 -4 -22 -1T-36 17Q-36 34 -22 37T15 43Q31 44 41 48T59 61T72 86T85 125Q113 219 140 312T195 500Q198 511 202 524T206 546Q206 575 167 576Q147 578 134 580T121 600Q121 617 136 620T165 624Q181 624 201 623T248 622T308 621T388 620Q471 620 537 622T639 624Q655 624 664 622T673 609Q673 605 670 591T661 560T650 525T641 496Q636 479 629 464T607 449Q594 449 590 456T583 479Q581 502 577 523T559 555Q544 568 520 570T456 572Q428 572 417 571T398 567Q391 563 388 552T381 529L327 349Q344 349 359 349T390 350Q423 351 442 360T480 403Q493 428 499 437T519 446Q526 446 533 441T540 423Q540 417 537 406T530 383T523 359T518 344Q515 335 510 320T501 288T493 256T487 232Q485 224 479 211T456 197Q443 197 439 204T433 219Q432 228 432 239T433 262Q433 288 418 292T377 298H312L263 132ZM301 688Q291 681 282 677T267 672Q255 672 255 681Q255 687 263 695T281 714L383 813Q402 831 411 838T431 846H486Q497 846 502 842T518 817L571 709Q574 702 577 695T581 681Q581 672 570 672Q563 672 555 679T539 695L452 779L301 688Z"  />
<glyph unicode="&#xCB;" horiz-adv-x="631" d="M263 132Q258 113 254 98T250 72Q250 55 268 52T332 49Q371 49 406 54T463 72Q488 87 505 113T537 163Q546 176 551 181T568 186Q582 186 587 178T592 162Q592 158 590 151T586 134Q579 108 572 83T559 32Q554 10 544 3T513 -4Q472 -4 399 -2T222 0Q166 0 130 0T69 -2T31 -3T5 -4Q-8 -4 -22 -1T-36 17Q-36 34 -22 37T15 43Q31 44 41 48T59 61T72 86T85 125Q113 219 140 312T195 500Q198 511 202 524T206 546Q206 575 167 576Q147 578 134 580T121 600Q121 617 136 620T165 624Q181 624 201 623T248 622T308 621T388 620Q471 620 537 622T639 624Q655 624 664 622T673 609Q673 605 670 591T661 560T650 525T641 496Q636 479 629 464T607 449Q594 449 590 456T583 479Q581 502 577 523T559 555Q544 568 520 570T456 572Q428 572 417 571T398 567Q391 563 388 552T381 529L327 349Q344 349 359 349T390 350Q423 351 442 360T480 403Q493 428 499 437T519 446Q526 446 533 441T540 423Q540 417 537 406T530 383T523 359T518 344Q515 335 510 320T501 288T493 256T487 232Q485 224 479 211T456 197Q443 197 439 204T433 219Q432 228 432 239T433 262Q433 288 418 292T377 298H312L263 132ZM325 697Q305 697 290 709T274 745Q274 760 280 773T297 798T321 815T350 822Q370 822 385 810T401 773Q401 758 395 745T379 721T355 704T326 697H325ZM515 697Q495 697 480 709T465 745Q465 760 471 773T487 798T511 815T540 822Q560 822 576 810T592 773Q592 758 586 745T569 721T545 704T516 697H515Z"  />
<glyph unicode="&#xCC;" horiz-adv-x="394" d="M251 75Q251 55 265 50T297 43Q307 43 319 40T331 22Q331 12 326 7T313 0T297 -3T282 -4Q261 -4 225 -2T131 0Q93 0 59 -2T0 -4Q-17 -4 -28 1T-39 18Q-39 36 -24 40T20 46Q35 47 45 52T62 66T74 92T87 132L197 505Q202 520 204 531T207 551Q207 568 193 572T158 576Q155 576 149 576T138 578T128 585T124 598Q124 608 130 613T144 620T162 622T176 623Q201 623 231 621T308 619Q360 619 393 621T456 623Q459 623 464 623T476 620T486 614T490 602Q490 585 476 581T438 575Q421 574 411 570T394 558T382 535T371 500L265 139Q262 128 257 108T251 76V75ZM141 806Q141 821 153 830T182 840Q199 840 213 831T241 807L339 711Q362 690 362 681Q362 672 351 672Q346 672 337 676T318 685L178 757Q163 765 152 775T141 805V806Z"  />
<glyph unicode="&#xCD;" horiz-adv-x="394" d="M251 75Q251 55 265 50T297 43Q307 43 319 40T331 22Q331 12 326 7T313 0T297 -3T282 -4Q261 -4 225 -2T131 0Q93 0 59 -2T0 -4Q-17 -4 -28 1T-39 18Q-39 36 -24 40T20 46Q35 47 45 52T62 66T74 92T87 132L197 505Q202 520 204 531T207 551Q207 568 193 572T158 576Q155 576 149 576T138 578T128 585T124 598Q124 608 130 613T144 620T162 622T176 623Q201 623 231 621T308 619Q360 619 393 621T456 623Q459 623 464 623T476 620T486 614T490 602Q490 585 476 581T438 575Q421 574 411 570T394 558T382 535T371 500L265 139Q262 128 257 108T251 76V75ZM235 672Q225 672 225 681Q225 689 234 697T254 713L376 804Q388 813 404 822T439 831Q455 831 468 822T481 794Q481 772 467 761T434 743L280 686Q268 681 256 677T236 672H235Z"  />
<glyph unicode="&#xCE;" horiz-adv-x="394" d="M251 75Q251 55 265 50T297 43Q307 43 319 40T331 22Q331 12 326 7T313 0T297 -3T282 -4Q261 -4 225 -2T131 0Q93 0 59 -2T0 -4Q-17 -4 -28 1T-39 18Q-39 36 -24 40T20 46Q35 47 45 52T62 66T74 92T87 132L197 505Q202 520 204 531T207 551Q207 568 193 572T158 576Q155 576 149 576T138 578T128 585T124 598Q124 608 130 613T144 620T162 622T176 623Q201 623 231 621T308 619Q360 619 393 621T456 623Q459 623 464 623T476 620T486 614T490 602Q490 585 476 581T438 575Q421 574 411 570T394 558T382 535T371 500L265 139Q262 128 257 108T251 76V75ZM175 688Q165 681 156 677T141 672Q129 672 129 681Q129 687 137 695T155 714L257 813Q276 831 285 838T305 846H360Q371 846 376 842T392 817L445 709Q448 702 451 695T455 681Q455 672 444 672Q437 672 429 679T413 695L326 779L175 688Z"  />
<glyph unicode="&#xCF;" horiz-adv-x="394" d="M251 75Q251 55 265 50T297 43Q307 43 319 40T331 22Q331 12 326 7T313 0T297 -3T282 -4Q261 -4 225 -2T131 0Q93 0 59 -2T0 -4Q-17 -4 -28 1T-39 18Q-39 36 -24 40T20 46Q35 47 45 52T62 66T74 92T87 132L197 505Q202 520 204 531T207 551Q207 568 193 572T158 576Q155 576 149 576T138 578T128 585T124 598Q124 608 130 613T144 620T162 622T176 623Q201 623 231 621T308 619Q360 619 393 621T456 623Q459 623 464 623T476 620T486 614T490 602Q490 585 476 581T438 575Q421 574 411 570T394 558T382 535T371 500L265 139Q262 128 257 108T251 76V75ZM206 697Q186 697 171 709T155 745Q155 760 161 773T178 798T202 815T231 822Q251 822 266 810T282 773Q282 758 276 745T260 721T236 704T207 697H206ZM396 697Q376 697 361 709T346 745Q346 760 352 773T368 798T392 815T421 822Q441 822 457 810T473 773Q473 758 467 745T450 721T426 704T397 697H396Z"  />
<glyph unicode="&#xD0;" horiz-adv-x="769" d="M195 495Q200 513 203 526T207 547Q207 558 202 563T191 571T177 574T164 575Q159 575 152 575T138 578T127 584T122 597Q122 607 127 612T141 619T159 622T175 623Q220 623 264 621T352 619Q393 619 433 621T515 623Q574 623 619 609T697 567Q736 535 756 490T776 394Q776 316 743 242T651 112Q590 55 512 26T340 -4Q301 -4 250 -2T123 0Q77 0 48 -2T2 -4Q-4 -4 -11 -4T-25 -1T-36 5T-41 17Q-41 34 -27 38T17 44Q33 45 43 50T61 64T73 86T83 117L137 299H48Q30 299 30 307Q30 312 33 322T39 340Q42 350 47 352T64 354H153L195 495ZM266 140Q261 123 255 102T248 70Q248 52 265 48T301 44Q362 44 416 73T513 162Q532 189 548 221T575 288T592 359T599 428Q599 459 591 485T566 531T524 562T463 573Q440 573 422 572T398 565Q392 560 388 550T380 527L329 354H455Q472 354 472 346Q472 341 469 331T463 313Q460 303 455 301T438 299H313L266 140Z"  />
<glyph unicode="&#xD1;" horiz-adv-x="734" d="M574 211Q596 283 617 355T658 501Q662 512 665 524T668 550Q668 568 654 572T622 577Q611 578 601 581T591 598Q591 607 596 612T609 620T625 622T640 623Q651 623 670 621T715 619Q741 619 765 621T801 623Q804 623 809 623T820 620T829 614T833 601Q833 585 820 581T782 574Q769 573 761 569T745 555T732 530T719 492Q684 371 649 252T578 12Q574 -1 568 -5T533 -10Q515 -10 506 -10T492 -7T484 0T477 13L250 496H248Q226 418 205 340T161 183Q154 160 147 131T140 81Q140 58 154 51T185 43Q200 41 209 36T218 19Q218 10 214 6T204 -1T192 -3T181 -4Q177 -4 167 -4T144 -2T117 -1T88 0Q64 0 44 -2T12 -4Q7 -4 0 -4T-14 -1T-25 5T-30 18Q-30 30 -22 34T1 41Q16 43 28 46T49 59Q60 73 68 93T83 137Q111 231 138 322T192 508Q196 520 199 532T202 552Q202 569 188 573T161 578Q150 578 138 581T126 602Q126 618 139 620T169 623Q182 623 204 622T261 620Q293 620 320 621T361 623Q378 623 382 614T397 584Q441 490 484 398T572 211H574ZM543 688Q514 688 492 698T452 720T418 742T382 753Q365 753 354 744T333 725T315 705T298 696Q285 696 285 709Q285 722 294 740T320 774T362 802T420 814Q450 814 472 804T513 782T548 760T583 749Q600 749 611 757T632 777T649 797T666 806Q679 806 679 792Q679 779 670 762T644 728T602 700T544 688H543Z"  />
<glyph unicode="&#xD2;" horiz-adv-x="735" d="M736 373Q736 298 705 228T621 105T496 19T342 -14Q221 -14 144 60Q60 138 60 256Q60 338 93 407T181 528T307 607T456 636Q520 636 571 616T659 560T716 477T736 374V373ZM458 586Q430 586 406 572T360 534T320 478T287 409Q274 377 263 342T244 275T232 214T227 165Q227 105 256 71T335 36Q359 36 379 44T417 65T447 94T469 125Q485 152 502 193T534 280T557 371T567 453Q567 513 542 549T459 586H458ZM310 806Q310 821 322 830T351 840Q368 840 382 831T410 807L508 711Q531 690 531 681Q531 672 520 672Q515 672 506 676T487 685L347 757Q332 765 321 775T310 805V806Z"  />
<glyph unicode="&#xD3;" horiz-adv-x="735" d="M736 373Q736 298 705 228T621 105T496 19T342 -14Q221 -14 144 60Q60 138 60 256Q60 338 93 407T181 528T307 607T456 636Q520 636 571 616T659 560T716 477T736 374V373ZM458 586Q430 586 406 572T360 534T320 478T287 409Q274 377 263 342T244 275T232 214T227 165Q227 105 256 71T335 36Q359 36 379 44T417 65T447 94T469 125Q485 152 502 193T534 280T557 371T567 453Q567 513 542 549T459 586H458ZM397 672Q387 672 387 681Q387 689 396 697T416 713L538 804Q550 813 566 822T601 831Q617 831 630 822T643 794Q643 772 629 761T596 743L442 686Q430 681 418 677T398 672H397Z"  />
<glyph unicode="&#xD4;" horiz-adv-x="735" d="M736 373Q736 298 705 228T621 105T496 19T342 -14Q221 -14 144 60Q60 138 60 256Q60 338 93 407T181 528T307 607T456 636Q520 636 571 616T659 560T716 477T736 374V373ZM458 586Q430 586 406 572T360 534T320 478T287 409Q274 377 263 342T244 275T232 214T227 165Q227 105 256 71T335 36Q359 36 379 44T417 65T447 94T469 125Q485 152 502 193T534 280T557 371T567 453Q567 513 542 549T459 586H458ZM337 688Q327 681 318 677T303 672Q291 672 291 681Q291 687 299 695T317 714L419 813Q438 831 447 838T467 846H522Q533 846 538 842T554 817L607 709Q610 702 613 695T617 681Q617 672 606 672Q599 672 591 679T575 695L488 779L337 688Z"  />
<glyph unicode="&#xD5;" horiz-adv-x="735" d="M736 373Q736 298 705 228T621 105T496 19T342 -14Q221 -14 144 60Q60 138 60 256Q60 338 93 407T181 528T307 607T456 636Q520 636 571 616T659 560T716 477T736 374V373ZM458 586Q430 586 406 572T360 534T320 478T287 409Q274 377 263 342T244 275T232 214T227 165Q227 105 256 71T335 36Q359 36 379 44T417 65T447 94T469 125Q485 152 502 193T534 280T557 371T567 453Q567 513 542 549T459 586H458ZM531 688Q502 688 480 698T440 720T406 742T370 753Q353 753 342 744T321 725T303 705T286 696Q273 696 273 709Q273 722 282 740T308 774T350 802T408 814Q438 814 460 804T501 782T536 760T571 749Q588 749 599 757T620 777T637 797T654 806Q667 806 667 792Q667 779 658 762T632 728T590 700T532 688H531Z"  />
<glyph unicode="&#xD6;" horiz-adv-x="735" d="M736 373Q736 298 705 228T621 105T496 19T342 -14Q221 -14 144 60Q60 138 60 256Q60 338 93 407T181 528T307 607T456 636Q520 636 571 616T659 560T716 477T736 374V373ZM458 586Q430 586 406 572T360 534T320 478T287 409Q274 377 263 342T244 275T232 214T227 165Q227 105 256 71T335 36Q359 36 379 44T417 65T447 94T469 125Q485 152 502 193T534 280T557 371T567 453Q567 513 542 549T459 586H458ZM368 697Q348 697 333 709T317 745Q317 760 323 773T340 798T364 815T393 822Q413 822 428 810T444 773Q444 758 438 745T422 721T398 704T369 697H368ZM558 697Q538 697 523 709T508 745Q508 760 514 773T530 798T554 815T583 822Q603 822 619 810T635 773Q635 758 629 745T612 721T588 704T559 697H558Z"  />
<glyph unicode="&#xD7;" horiz-adv-x="587" d="M80 425L145 490L317 318L489 490L554 425L382 253L554 81L489 16L317 188L145 16L80 81L251 253L80 425Z"  />
<glyph unicode="&#xD8;" horiz-adv-x="753" d="M60 -48Q54 -48 51 -48T47 -42Q47 -37 52 -32T69 -12L142 69Q109 104 90 150T70 252Q70 335 103 405T191 527T317 607T465 636Q514 636 556 623T631 587L691 654Q701 665 705 667T718 670H756Q761 670 765 670T769 664Q769 659 764 654T746 634L674 554Q709 519 727 472T746 370Q746 295 715 226T631 104T505 18T351 -14Q305 -14 263 -1T185 35L124 -32Q114 -43 110 -45T98 -48H60ZM556 533Q545 560 522 573T467 586Q436 586 409 570T358 527T317 467T285 398T263 330T253 271Q251 245 250 218T253 163L556 533ZM259 89Q270 62 293 49T347 36Q378 36 405 52T456 95T498 155T529 224T551 292T561 351Q564 377 565 404T561 459L259 89Z"  />
<glyph unicode="&#xD9;" horiz-adv-x="704" d="M89 127Q89 141 90 153T95 181T104 215T118 260L190 509Q194 522 196 532T199 551Q199 565 187 570T163 576Q147 578 135 581T122 599Q122 607 131 615T164 623Q187 623 226 621T316 619Q357 619 385 621T433 623Q437 623 443 623T455 620T465 614T469 601Q469 587 459 583T434 575Q417 573 406 569T388 556T376 535T365 503Q344 428 323 355T278 207Q270 180 265 158T259 118Q259 79 290 59T365 38Q415 38 448 56T504 101T540 162T562 228Q582 294 600 358T638 488Q642 502 646 519T650 547Q650 568 638 572T599 579Q590 580 583 585T576 599Q576 614 588 618T611 623Q625 623 647 621T693 619Q718 619 737 621T769 623Q777 623 787 621T798 603Q798 589 787 584T759 576Q746 574 738 571T723 561T713 543T702 511Q681 441 661 372T619 232Q607 191 590 145T540 63Q506 27 454 7T326 -14Q306 -14 280 -12T228 -5T177 11T133 36T101 74T89 126V127ZM303 806Q303 821 315 830T344 840Q361 840 375 831T403 807L501 711Q524 690 524 681Q524 672 513 672Q508 672 499 676T480 685L340 757Q325 765 314 775T303 805V806Z"  />
<glyph unicode="&#xDA;" horiz-adv-x="704" d="M89 127Q89 141 90 153T95 181T104 215T118 260L190 509Q194 522 196 532T199 551Q199 565 187 570T163 576Q147 578 135 581T122 599Q122 607 131 615T164 623Q187 623 226 621T316 619Q357 619 385 621T433 623Q437 623 443 623T455 620T465 614T469 601Q469 587 459 583T434 575Q417 573 406 569T388 556T376 535T365 503Q344 428 323 355T278 207Q270 180 265 158T259 118Q259 79 290 59T365 38Q415 38 448 56T504 101T540 162T562 228Q582 294 600 358T638 488Q642 502 646 519T650 547Q650 568 638 572T599 579Q590 580 583 585T576 599Q576 614 588 618T611 623Q625 623 647 621T693 619Q718 619 737 621T769 623Q777 623 787 621T798 603Q798 589 787 584T759 576Q746 574 738 571T723 561T713 543T702 511Q681 441 661 372T619 232Q607 191 590 145T540 63Q506 27 454 7T326 -14Q306 -14 280 -12T228 -5T177 11T133 36T101 74T89 126V127ZM402 672Q392 672 392 681Q392 689 401 697T421 713L543 804Q555 813 571 822T606 831Q622 831 635 822T648 794Q648 772 634 761T601 743L447 686Q435 681 423 677T403 672H402Z"  />
<glyph unicode="&#xDB;" horiz-adv-x="704" d="M89 127Q89 141 90 153T95 181T104 215T118 260L190 509Q194 522 196 532T199 551Q199 565 187 570T163 576Q147 578 135 581T122 599Q122 607 131 615T164 623Q187 623 226 621T316 619Q357 619 385 621T433 623Q437 623 443 623T455 620T465 614T469 601Q469 587 459 583T434 575Q417 573 406 569T388 556T376 535T365 503Q344 428 323 355T278 207Q270 180 265 158T259 118Q259 79 290 59T365 38Q415 38 448 56T504 101T540 162T562 228Q582 294 600 358T638 488Q642 502 646 519T650 547Q650 568 638 572T599 579Q590 580 583 585T576 599Q576 614 588 618T611 623Q625 623 647 621T693 619Q718 619 737 621T769 623Q777 623 787 621T798 603Q798 589 787 584T759 576Q746 574 738 571T723 561T713 543T702 511Q681 441 661 372T619 232Q607 191 590 145T540 63Q506 27 454 7T326 -14Q306 -14 280 -12T228 -5T177 11T133 36T101 74T89 126V127ZM346 688Q336 681 327 677T312 672Q300 672 300 681Q300 687 308 695T326 714L428 813Q447 831 456 838T476 846H531Q542 846 547 842T563 817L616 709Q619 702 622 695T626 681Q626 672 615 672Q608 672 600 679T584 695L497 779L346 688Z"  />
<glyph unicode="&#xDC;" horiz-adv-x="704" d="M89 127Q89 141 90 153T95 181T104 215T118 260L190 509Q194 522 196 532T199 551Q199 565 187 570T163 576Q147 578 135 581T122 599Q122 607 131 615T164 623Q187 623 226 621T316 619Q357 619 385 621T433 623Q437 623 443 623T455 620T465 614T469 601Q469 587 459 583T434 575Q417 573 406 569T388 556T376 535T365 503Q344 428 323 355T278 207Q270 180 265 158T259 118Q259 79 290 59T365 38Q415 38 448 56T504 101T540 162T562 228Q582 294 600 358T638 488Q642 502 646 519T650 547Q650 568 638 572T599 579Q590 580 583 585T576 599Q576 614 588 618T611 623Q625 623 647 621T693 619Q718 619 737 621T769 623Q777 623 787 621T798 603Q798 589 787 584T759 576Q746 574 738 571T723 561T713 543T702 511Q681 441 661 372T619 232Q607 191 590 145T540 63Q506 27 454 7T326 -14Q306 -14 280 -12T228 -5T177 11T133 36T101 74T89 126V127ZM369 697Q349 697 334 709T318 745Q318 760 324 773T341 798T365 815T394 822Q414 822 429 810T445 773Q445 758 439 745T423 721T399 704T370 697H369ZM559 697Q539 697 524 709T509 745Q509 760 515 773T531 798T555 815T584 822Q604 822 620 810T636 773Q636 758 630 745T613 721T589 704T560 697H559Z"  />
<glyph unicode="&#xDD;" horiz-adv-x="669" d="M366 550Q366 544 369 529T377 503Q390 458 403 415T428 326Q466 370 504 413T580 500Q590 511 602 526T614 556Q614 569 602 572T580 578Q566 581 559 585T551 600Q551 614 561 618T585 623Q600 623 618 621T666 619Q692 619 713 621T753 623Q761 623 774 621T787 602Q787 591 780 586T758 578Q731 574 715 562T679 527Q622 464 566 401T453 274Q442 236 431 197T407 120Q403 106 400 92T397 70Q397 52 409 47T441 40Q448 40 461 37T474 20Q474 3 458 0T419 -4Q388 -4 346 -2T273 0Q243 0 211 -2T160 -4Q143 -4 128 -2T112 17Q112 34 127 37T171 44Q186 45 196 51T212 67T223 89T231 116Q242 154 253 191T275 265L185 517Q174 546 164 560T134 576Q113 579 103 583T92 598Q92 607 97 612T110 620T126 622T142 623Q171 623 200 621T259 619Q306 619 344 621T407 623Q415 623 427 621T440 603Q440 588 427 583T400 576Q390 575 378 571T366 551V550ZM384 672Q374 672 374 681Q374 689 383 697T403 713L525 804Q537 813 553 822T588 831Q604 831 617 822T630 794Q630 772 616 761T583 743L429 686Q417 681 405 677T385 672H384Z"  />
<glyph unicode="&#xDE;" horiz-adv-x="672" d="M688 371Q688 344 679 317T652 266T605 220T540 185Q513 174 488 168T437 158T385 153T328 150Q312 149 297 149T268 149Q263 132 257 111T250 78Q250 56 264 51T296 44Q300 44 307 44T320 41T331 34T336 22Q336 12 331 7T318 0T302 -3T287 -4Q266 -4 230 -2T137 0Q91 0 60 -2T3 -4Q-36 -4 -36 21Q-36 36 -23 40T15 46Q31 47 41 51T59 66T73 92T87 134Q115 228 142 320T196 505Q201 520 204 531T207 551Q207 568 190 572T153 576Q146 575 133 578T120 597Q120 606 125 611T138 619T155 622T172 623Q196 623 226 621T307 619Q359 619 392 621T455 623Q458 623 463 623T475 620T485 614T489 602Q489 585 475 581T434 575Q404 573 393 557T374 508Q402 506 422 507T467 508Q525 508 568 499T640 468Q666 448 677 423T688 372V371ZM291 229Q289 221 287 214T285 203Q285 198 292 198T308 198Q348 200 385 212T451 251Q480 280 495 318T510 386Q510 412 501 427T478 449T447 459T414 461Q394 461 383 461T365 457T356 446T349 427L291 229Z"  />
<glyph unicode="&#xDF;" horiz-adv-x="698" d="M89 388Q74 388 74 396Q74 403 77 413T83 430Q87 439 93 440T110 442H184Q222 557 302 620T503 684Q538 684 574 678T641 655T690 613T709 548Q709 510 695 485T660 443T612 416T562 399T518 386T489 369Q495 361 509 353T541 335T577 311T611 277T637 230T647 167Q647 122 629 88T582 32T517 -2T445 -13Q427 -13 400 -10T346 1T300 20T281 48Q281 53 284 69T291 100Q296 115 304 130T326 145Q341 145 348 134T362 106Q367 93 372 80T386 56T406 38T436 31Q471 31 489 63T508 139Q508 174 498 198T473 240T441 269T409 292T384 315T374 343Q374 366 388 378T424 399T471 416T518 440T554 481T569 550Q569 588 548 611T491 635Q453 635 426 612T378 553T344 475T320 395Q297 310 274 226T224 57Q205 -4 181 -55T119 -145Q95 -169 70 -185T19 -211T-29 -225T-70 -229Q-126 -229 -155 -206T-184 -150Q-184 -122 -166 -105T-118 -87Q-91 -87 -76 -99T-54 -130Q-52 -135 -51 -142T-48 -155Q-47 -164 -45 -172T-33 -180Q-22 -180 -10 -162T13 -120Q29 -86 42 -42T67 40Q93 128 117 214T168 388H89Z"  />
<glyph unicode="&#xE0;" horiz-adv-x="635" d="M14 97Q14 127 23 159T47 221T84 281T128 334Q152 359 180 380T238 417T299 442T360 451Q379 451 392 447T415 439T431 430T444 426Q449 426 453 433T462 448Q466 455 471 458T489 462Q507 463 529 463T570 463Q583 462 590 459T598 445Q598 440 596 431T590 411Q572 354 550 288T509 162Q504 148 501 136T498 117Q498 109 501 107T507 104Q513 104 521 110T538 125T554 143T565 158Q578 173 583 179T597 186Q605 186 609 181T614 170Q614 161 608 148T592 121T569 91T543 64Q528 50 510 37T471 12T429 -6T386 -13Q371 -13 362 -8T349 6T343 24T341 40Q341 68 350 98Q359 130 370 164T396 237H394Q370 197 336 153T263 72T183 11T104 -14Q87 -14 71 -7T42 15T22 49T14 96V97ZM432 370Q432 383 422 392T393 402Q376 402 358 394T321 373T286 343T255 309Q241 292 228 272T204 231T187 189T180 151Q180 138 187 126T208 114Q223 114 241 125T278 152T315 188T347 224Q359 239 374 259T402 299T423 338T432 369V370ZM254 649Q254 664 266 673T295 683Q312 683 326 674T354 650L452 554Q475 533 475 524Q475 515 464 515Q459 515 450 519T431 528L291 600Q276 608 265 618T254 648V649Z"  />
<glyph unicode="&#xE1;" horiz-adv-x="635" d="M14 97Q14 127 23 159T47 221T84 281T128 334Q152 359 180 380T238 417T299 442T360 451Q379 451 392 447T415 439T431 430T444 426Q449 426 453 433T462 448Q466 455 471 458T489 462Q507 463 529 463T570 463Q583 462 590 459T598 445Q598 440 596 431T590 411Q572 354 550 288T509 162Q504 148 501 136T498 117Q498 109 501 107T507 104Q513 104 521 110T538 125T554 143T565 158Q578 173 583 179T597 186Q605 186 609 181T614 170Q614 161 608 148T592 121T569 91T543 64Q528 50 510 37T471 12T429 -6T386 -13Q371 -13 362 -8T349 6T343 24T341 40Q341 68 350 98Q359 130 370 164T396 237H394Q370 197 336 153T263 72T183 11T104 -14Q87 -14 71 -7T42 15T22 49T14 96V97ZM432 370Q432 383 422 392T393 402Q376 402 358 394T321 373T286 343T255 309Q241 292 228 272T204 231T187 189T180 151Q180 138 187 126T208 114Q223 114 241 125T278 152T315 188T347 224Q359 239 374 259T402 299T423 338T432 369V370ZM335 515Q325 515 325 524Q325 532 334 540T354 556L476 647Q488 656 504 665T539 674Q555 674 568 665T581 637Q581 615 567 604T534 586L380 529Q368 524 356 520T336 515H335Z"  />
<glyph unicode="&#xE2;" horiz-adv-x="635" d="M14 97Q14 127 23 159T47 221T84 281T128 334Q152 359 180 380T238 417T299 442T360 451Q379 451 392 447T415 439T431 430T444 426Q449 426 453 433T462 448Q466 455 471 458T489 462Q507 463 529 463T570 463Q583 462 590 459T598 445Q598 440 596 431T590 411Q572 354 550 288T509 162Q504 148 501 136T498 117Q498 109 501 107T507 104Q513 104 521 110T538 125T554 143T565 158Q578 173 583 179T597 186Q605 186 609 181T614 170Q614 161 608 148T592 121T569 91T543 64Q528 50 510 37T471 12T429 -6T386 -13Q371 -13 362 -8T349 6T343 24T341 40Q341 68 350 98Q359 130 370 164T396 237H394Q370 197 336 153T263 72T183 11T104 -14Q87 -14 71 -7T42 15T22 49T14 96V97ZM432 370Q432 383 422 392T393 402Q376 402 358 394T321 373T286 343T255 309Q241 292 228 272T204 231T187 189T180 151Q180 138 187 126T208 114Q223 114 241 125T278 152T315 188T347 224Q359 239 374 259T402 299T423 338T432 369V370ZM285 531Q275 524 266 520T251 515Q239 515 239 524Q239 530 247 538T265 557L367 656Q386 674 395 681T415 689H470Q481 689 486 685T502 660L555 552Q558 545 561 538T565 524Q565 515 554 515Q547 515 539 522T523 538L436 622L285 531Z"  />
<glyph unicode="&#xE3;" horiz-adv-x="635" d="M14 97Q14 127 23 159T47 221T84 281T128 334Q152 359 180 380T238 417T299 442T360 451Q379 451 392 447T415 439T431 430T444 426Q449 426 453 433T462 448Q466 455 471 458T489 462Q507 463 529 463T570 463Q583 462 590 459T598 445Q598 440 596 431T590 411Q572 354 550 288T509 162Q504 148 501 136T498 117Q498 109 501 107T507 104Q513 104 521 110T538 125T554 143T565 158Q578 173 583 179T597 186Q605 186 609 181T614 170Q614 161 608 148T592 121T569 91T543 64Q528 50 510 37T471 12T429 -6T386 -13Q371 -13 362 -8T349 6T343 24T341 40Q341 68 350 98Q359 130 370 164T396 237H394Q370 197 336 153T263 72T183 11T104 -14Q87 -14 71 -7T42 15T22 49T14 96V97ZM432 370Q432 383 422 392T393 402Q376 402 358 394T321 373T286 343T255 309Q241 292 228 272T204 231T187 189T180 151Q180 138 187 126T208 114Q223 114 241 125T278 152T315 188T347 224Q359 239 374 259T402 299T423 338T432 369V370ZM473 531Q444 531 422 541T382 563T348 585T312 596Q295 596 284 587T263 568T245 548T228 539Q215 539 215 552Q215 565 224 583T250 617T292 645T350 657Q380 657 402 647T443 625T478 603T513 592Q530 592 541 600T562 620T579 640T596 649Q609 649 609 635Q609 622 600 605T574 571T532 543T474 531H473Z"  />
<glyph unicode="&#xE4;" horiz-adv-x="635" d="M14 97Q14 127 23 159T47 221T84 281T128 334Q152 359 180 380T238 417T299 442T360 451Q379 451 392 447T415 439T431 430T444 426Q449 426 453 433T462 448Q466 455 471 458T489 462Q507 463 529 463T570 463Q583 462 590 459T598 445Q598 440 596 431T590 411Q572 354 550 288T509 162Q504 148 501 136T498 117Q498 109 501 107T507 104Q513 104 521 110T538 125T554 143T565 158Q578 173 583 179T597 186Q605 186 609 181T614 170Q614 161 608 148T592 121T569 91T543 64Q528 50 510 37T471 12T429 -6T386 -13Q371 -13 362 -8T349 6T343 24T341 40Q341 68 350 98Q359 130 370 164T396 237H394Q370 197 336 153T263 72T183 11T104 -14Q87 -14 71 -7T42 15T22 49T14 96V97ZM432 370Q432 383 422 392T393 402Q376 402 358 394T321 373T286 343T255 309Q241 292 228 272T204 231T187 189T180 151Q180 138 187 126T208 114Q223 114 241 125T278 152T315 188T347 224Q359 239 374 259T402 299T423 338T432 369V370ZM316 540Q296 540 281 552T265 588Q265 603 271 616T288 641T312 658T341 665Q361 665 376 653T392 616Q392 601 386 588T370 564T346 547T317 540H316ZM506 540Q486 540 471 552T456 588Q456 603 462 616T478 641T502 658T531 665Q551 665 567 653T583 616Q583 601 577 588T560 564T536 547T507 540H506Z"  />
<glyph unicode="&#xE5;" horiz-adv-x="635" d="M14 97Q14 127 23 159T47 221T84 281T128 334Q152 359 180 380T238 417T299 442T360 451Q379 451 392 447T415 439T431 430T444 426Q449 426 453 433T462 448Q466 455 471 458T489 462Q507 463 529 463T570 463Q583 462 590 459T598 445Q598 440 596 431T590 411Q572 354 550 288T509 162Q504 148 501 136T498 117Q498 109 501 107T507 104Q513 104 521 110T538 125T554 143T565 158Q578 173 583 179T597 186Q605 186 609 181T614 170Q614 161 608 148T592 121T569 91T543 64Q528 50 510 37T471 12T429 -6T386 -13Q371 -13 362 -8T349 6T343 24T341 40Q341 68 350 98Q359 130 370 164T396 237H394Q370 197 336 153T263 72T183 11T104 -14Q87 -14 71 -7T42 15T22 49T14 96V97ZM432 370Q432 383 422 392T393 402Q376 402 358 394T321 373T286 343T255 309Q241 292 228 272T204 231T187 189T180 151Q180 138 187 126T208 114Q223 114 241 125T278 152T315 188T347 224Q359 239 374 259T402 299T423 338T432 369V370ZM420 513Q398 513 378 521T343 543T320 576T311 619Q311 642 319 661T343 694T378 716T421 724Q444 724 464 716T499 694T523 661T532 619Q532 572 500 543T421 513H420ZM422 560Q447 560 463 576T480 619Q480 644 464 660T421 677Q396 677 380 661T363 619Q363 593 379 577T421 560H422Z"  />
<glyph unicode="&#xE6;" horiz-adv-x="812" d="M356 157Q329 124 299 94T236 39T171 1T107 -14Q90 -14 73 -8T43 12T21 46T13 93Q13 154 43 217T123 333T233 418T357 451Q390 451 411 442T446 424Q452 428 455 434T462 445T471 455T485 460Q496 461 509 461T539 461Q562 461 562 450Q562 446 560 439T556 425Q581 441 609 449T666 458Q679 458 703 455T750 442T790 412T808 359Q808 316 782 289T720 244T642 216T571 200Q554 197 539 194T510 189Q507 174 507 158Q507 117 526 95T576 72Q610 72 639 91T691 132Q708 148 718 157T735 167Q743 167 747 162T751 152Q751 144 743 130T725 102Q709 81 686 61T635 24T575 -3T508 -14Q472 -14 444 -4T396 25T366 68T355 122Q355 131 356 139T358 157H356ZM695 378Q695 395 686 406T659 417Q640 417 619 405T579 368T543 310T516 232Q544 237 575 247T633 275T677 317T695 377V378ZM428 371Q428 382 418 391T390 400Q356 400 318 373T248 306T194 223T173 147Q173 131 181 119T208 107Q226 107 249 122T296 160T344 213T386 272T416 327T428 370V371Z"  />
<glyph unicode="&#xE7;" horiz-adv-x="474" d="M168 -57Q173 -56 179 -56T190 -55Q225 -55 248 -72T271 -120Q271 -158 236 -185T141 -212Q121 -212 103 -209T71 -199T48 -183T39 -163Q37 -153 44 -145T63 -136Q76 -136 83 -143T98 -159T115 -175T140 -182Q166 -182 182 -167T198 -128Q198 -108 185 -100T156 -91Q145 -91 133 -93T112 -96Q102 -96 102 -89Q102 -85 106 -78T113 -67L149 -10Q121 -4 99 11T60 49T34 97T25 153Q25 203 48 256T113 353Q155 397 217 427T357 458Q390 458 414 452T454 435T477 412T485 390Q485 367 467 350T425 333Q410 333 398 338T376 353Q365 362 360 371T348 393Q343 401 338 407T325 414Q309 414 286 389T245 333Q233 314 222 292T203 246T189 198T184 153Q184 115 202 95T249 74Q265 74 282 80T316 95T348 118T375 145Q391 162 401 173T419 184Q427 184 430 179T434 167Q434 155 423 136T398 100Q381 80 360 61T313 26T258 0T195 -13L168 -57Z"  />
<glyph unicode="&#xE8;" horiz-adv-x="477" d="M485 358Q485 327 471 304T432 263T378 235T317 216T257 204T206 195Q200 193 193 192T180 189Q177 172 177 156Q177 114 196 93T251 72Q270 72 289 79T324 96T355 120T380 145Q392 157 399 162T412 167Q420 167 424 162T428 152Q428 144 420 130T401 103Q384 82 362 62T311 24T249 -3T179 -14Q138 -14 109 -1T59 35T30 86T20 144Q20 198 45 254T115 355T217 429T343 458Q356 458 379 455T426 441T467 411T485 359V358ZM334 417Q314 417 293 405T251 368T214 310T187 232Q241 243 285 263T350 313Q362 331 367 348T372 378Q372 396 362 406T335 417H334ZM178 649Q178 664 190 673T219 683Q236 683 250 674T278 650L376 554Q399 533 399 524Q399 515 388 515Q383 515 374 519T355 528L215 600Q200 608 189 618T178 648V649Z"  />
<glyph unicode="&#xE9;" horiz-adv-x="477" d="M485 358Q485 327 471 304T432 263T378 235T317 216T257 204T206 195Q200 193 193 192T180 189Q177 172 177 156Q177 114 196 93T251 72Q270 72 289 79T324 96T355 120T380 145Q392 157 399 162T412 167Q420 167 424 162T428 152Q428 144 420 130T401 103Q384 82 362 62T311 24T249 -3T179 -14Q138 -14 109 -1T59 35T30 86T20 144Q20 198 45 254T115 355T217 429T343 458Q356 458 379 455T426 441T467 411T485 359V358ZM334 417Q314 417 293 405T251 368T214 310T187 232Q241 243 285 263T350 313Q362 331 367 348T372 378Q372 396 362 406T335 417H334ZM257 515Q247 515 247 524Q247 532 256 540T276 556L398 647Q410 656 426 665T461 674Q477 674 490 665T503 637Q503 615 489 604T456 586L302 529Q290 524 278 520T258 515H257Z"  />
<glyph unicode="&#xEA;" horiz-adv-x="477" d="M485 358Q485 327 471 304T432 263T378 235T317 216T257 204T206 195Q200 193 193 192T180 189Q177 172 177 156Q177 114 196 93T251 72Q270 72 289 79T324 96T355 120T380 145Q392 157 399 162T412 167Q420 167 424 162T428 152Q428 144 420 130T401 103Q384 82 362 62T311 24T249 -3T179 -14Q138 -14 109 -1T59 35T30 86T20 144Q20 198 45 254T115 355T217 429T343 458Q356 458 379 455T426 441T467 411T485 359V358ZM334 417Q314 417 293 405T251 368T214 310T187 232Q241 243 285 263T350 313Q362 331 367 348T372 378Q372 396 362 406T335 417H334ZM208 531Q198 524 189 520T174 515Q162 515 162 524Q162 530 170 538T188 557L290 656Q309 674 318 681T338 689H393Q404 689 409 685T425 660L478 552Q481 545 484 538T488 524Q488 515 477 515Q470 515 462 522T446 538L359 622L208 531Z"  />
<glyph unicode="&#xEB;" horiz-adv-x="477" d="M485 358Q485 327 471 304T432 263T378 235T317 216T257 204T206 195Q200 193 193 192T180 189Q177 172 177 156Q177 114 196 93T251 72Q270 72 289 79T324 96T355 120T380 145Q392 157 399 162T412 167Q420 167 424 162T428 152Q428 144 420 130T401 103Q384 82 362 62T311 24T249 -3T179 -14Q138 -14 109 -1T59 35T30 86T20 144Q20 198 45 254T115 355T217 429T343 458Q356 458 379 455T426 441T467 411T485 359V358ZM334 417Q314 417 293 405T251 368T214 310T187 232Q241 243 285 263T350 313Q362 331 367 348T372 378Q372 396 362 406T335 417H334ZM232 540Q212 540 197 552T181 588Q181 603 187 616T204 641T228 658T257 665Q277 665 292 653T308 616Q308 601 302 588T286 564T262 547T233 540H232ZM422 540Q402 540 387 552T372 588Q372 603 378 616T394 641T418 658T447 665Q467 665 483 653T499 616Q499 601 493 588T476 564T452 547T423 540H422Z"  />
<glyph unicode="&#xEC;" horiz-adv-x="375" d="M326 413Q326 403 321 385T310 349Q296 302 279 253T246 158Q240 143 237 131T233 112Q233 106 235 101T245 96Q251 96 258 102T274 117T291 137T306 159Q326 190 337 190Q345 190 348 185T351 174Q351 160 339 138T312 98Q298 80 278 60T234 24T184 -3T131 -14Q93 -14 82 5T70 48Q70 62 75 84T89 129Q104 178 122 229T154 321Q157 330 160 338T163 350Q163 363 153 363Q147 363 140 359T125 348T112 335T101 323Q85 306 76 297T59 287Q52 287 49 292T45 303Q45 309 50 318T62 339T79 360T98 380Q112 393 131 406T172 431T218 450T268 458Q287 458 306 449T326 414V413ZM139 649Q139 664 150 673T179 683Q196 683 210 674T238 650L337 554Q347 544 353 537T360 524Q360 515 349 515Q343 515 334 519T315 528L175 600Q160 608 150 618T139 648V649Z"  />
<glyph unicode="&#xED;" horiz-adv-x="375" d="M326 413Q326 403 321 385T310 349Q296 302 279 253T246 158Q240 143 237 131T233 112Q233 106 235 101T245 96Q251 96 258 102T274 117T291 137T306 159Q326 190 337 190Q345 190 348 185T351 174Q351 160 339 138T312 98Q298 80 278 60T234 24T184 -3T131 -14Q93 -14 82 5T70 48Q70 62 75 84T89 129Q104 178 122 229T154 321Q157 330 160 338T163 350Q163 363 153 363Q147 363 140 359T125 348T112 335T101 323Q85 306 76 297T59 287Q52 287 49 292T45 303Q45 309 50 318T62 339T79 360T98 380Q112 393 131 406T172 431T218 450T268 458Q287 458 306 449T326 414V413ZM190 515Q179 515 179 524Q179 532 188 540T209 556L331 647Q343 656 359 665T394 674Q410 674 423 665T436 637Q436 615 422 604T389 586L235 529Q223 524 210 520T191 515H190Z"  />
<glyph unicode="&#xEE;" horiz-adv-x="375" d="M326 413Q326 403 321 385T310 349Q296 302 279 253T246 158Q240 143 237 131T233 112Q233 106 235 101T245 96Q251 96 258 102T274 117T291 137T306 159Q326 190 337 190Q345 190 348 185T351 174Q351 160 339 138T312 98Q298 80 278 60T234 24T184 -3T131 -14Q93 -14 82 5T70 48Q70 62 75 84T89 129Q104 178 122 229T154 321Q157 330 160 338T163 350Q163 363 153 363Q147 363 140 359T125 348T112 335T101 323Q85 306 76 297T59 287Q52 287 49 292T45 303Q45 309 50 318T62 339T79 360T98 380Q112 393 131 406T172 431T218 450T268 458Q287 458 306 449T326 414V413ZM144 531Q134 524 126 520T110 515Q99 515 99 524Q99 530 107 538T124 557L226 656Q246 674 255 681T275 689H330Q341 689 346 685T362 660L414 552Q417 545 421 538T425 524Q425 515 414 515Q406 515 399 522T383 538L295 622L144 531Z"  />
<glyph unicode="&#xEF;" horiz-adv-x="375" d="M326 413Q326 403 321 385T310 349Q296 302 279 253T246 158Q240 143 237 131T233 112Q233 106 235 101T245 96Q251 96 258 102T274 117T291 137T306 159Q326 190 337 190Q345 190 348 185T351 174Q351 160 339 138T312 98Q298 80 278 60T234 24T184 -3T131 -14Q93 -14 82 5T70 48Q70 62 75 84T89 129Q104 178 122 229T154 321Q157 330 160 338T163 350Q163 363 153 363Q147 363 140 359T125 348T112 335T101 323Q85 306 76 297T59 287Q52 287 49 292T45 303Q45 309 50 318T62 339T79 360T98 380Q112 393 131 406T172 431T218 450T268 458Q287 458 306 449T326 414V413ZM172 540Q152 540 137 552T121 588Q121 603 127 616T144 641T168 658T196 665Q217 665 232 653T248 616Q248 601 242 588T226 564T202 547T173 540H172ZM362 540Q342 540 327 552T312 588Q312 603 318 616T334 641T358 658T387 665Q407 665 422 653T438 616Q438 601 432 588T416 564T392 547T363 540H362Z"  />
<glyph unicode="&#xF0;" horiz-adv-x="562" d="M466 670Q478 675 486 678T502 682Q513 682 523 673T534 655Q534 644 514 636L428 596Q480 550 511 485T542 333Q542 254 517 190T450 81T354 11T243 -14Q195 -14 157 3T91 48T50 113T36 190Q36 239 58 287T120 373T210 434T321 458Q341 458 360 454T396 436Q390 469 377 500T340 558L238 511Q229 507 221 504T207 501Q196 501 186 511T176 529Q176 536 181 540T192 546L299 596Q281 611 262 620T225 637Q208 645 197 651T186 666Q186 674 192 679T215 684Q231 684 252 680T295 668T339 650T378 630L466 670ZM394 334Q394 347 392 360T382 385T364 403T335 411Q306 411 280 384T232 317Q219 293 209 267T192 214T182 163T178 118Q178 106 180 91T188 64T207 43T239 34Q268 34 294 61T341 131Q353 155 363 182T380 235T390 287T394 333V334Z"  />
<glyph unicode="&#xF1;" horiz-adv-x="684" d="M617 376Q617 363 614 348T606 319Q595 286 582 251T553 178Q542 149 536 134T530 110Q530 102 534 98T545 93Q552 93 560 98T577 112T594 128T607 144Q618 158 629 172T649 187Q657 187 661 182T665 171Q665 156 650 132T608 80Q592 64 571 48T527 18T478 -5T426 -14Q419 -14 408 -12T387 -5T370 11T363 40Q363 60 369 82T385 132Q397 163 410 197T439 272Q441 278 444 287T451 306T457 325T460 340Q460 351 454 357T439 363Q428 363 414 354T383 330T350 294T318 250Q304 232 289 208T260 156T233 101T211 45Q206 30 202 21T189 7T167 0T130 -2H106Q98 -2 89 -2T73 0T60 5T55 15Q55 21 58 34T64 52Q85 115 106 177T147 303Q152 317 155 328T159 348Q159 362 145 362Q140 362 132 357T114 342T96 323T79 304Q74 297 67 290T54 283Q46 283 43 288T39 299Q39 305 43 314T55 335T72 357T90 377Q103 391 121 405T158 431T199 450T241 458Q268 458 285 445T302 401Q302 386 299 371T291 340Q285 319 278 296T262 247L264 245Q285 280 313 317T376 386T448 438T528 458Q573 458 595 434T617 377V376ZM497 531Q468 531 446 541T406 563T372 585T336 596Q319 596 308 587T287 568T269 548T252 539Q239 539 239 552Q239 565 248 583T274 617T316 645T374 657Q404 657 426 647T467 625T502 603T537 592Q554 592 565 600T586 620T603 640T620 649Q633 649 633 635Q633 622 624 605T598 571T556 543T498 531H497Z"  />
<glyph unicode="&#xF2;" horiz-adv-x="554" d="M530 259Q530 206 507 157T444 71Q405 34 352 10T243 -14Q196 -14 157 1T91 43T48 106T32 184Q32 239 56 289T119 376T210 436T316 458Q362 458 401 443T469 402T514 339T530 260V259ZM390 334Q390 347 388 360T378 385T360 403T331 411Q302 411 275 384T228 317Q215 293 205 267T188 214T177 163T173 118Q173 103 176 88T185 61T203 42T233 34Q263 34 289 61T337 131Q349 153 358 179T375 231T386 284T390 333V334ZM210 649Q210 664 222 673T251 683Q268 683 282 674T310 650L408 554Q431 533 431 524Q431 515 420 515Q415 515 406 519T387 528L247 600Q232 608 221 618T210 648V649Z"  />
<glyph unicode="&#xF3;" horiz-adv-x="554" d="M530 259Q530 206 507 157T444 71Q405 34 352 10T243 -14Q196 -14 157 1T91 43T48 106T32 184Q32 239 56 289T119 376T210 436T316 458Q362 458 401 443T469 402T514 339T530 260V259ZM390 334Q390 347 388 360T378 385T360 403T331 411Q302 411 275 384T228 317Q215 293 205 267T188 214T177 163T173 118Q173 103 176 88T185 61T203 42T233 34Q263 34 289 61T337 131Q349 153 358 179T375 231T386 284T390 333V334ZM283 515Q273 515 273 524Q273 532 282 540T302 556L424 647Q436 656 452 665T487 674Q503 674 516 665T529 637Q529 615 515 604T482 586L328 529Q316 524 304 520T284 515H283Z"  />
<glyph unicode="&#xF4;" horiz-adv-x="554" d="M530 259Q530 206 507 157T444 71Q405 34 352 10T243 -14Q196 -14 157 1T91 43T48 106T32 184Q32 239 56 289T119 376T210 436T316 458Q362 458 401 443T469 402T514 339T530 260V259ZM390 334Q390 347 388 360T378 385T360 403T331 411Q302 411 275 384T228 317Q215 293 205 267T188 214T177 163T173 118Q173 103 176 88T185 61T203 42T233 34Q263 34 289 61T337 131Q349 153 358 179T375 231T386 284T390 333V334ZM224 531Q214 524 205 520T190 515Q178 515 178 524Q178 530 186 538T204 557L306 656Q325 674 334 681T354 689H409Q420 689 425 685T441 660L494 552Q497 545 500 538T504 524Q504 515 493 515Q486 515 478 522T462 538L375 622L224 531Z"  />
<glyph unicode="&#xF5;" horiz-adv-x="554" d="M530 259Q530 206 507 157T444 71Q405 34 352 10T243 -14Q196 -14 157 1T91 43T48 106T32 184Q32 239 56 289T119 376T210 436T316 458Q362 458 401 443T469 402T514 339T530 260V259ZM390 334Q390 347 388 360T378 385T360 403T331 411Q302 411 275 384T228 317Q215 293 205 267T188 214T177 163T173 118Q173 103 176 88T185 61T203 42T233 34Q263 34 289 61T337 131Q349 153 358 179T375 231T386 284T390 333V334ZM426 531Q397 531 375 541T335 563T301 585T265 596Q248 596 237 587T216 568T198 548T181 539Q168 539 168 552Q168 565 177 583T203 617T245 645T303 657Q333 657 355 647T396 625T431 603T466 592Q483 592 494 600T515 620T532 640T549 649Q562 649 562 635Q562 622 553 605T527 571T485 543T427 531H426Z"  />
<glyph unicode="&#xF6;" horiz-adv-x="554" d="M530 259Q530 206 507 157T444 71Q405 34 352 10T243 -14Q196 -14 157 1T91 43T48 106T32 184Q32 239 56 289T119 376T210 436T316 458Q362 458 401 443T469 402T514 339T530 260V259ZM390 334Q390 347 388 360T378 385T360 403T331 411Q302 411 275 384T228 317Q215 293 205 267T188 214T177 163T173 118Q173 103 176 88T185 61T203 42T233 34Q263 34 289 61T337 131Q349 153 358 179T375 231T386 284T390 333V334ZM262 540Q242 540 227 552T211 588Q211 603 217 616T234 641T258 658T287 665Q307 665 322 653T338 616Q338 601 332 588T316 564T292 547T263 540H262ZM452 540Q432 540 417 552T402 588Q402 603 408 616T424 641T448 658T477 665Q497 665 513 653T529 616Q529 601 523 588T506 564T482 547T453 540H452Z"  />
<glyph unicode="&#xF7;" horiz-adv-x="587" d="M238 461Q238 477 244 491T262 516T287 533T318 540Q334 540 348 534T373 516T390 491T397 460Q397 445 391 431T374 406T349 388T319 381Q302 381 288 387T262 404T245 429T238 460V461ZM65 205V301H569V205H65ZM238 47Q238 79 262 102T318 125Q334 125 348 119T373 102T390 77T397 46Q397 31 391 17T374 -9T349 -27T319 -34Q302 -34 288 -28T262 -10T245 15T238 46V47Z"  />
<glyph unicode="&#xF8;" horiz-adv-x="559" d="M37 -46Q21 -46 21 -41Q21 -36 27 -29T45 -9L91 45Q64 71 49 107T33 187Q33 242 57 291T122 378T215 436T322 458Q354 458 383 450T436 427L479 477Q486 485 489 487T500 490H529Q544 490 544 485Q544 480 538 473T520 454L475 399Q501 373 516 338T532 258Q532 202 508 153T443 66T350 8T243 -14Q208 -14 180 -6T129 17L86 -33Q79 -41 76 -43T65 -46H37ZM379 380Q368 411 330 411Q298 411 273 387T230 328T200 254T184 182Q182 168 182 154T182 125L379 380ZM187 65Q192 50 205 42T236 34Q266 34 291 58T334 117T365 192T381 262Q385 290 384 319L187 65Z"  />
<glyph unicode="&#xF9;" horiz-adv-x="680" d="M69 54Q69 67 71 82T78 110T85 135T92 154Q106 192 119 231T147 308Q150 316 154 329T159 350Q159 356 157 360T148 365Q142 365 134 359T118 346T103 330T92 317Q76 298 69 291T54 284Q41 284 41 300Q41 312 58 338T105 391T175 438T263 458Q269 458 279 456T298 449T313 434T320 410Q320 401 317 384T305 346Q291 302 277 259T248 170Q244 161 239 143T234 114Q234 103 239 99T252 94Q261 94 275 102T305 124T337 156T367 196Q407 253 432 309T472 411Q480 434 486 439T511 446Q520 446 533 446T561 446T588 446T608 446Q616 446 622 445T629 435Q629 430 627 424T621 408Q604 353 587 298T553 185Q538 132 538 117Q538 109 540 104T551 99Q558 99 567 106T586 125T604 147T618 166Q629 179 633 184T646 189Q661 189 661 174Q661 159 641 128T588 65T511 10T423 -14Q377 -14 377 32Q377 57 389 99T418 192L415 193Q380 143 341 104T263 39T190 0T132 -14Q97 -14 83 7T69 53V54ZM265 649Q265 664 277 673T306 683Q323 683 337 674T365 650L463 554Q486 533 486 524Q486 515 475 515Q470 515 461 519T442 528L302 600Q287 608 276 618T265 648V649Z"  />
<glyph unicode="&#xFA;" horiz-adv-x="680" d="M69 54Q69 67 71 82T78 110T85 135T92 154Q106 192 119 231T147 308Q150 316 154 329T159 350Q159 356 157 360T148 365Q142 365 134 359T118 346T103 330T92 317Q76 298 69 291T54 284Q41 284 41 300Q41 312 58 338T105 391T175 438T263 458Q269 458 279 456T298 449T313 434T320 410Q320 401 317 384T305 346Q291 302 277 259T248 170Q244 161 239 143T234 114Q234 103 239 99T252 94Q261 94 275 102T305 124T337 156T367 196Q407 253 432 309T472 411Q480 434 486 439T511 446Q520 446 533 446T561 446T588 446T608 446Q616 446 622 445T629 435Q629 430 627 424T621 408Q604 353 587 298T553 185Q538 132 538 117Q538 109 540 104T551 99Q558 99 567 106T586 125T604 147T618 166Q629 179 633 184T646 189Q661 189 661 174Q661 159 641 128T588 65T511 10T423 -14Q377 -14 377 32Q377 57 389 99T418 192L415 193Q380 143 341 104T263 39T190 0T132 -14Q97 -14 83 7T69 53V54ZM342 515Q332 515 332 524Q332 532 341 540T361 556L483 647Q495 656 511 665T546 674Q562 674 575 665T588 637Q588 615 574 604T541 586L387 529Q375 524 363 520T343 515H342Z"  />
<glyph unicode="&#xFB;" horiz-adv-x="680" d="M69 54Q69 67 71 82T78 110T85 135T92 154Q106 192 119 231T147 308Q150 316 154 329T159 350Q159 356 157 360T148 365Q142 365 134 359T118 346T103 330T92 317Q76 298 69 291T54 284Q41 284 41 300Q41 312 58 338T105 391T175 438T263 458Q269 458 279 456T298 449T313 434T320 410Q320 401 317 384T305 346Q291 302 277 259T248 170Q244 161 239 143T234 114Q234 103 239 99T252 94Q261 94 275 102T305 124T337 156T367 196Q407 253 432 309T472 411Q480 434 486 439T511 446Q520 446 533 446T561 446T588 446T608 446Q616 446 622 445T629 435Q629 430 627 424T621 408Q604 353 587 298T553 185Q538 132 538 117Q538 109 540 104T551 99Q558 99 567 106T586 125T604 147T618 166Q629 179 633 184T646 189Q661 189 661 174Q661 159 641 128T588 65T511 10T423 -14Q377 -14 377 32Q377 57 389 99T418 192L415 193Q380 143 341 104T263 39T190 0T132 -14Q97 -14 83 7T69 53V54ZM297 531Q287 524 278 520T263 515Q251 515 251 524Q251 530 259 538T277 557L379 656Q398 674 407 681T427 689H482Q493 689 498 685T514 660L567 552Q570 545 573 538T577 524Q577 515 566 515Q559 515 551 522T535 538L448 622L297 531Z"  />
<glyph unicode="&#xFC;" horiz-adv-x="680" d="M69 54Q69 67 71 82T78 110T85 135T92 154Q106 192 119 231T147 308Q150 316 154 329T159 350Q159 356 157 360T148 365Q142 365 134 359T118 346T103 330T92 317Q76 298 69 291T54 284Q41 284 41 300Q41 312 58 338T105 391T175 438T263 458Q269 458 279 456T298 449T313 434T320 410Q320 401 317 384T305 346Q291 302 277 259T248 170Q244 161 239 143T234 114Q234 103 239 99T252 94Q261 94 275 102T305 124T337 156T367 196Q407 253 432 309T472 411Q480 434 486 439T511 446Q520 446 533 446T561 446T588 446T608 446Q616 446 622 445T629 435Q629 430 627 424T621 408Q604 353 587 298T553 185Q538 132 538 117Q538 109 540 104T551 99Q558 99 567 106T586 125T604 147T618 166Q629 179 633 184T646 189Q661 189 661 174Q661 159 641 128T588 65T511 10T423 -14Q377 -14 377 32Q377 57 389 99T418 192L415 193Q380 143 341 104T263 39T190 0T132 -14Q97 -14 83 7T69 53V54ZM323 540Q303 540 288 552T272 588Q272 603 278 616T295 641T319 658T348 665Q368 665 383 653T399 616Q399 601 393 588T377 564T353 547T324 540H323ZM513 540Q493 540 478 552T463 588Q463 603 469 616T485 641T509 658T538 665Q558 665 574 653T590 616Q590 601 584 588T567 564T543 547T514 540H513Z"  />
<glyph unicode="&#xFD;" horiz-adv-x="532" d="M542 388Q542 348 519 298T463 197T390 98T319 14Q305 -3 290 -20T260 -53Q229 -86 197 -117T131 -171T66 -208T1 -222Q-32 -222 -57 -204T-83 -157Q-83 -134 -66 -117T-23 -100Q-3 -100 10 -109T33 -128Q41 -136 49 -142T70 -148Q96 -148 117 -127T150 -84Q160 -66 164 -45T171 -2Q172 25 171 60T167 134Q164 160 161 198T152 272T139 333T119 359Q112 359 105 352T90 336T78 319T72 307Q67 296 61 286T43 275Q35 275 32 281T28 293Q28 309 40 332T65 373Q77 388 92 403T126 431T164 450T207 458Q239 458 260 430T296 349Q304 317 311 267T318 159Q318 141 317 122T315 73L316 71Q345 106 367 138T407 199Q424 229 437 257T450 310Q450 323 446 333T440 350Q429 370 425 378T421 398Q421 422 439 440T483 458Q499 458 510 451T529 434T539 411T542 389V388ZM295 515Q285 515 285 524Q285 532 294 540T314 556L436 647Q448 656 464 665T499 674Q515 674 528 665T541 637Q541 615 527 604T494 586L340 529Q328 524 316 520T296 515H295Z"  />
<glyph unicode="&#xFE;" horiz-adv-x="596" d="M585 318Q585 287 577 254T554 189T518 127T469 73Q427 33 373 14T263 -7Q241 -8 221 -3T184 10Q178 -11 172 -32T159 -75Q154 -89 150 -106T146 -133Q146 -147 151 -155T164 -167T182 -173T201 -175Q219 -176 234 -178T249 -196Q249 -207 239 -212T214 -218Q188 -218 146 -215Q125 -214 102 -214T56 -213Q39 -213 17 -214T-26 -216T-65 -219T-90 -220Q-100 -220 -109 -216T-118 -200Q-118 -185 -105 -181T-67 -174Q-49 -173 -38 -168T-20 -151T-7 -122T7 -78L139 369Q142 376 133 374Q116 372 92 366T52 358Q48 358 43 360T38 373Q38 385 46 392T65 405Q81 413 101 417T141 426Q151 428 153 431T159 446L185 526Q187 535 189 543T191 557Q191 574 180 580T156 588Q136 590 127 592T117 606Q117 621 131 626T168 633Q213 638 253 646T333 672Q344 676 353 680T368 684Q376 684 380 679T385 668Q385 662 383 656T375 637Q366 616 359 597T345 555T329 507T310 448Q338 452 366 454Q380 455 392 455T418 456Q446 456 475 451T529 431T569 389T585 319V318ZM433 328Q433 404 353 404Q338 404 324 402T298 396Q293 382 289 368T280 338Q265 287 249 236T217 133Q212 118 209 101T205 73Q205 53 219 45T250 37Q284 37 315 67T372 143Q384 163 395 186T415 234T428 282T433 327V328Z"  />
<glyph unicode="&#xFF;" horiz-adv-x="532" d="M542 388Q542 348 519 298T463 197T390 98T319 14Q305 -3 290 -20T260 -53Q229 -86 197 -117T131 -171T66 -208T1 -222Q-32 -222 -57 -204T-83 -157Q-83 -134 -66 -117T-23 -100Q-3 -100 10 -109T33 -128Q41 -136 49 -142T70 -148Q96 -148 117 -127T150 -84Q160 -66 164 -45T171 -2Q172 25 171 60T167 134Q164 160 161 198T152 272T139 333T119 359Q112 359 105 352T90 336T78 319T72 307Q67 296 61 286T43 275Q35 275 32 281T28 293Q28 309 40 332T65 373Q77 388 92 403T126 431T164 450T207 458Q239 458 260 430T296 349Q304 317 311 267T318 159Q318 141 317 122T315 73L316 71Q345 106 367 138T407 199Q424 229 437 257T450 310Q450 323 446 333T440 350Q429 370 425 378T421 398Q421 422 439 440T483 458Q499 458 510 451T529 434T539 411T542 389V388ZM251 540Q231 540 216 552T200 588Q200 603 206 616T223 641T247 658T276 665Q296 665 311 653T327 616Q327 601 321 588T305 564T281 547T252 540H251ZM441 540Q421 540 406 552T391 588Q391 603 397 616T413 641T437 658T466 665Q486 665 502 653T518 616Q518 601 512 588T495 564T471 547T442 540H441Z"  />
<glyph unicode="&#x152;" horiz-adv-x="1005" d="M639 119Q634 104 631 92T628 73Q628 56 650 53T724 50Q757 50 781 53T822 64T853 83T877 109Q888 124 896 137T912 161T927 178T943 185Q957 185 962 178T968 162Q968 157 964 141T953 104Q947 83 942 62T933 25Q928 8 920 2T893 -4Q870 -4 843 -3T781 -1Q741 -1 694 -1T592 0Q539 0 503 -1T438 -5Q409 -7 387 -9T342 -11Q280 -11 228 11T137 71T78 158T56 260Q56 334 88 401T175 520T304 602T461 633Q482 633 502 631T551 626Q583 623 625 622T725 620Q761 620 797 620T868 622Q904 623 940 623T1011 624Q1028 624 1038 622T1049 607Q1049 603 1046 590T1037 559T1026 523T1017 492Q1012 477 1006 463T983 449Q971 449 966 456T959 481Q958 489 957 500T953 523Q950 541 940 550T915 564T878 570T829 571Q809 571 797 571T777 567Q772 564 769 556T761 534L706 349Q722 349 737 349T767 350Q783 351 796 353T819 361T839 377T857 404Q870 428 876 437T896 446Q903 446 910 442T917 423Q917 417 914 406T907 383T900 359T895 344Q892 335 887 320T878 288T870 256T864 233Q863 229 861 223T856 211T847 201T833 197Q820 197 816 204T810 219Q809 229 809 240T810 262Q810 288 795 293T754 298Q740 299 725 299T692 299L639 119ZM234 179Q234 119 261 79T348 38Q375 38 396 49T433 79T461 126T483 186Q521 311 540 385T559 499Q559 519 551 534T530 561T500 577T465 583Q411 583 368 541T293 432Q279 402 269 369T250 303T238 239T234 180V179Z"  />
<glyph unicode="&#x153;" horiz-adv-x="826" d="M32 191Q32 245 57 293T123 378T216 436T323 458Q386 458 422 435T487 373Q501 388 520 403T564 430T619 450T683 458Q696 458 719 455T763 441T801 412T817 361Q817 330 803 307T765 266T713 236T658 217Q646 214 628 209T590 199T552 190T521 182Q520 176 519 166T518 146Q518 123 525 108T543 83T567 69T595 65Q614 65 632 70T664 84T690 101T710 118Q726 133 739 146T762 160Q768 160 771 156T775 146Q775 136 762 117T734 82Q717 64 696 47T649 16T594 -6T535 -14Q486 -14 457 8T414 57Q401 44 384 32T345 9T298 -7T243 -14Q197 -14 158 1T91 44T48 109T32 190V191ZM704 374Q704 391 695 404T665 417Q641 417 618 398T577 351T546 290T529 229Q567 235 599 248T657 281Q678 300 691 325T704 373V374ZM399 342Q399 354 396 367T386 391T367 409T337 416Q312 416 290 398T249 352T216 288T191 218T176 153T170 106Q170 75 183 52T232 28Q256 28 278 45T318 89T352 150T377 220T393 286T399 341V342Z"  />
<glyph unicode="&#x160;" horiz-adv-x="557" d="M114 440Q114 494 140 531T206 592T296 626T391 636Q409 636 431 635T475 631T517 623T555 610Q567 605 575 598T584 579Q584 574 582 565T577 546Q572 530 568 515T562 491Q560 486 559 480T554 467T545 457T532 452Q521 452 516 459T508 475Q503 489 498 506T482 547Q460 589 402 589Q383 589 364 583T330 566T305 539T295 502Q295 485 300 471T319 443T351 413T400 374Q424 356 445 338T481 299T506 255T516 204Q516 160 495 121T435 51T343 4T227 -14Q212 -14 189 -12T141 -5T90 7T45 24Q29 32 19 41T8 64Q8 73 10 86T15 113T21 140T28 164Q33 183 39 192T59 201Q75 201 81 190T91 164Q96 144 101 123T118 84Q132 62 155 50T211 38Q235 38 256 45T292 66T317 99T326 140Q326 175 302 204T226 273Q205 289 185 306T150 344T124 387T114 439V440ZM537 830Q547 836 556 841T571 846Q583 846 583 837Q583 830 575 822T557 804L455 705Q436 687 427 680T407 672H352Q341 672 336 675T320 700L267 808Q264 815 261 823T257 837Q257 846 268 846Q275 846 283 838T299 822L386 739L537 830Z"  />
<glyph unicode="&#x161;" horiz-adv-x="448" d="M400 145Q400 112 378 80T320 26Q290 7 251 -3T166 -14Q122 -14 83 -3T19 22Q-5 36 -5 60Q-5 70 -2 83T5 107Q10 121 19 135T45 150Q59 150 68 142T90 111Q98 96 108 82T131 56T157 37T189 30Q212 30 228 45T245 80Q245 109 220 132T165 181Q135 206 110 236T85 308Q85 339 100 366T143 414T212 446T302 458Q317 458 342 457T391 450T432 434T450 406Q450 401 447 388T437 362Q431 350 422 338T398 326Q380 326 368 340T344 372Q332 389 318 403T280 418Q257 418 242 404T226 369Q226 356 231 346T246 324T273 300T312 270Q327 258 343 245T371 217T392 185T400 146V145ZM467 673Q477 679 486 684T501 689Q513 689 513 680Q513 673 505 665T487 647L385 548Q366 530 357 523T337 515H282Q271 515 266 518T250 543L197 651Q194 658 191 666T187 680Q187 689 198 689Q205 689 213 681T229 665L316 582L467 673Z"  />
<glyph unicode="&#x178;" horiz-adv-x="669" d="M366 550Q366 544 369 529T377 503Q390 458 403 415T428 326Q466 370 504 413T580 500Q590 511 602 526T614 556Q614 569 602 572T580 578Q566 581 559 585T551 600Q551 614 561 618T585 623Q600 623 618 621T666 619Q692 619 713 621T753 623Q761 623 774 621T787 602Q787 591 780 586T758 578Q731 574 715 562T679 527Q622 464 566 401T453 274Q442 236 431 197T407 120Q403 106 400 92T397 70Q397 52 409 47T441 40Q448 40 461 37T474 20Q474 3 458 0T419 -4Q388 -4 346 -2T273 0Q243 0 211 -2T160 -4Q143 -4 128 -2T112 17Q112 34 127 37T171 44Q186 45 196 51T212 67T223 89T231 116Q242 154 253 191T275 265L185 517Q174 546 164 560T134 576Q113 579 103 583T92 598Q92 607 97 612T110 620T126 622T142 623Q171 623 200 621T259 619Q306 619 344 621T407 623Q415 623 427 621T440 603Q440 588 427 583T400 576Q390 575 378 571T366 551V550ZM343 697Q323 697 308 709T292 745Q292 760 298 773T315 798T339 815T368 822Q388 822 403 810T419 773Q419 758 413 745T397 721T373 704T344 697H343ZM533 697Q513 697 498 709T483 745Q483 760 489 773T505 798T529 815T558 822Q578 822 594 810T610 773Q610 758 604 745T587 721T563 704T534 697H533Z"  />
<glyph unicode="&#x17D;" horiz-adv-x="652" d="M-6 16Q-6 22 6 38T33 72Q131 186 227 298T421 525Q436 541 445 551T454 566Q454 569 440 569T379 570Q343 570 314 567T261 555T220 530T189 487Q181 472 176 463T165 447T154 439T140 437Q130 437 124 444T118 460Q118 466 122 483T133 521T145 560T156 591Q160 602 163 608T173 618T189 623T217 624Q262 624 307 622T415 620Q444 620 478 620T545 622T606 623T652 624Q670 624 681 621T692 607Q692 598 683 586T659 554Q562 440 466 327T272 99Q239 60 239 56Q239 54 241 53T252 51T276 50T319 50Q371 50 406 54T466 69T507 100T538 153Q546 170 553 181T577 192Q591 192 597 184T603 167Q603 159 599 144T590 110T580 72T570 37Q563 8 555 2T528 -4Q512 -4 492 -4T440 -2T366 -1T261 0Q214 0 180 0T119 -1T73 -3T35 -4Q20 -4 7 -2T-6 15V16ZM576 830Q586 836 595 841T610 846Q622 846 622 837Q622 830 614 822T596 804L494 705Q475 687 466 680T446 672H391Q380 672 375 675T359 700L306 808Q303 815 300 823T296 837Q296 846 307 846Q314 846 322 838T338 822L425 739L576 830Z"  />
<glyph unicode="&#x17E;" horiz-adv-x="517" d="M-18 20Q-18 28 -13 36T-1 51T15 65T31 75Q51 86 65 93T91 107Q106 120 122 134T159 169Q206 214 254 253T353 330L351 332Q322 318 305 314T269 309Q257 309 242 312T212 319T182 326T158 329Q138 329 126 320T111 289Q109 281 107 274T95 266Q87 266 82 271T74 284T70 300T69 315Q69 343 80 368T110 413T157 444T216 456Q228 456 239 455T262 449T291 440T331 425Q354 416 375 410T422 405Q434 408 445 416T478 439Q505 458 524 458Q529 458 540 455T552 440Q552 430 544 420T526 401T504 385T488 374Q462 357 447 347T414 322Q380 295 347 266T280 209Q228 164 171 118L173 116Q193 127 211 132T252 138Q278 138 295 133T327 122Q341 116 352 111T376 105Q393 105 408 115T423 145Q423 152 422 158T421 169Q423 181 437 181Q450 181 458 166T467 130Q467 106 457 81T426 35Q404 12 373 -1T304 -14Q276 -14 244 -4T180 32Q157 48 146 55T124 62Q117 62 110 56T97 44Q92 39 84 31T66 15T42 1T15 -5Q-2 -5 -10 2T-18 19V20ZM497 673Q507 679 516 684T531 689Q543 689 543 680Q543 673 535 665T517 647L415 548Q396 530 387 523T367 515H312Q301 515 296 518T280 543L227 651Q224 658 221 666T217 680Q217 689 228 689Q235 689 243 681T259 665L346 582L497 673Z"  />
<glyph unicode="&#x192;" horiz-adv-x="601" d="M159 339Q144 339 144 347Q144 354 147 364T153 381Q157 390 163 391T180 393H253Q271 447 300 492T371 571Q409 600 457 619T551 639Q596 639 626 621T657 566Q657 541 639 524T594 507Q558 507 540 533Q534 542 531 552T526 574Q525 579 523 585T512 592Q504 592 492 584T468 558Q453 539 442 511T420 452Q416 439 412 425T402 393H492Q502 393 508 392T514 385Q514 378 511 370T505 351Q502 342 496 341T481 339H387Q367 267 348 196T308 57Q289 -6 266 -55T205 -145Q182 -169 157 -185T108 -211T62 -225T21 -229Q-34 -229 -65 -206T-97 -148Q-97 -121 -78 -105T-31 -88Q17 -88 33 -130Q35 -137 37 -144T40 -160Q41 -170 43 -175T54 -181Q66 -181 77 -163T99 -121Q114 -86 127 -42T151 40Q173 115 194 189T237 339H159Z"  />
<glyph unicode="&#x2C6;" horiz-adv-x="452" d="M195 531Q185 524 176 520T161 515Q149 515 149 524Q149 530 157 538T175 557L277 656Q296 674 305 681T325 689H380Q391 689 396 685T412 660L465 552Q468 545 471 538T475 524Q475 515 464 515Q457 515 449 522T433 538L346 622L195 531Z"  />
<glyph unicode="&#x2C7;" horiz-adv-x="452" d="M476 673Q486 679 495 684T510 689Q522 689 522 680Q522 673 514 665T496 647L394 548Q375 530 366 523T346 515H291Q280 515 275 518T259 543L206 651Q203 658 200 666T196 680Q196 689 207 689Q214 689 222 681T238 665L325 582L476 673Z"  />
<glyph unicode="&#x2C9;" horiz-adv-x="432" d="M456 623Q470 623 475 622T480 616Q480 614 478 608T472 593T466 578T459 565Q453 554 448 552T428 549H193Q179 549 174 550T169 557Q169 562 177 579T190 608Q196 619 201 621T221 623H456Z"  />
<glyph unicode="&#x2D8;" horiz-adv-x="451" d="M332 522Q298 522 271 532T225 560T196 602T186 653Q186 663 189 672T204 681Q220 681 222 663Q224 650 232 637T254 613T289 596T336 589Q358 589 380 592T423 604T460 626T488 664Q492 672 495 676T508 681Q519 681 521 673T524 657Q524 639 513 616T479 571T419 536T333 522H332Z"  />
<glyph unicode="&#x2D9;" horiz-adv-x="363" d="M272 538Q252 538 236 550T220 587Q220 602 226 616T244 641T268 658T297 665Q318 665 334 653T350 616Q350 601 344 587T327 562T302 545T273 538H272Z"  />
<glyph unicode="&#x2DA;" horiz-adv-x="397" d="M301 513Q279 513 259 521T224 543T201 576T192 619Q192 642 200 661T224 694T259 716T302 724Q325 724 345 716T380 694T404 661T413 619Q413 572 381 543T302 513H301ZM303 560Q328 560 344 576T361 619Q361 644 345 660T302 677Q277 677 261 661T244 619Q244 593 260 577T302 560H303Z"  />
<glyph unicode="&#x2DB;" horiz-adv-x="397" d="M173 0Q160 -8 148 -18T125 -42T108 -70T101 -101Q101 -121 113 -132T145 -144Q159 -144 170 -139T191 -129T207 -118T220 -113Q228 -113 230 -118T233 -128Q233 -136 224 -146T199 -165T163 -180T118 -187Q78 -187 53 -168T27 -110Q27 -90 36 -73T59 -41T89 -17T121 0H173Z"  />
<glyph unicode="&#x2DC;" horiz-adv-x="464" d="M387 531Q358 531 336 541T296 563T262 585T226 596Q209 596 198 587T177 568T159 548T142 539Q129 539 129 552Q129 565 138 583T164 617T206 645T264 657Q294 657 316 647T357 625T392 603T427 592Q444 592 455 600T476 620T493 640T510 649Q523 649 523 635Q523 622 514 605T488 571T446 543T388 531H387Z"  />
<glyph unicode="&#x2DD;" horiz-adv-x="409" d="M319 683Q335 683 346 674T358 649Q358 633 348 622T321 602L181 529Q172 524 163 520T148 516Q137 516 137 525Q137 530 143 537T160 555L258 651Q272 665 286 674T318 683H319ZM503 683Q519 683 530 674T542 649Q542 633 532 622T505 602L365 529Q356 524 347 520T332 516Q321 516 321 525Q321 530 327 537T344 555L442 651Q456 665 470 674T502 683H503Z"  />
<glyph unicode="&#x2013;" horiz-adv-x="500" d="M493 271Q498 271 502 270T507 263Q507 258 505 253T501 240L487 197Q484 187 480 184T465 181H23Q18 181 14 182T9 188Q9 193 11 199T15 212L29 255Q32 265 36 268T51 271H493Z"  />
<glyph unicode="&#x2014;" horiz-adv-x="1000" d="M993 271Q998 271 1002 270T1007 263Q1007 258 1005 253T1001 240L987 197Q984 187 980 184T965 181H23Q18 181 14 182T9 188Q9 193 11 199T15 212L29 255Q32 265 36 268T51 271H993Z"  />
<glyph unicode="&#x2018;" horiz-adv-x="286" d="M296 487Q296 470 289 455T270 429T241 411T206 404Q172 404 153 426T133 481Q133 518 154 554T203 620T259 666T301 684Q310 684 316 679T322 668Q322 662 317 656T303 644T285 630T264 612Q245 593 230 571T215 540Q215 533 221 533Q224 533 229 535T246 538Q272 538 284 522T296 488V487Z"  />
<glyph unicode="&#x2019;" horiz-adv-x="286" d="M163 554Q163 570 170 585T189 611T218 630T253 637Q287 637 306 614T326 559Q326 534 316 509T291 462T256 420T218 387T183 364T158 356Q149 356 144 361T138 372Q138 385 156 396T195 428Q204 437 213 448T229 470T240 488T244 500Q244 507 238 507Q235 507 230 505T213 502Q187 502 175 519T163 553V554Z"  />
<glyph unicode="&#x201A;" horiz-adv-x="286" d="M11 38Q11 54 18 69T37 95T66 113T101 120Q135 120 154 98T174 43Q174 5 153 -31T104 -96T48 -142T7 -160Q-3 -160 -8 -155T-14 -144Q-14 -137 -9 -131T6 -119T25 -104T46 -84Q54 -75 62 -65T77 -45T88 -27T93 -15Q93 -8 87 -8Q83 -8 77 -11Q73 -12 70 -13T61 -14Q35 -14 23 3T11 37V38Z"  />
<glyph unicode="&#x201C;" horiz-adv-x="503" d="M296 487Q296 470 289 455T270 429T241 411T206 404Q172 404 153 426T133 481Q133 518 154 554T203 620T259 666T301 684Q310 684 316 679T322 668Q322 662 317 656T303 644T285 630T264 612Q245 593 230 571T215 540Q215 533 221 533Q224 533 229 535T246 538Q272 538 284 522T296 488V487ZM513 487Q513 470 506 455T487 429T458 411T423 404Q389 404 369 426T349 481Q349 518 370 554T419 620T475 666T517 684Q527 684 532 679T538 668Q538 655 520 644T481 612Q462 593 447 571T432 540Q432 533 438 533Q441 533 446 535T463 538Q488 538 500 522T513 488V487Z"  />
<glyph unicode="&#x201D;" horiz-adv-x="503" d="M163 554Q163 570 170 585T189 611T218 630T253 637Q287 637 306 614T326 559Q326 534 316 509T291 462T256 420T218 387T183 364T158 356Q149 356 144 361T138 372Q138 385 156 396T195 428Q204 437 213 448T229 470T240 488T244 500Q244 507 238 507Q235 507 230 505T213 502Q187 502 175 519T163 553V554ZM380 554Q380 570 387 585T407 611T435 630T470 637Q504 637 524 614T544 559Q544 534 534 509T509 462T474 420T436 387T401 364T376 356Q367 356 361 361T355 372Q355 385 373 396T412 428Q422 437 431 448T447 470T458 488T462 500Q462 507 455 507Q453 507 447 505T431 502Q405 502 393 519T380 553V554Z"  />
<glyph unicode="&#x201E;" horiz-adv-x="503" d="M11 37Q11 53 18 68T37 95T66 113T101 120Q135 120 154 98T174 43Q174 5 153 -31T104 -96T48 -143T7 -161Q-3 -161 -8 -156T-14 -144Q-14 -138 -9 -132T6 -120T25 -105T46 -85Q54 -76 62 -66T77 -45T88 -27T93 -16Q93 -9 87 -9Q83 -9 77 -12Q73 -13 70 -14T61 -15Q35 -15 23 2T11 36V37ZM228 37Q228 53 235 68T254 95T283 113T318 120Q352 120 371 98T391 43Q391 5 370 -31T321 -96T264 -143T223 -161Q214 -161 209 -156T203 -144Q203 -138 208 -132T222 -120T241 -105T262 -85Q270 -76 278 -66T294 -45T305 -27T310 -16Q310 -9 304 -9Q300 -9 294 -12Q290 -13 287 -14T278 -15Q252 -15 240 2T228 36V37Z"  />
<glyph unicode="&#x2020;" horiz-adv-x="521" d="M141 -191Q153 -145 163 -98T181 -7T193 75T197 142Q197 165 196 187T193 231Q224 263 249 298T289 393Q257 392 237 386T200 372T170 358T135 351Q109 351 96 366T83 405Q83 428 98 444T139 461Q160 461 174 455T202 440Q217 432 237 425T292 418Q295 432 297 446T299 475Q299 506 293 527T286 570Q286 604 303 622T348 640Q375 640 389 626T404 588Q404 568 393 551T368 516T340 474T320 418Q349 419 371 425T411 440Q429 448 444 454T476 461Q504 461 516 447T528 404Q528 381 510 366T468 351Q449 351 435 357T406 372T369 386T316 393Q311 373 308 351T305 311Q305 287 310 266T329 226Q312 199 291 153T247 51T205 -68T172 -191H141Z"  />
<glyph unicode="&#x2021;" horiz-adv-x="521" d="M524 406Q524 381 507 366T466 351Q448 351 435 358T407 373T372 388T319 395Q314 375 312 353T309 304Q309 284 313 262T326 222Q294 185 266 146T225 55Q250 55 270 61T309 76T343 91T376 98Q401 98 415 84T429 43Q429 21 413 5T370 -12Q350 -12 339 -7T315 6T281 20T220 30Q212 -2 212 -30Q212 -48 213 -60T216 -82T219 -101T221 -123Q221 -156 203 -173T154 -191Q129 -191 116 -176T103 -138Q103 -118 114 -101T139 -66T169 -25T193 30Q167 30 146 24T106 9Q88 1 72 -5T40 -12Q-10 -12 -10 40Q-10 62 4 80T46 98Q65 98 78 92T105 77T141 62T198 55Q203 78 205 102T208 150Q208 169 204 189T192 227Q221 254 247 299T290 395Q263 395 243 389T205 374T173 360T140 353Q114 353 101 368T88 406Q88 429 103 445T145 461Q165 461 178 455T206 441T241 427T297 420Q300 438 302 452T305 480Q305 508 300 528T294 570Q294 602 312 621T357 640Q382 640 397 626T412 589Q412 569 400 551T373 513T343 471T323 420Q352 420 374 426T413 440T444 454T471 461Q499 461 511 446T524 407V406Z"  />
<glyph unicode="&#x2022;" horiz-adv-x="548" d="M304 464Q336 464 364 452T412 419T445 370T457 309Q457 277 445 250T412 201T363 168T303 156Q271 156 243 168T194 200T161 249T149 309Q149 341 160 369T193 419T242 452T303 464H304Z"  />
<glyph unicode="&#x2026;" horiz-adv-x="1000" d="M215 75Q215 58 208 42T189 14T160 -6T123 -14Q87 -14 71 7T54 55Q54 70 60 85T78 113T106 134T143 142Q175 142 195 124T215 76V75ZM548 75Q548 58 541 42T522 14T493 -6T456 -14Q420 -14 404 7T387 55Q387 70 393 85T411 113T439 134T476 142Q508 142 528 124T548 76V75ZM881 75Q881 58 874 42T855 14T826 -6T789 -14Q753 -14 737 7T720 55Q720 70 726 85T744 113T772 134T809 142Q841 142 861 124T881 76V75Z"  />
<glyph unicode="&#x2030;" horiz-adv-x="1223" d="M145 -7Q145 -4 151 3T169 23L658 614Q674 632 680 635T697 638H730Q739 638 743 638T747 632Q747 628 741 621T727 605L235 9Q228 0 224 -4T215 -11T207 -13T196 -14H162Q151 -14 148 -14T145 -8V-7ZM295 603Q270 603 250 578T216 519T195 450T187 394Q187 383 189 373T195 354T208 340T229 334Q255 334 275 359T309 418T330 488T337 544Q337 554 336 564T330 583T317 597T296 603H295ZM666 291Q641 291 621 266T587 207T566 137T558 81Q558 70 560 60T566 41T579 27T600 21Q626 21 646 46T680 105T701 175T709 232Q709 241 707 251T701 271T688 285T667 291H666ZM232 299Q199 299 173 311T128 343T99 389T89 445Q89 481 105 515T148 577T211 621T290 638Q323 638 350 626T395 594T424 548T434 492Q434 456 418 422T375 360T311 316T233 299H232ZM604 -14Q571 -14 545 -2T500 30T471 76T461 132Q461 168 477 203T520 265T583 309T662 326Q695 326 722 314T767 282T796 236T806 180Q806 144 790 109T747 47T683 3T605 -14H604ZM993 -14Q960 -14 934 -2T889 30T860 76T850 132Q850 168 866 203T909 265T972 309T1050 326Q1083 326 1110 314T1155 282T1184 236T1194 180Q1194 144 1178 109T1135 47T1072 3T994 -14H993ZM1055 291Q1030 291 1010 266T976 207T955 137T947 81Q947 70 949 60T955 41T968 27T989 21Q1015 21 1035 46T1070 105T1091 175T1098 232Q1098 241 1096 251T1090 271T1077 285T1056 291H1055Z"  />
<glyph unicode="&#x2039;" horiz-adv-x="223" d="M112 89Q99 89 92 92T78 109L42 186Q39 192 36 197T28 208Q26 211 23 213T20 219Q20 223 31 229Q38 233 44 239T55 251L124 329Q135 342 145 345T168 349H240Q251 349 251 342Q251 335 237 335Q223 335 213 327T192 307L131 237Q119 224 107 217Q114 210 118 199L150 131Q157 118 163 111T187 103Q198 103 198 96Q198 89 182 89H112Z"  />
<glyph unicode="&#x203A;" horiz-adv-x="223" d="M125 349Q138 349 145 346T159 329L195 252Q198 246 201 241T209 230Q211 227 214 225T217 219Q217 214 206 209Q199 205 193 199T182 187L113 109Q102 95 92 92T69 89H-3Q-14 89 -14 96Q-14 103 0 103Q14 103 24 110T45 131L106 200Q112 207 117 212T130 221Q127 223 124 228T119 238L87 307Q80 320 74 327T50 335Q39 335 39 342Q39 349 55 349H125Z"  />
<glyph unicode="&#x20AC;" horiz-adv-x="560" d="M288 225Q285 196 287 161T300 96T333 46T395 25Q431 25 458 53T503 122Q506 129 510 138T519 155T531 168T549 174Q554 174 560 170T565 154Q565 152 562 141T554 117T546 89T541 68Q538 53 535 44T527 30T514 21T493 13Q461 2 419 -5T342 -13Q289 -13 249 5T183 56T144 131T134 225H95Q90 225 84 225T74 228T67 234T69 245L80 264Q85 272 89 274T108 277H143Q147 294 153 314T168 351H115Q110 351 104 351T94 354T88 360T90 371L100 390Q104 398 108 400T128 403H196Q227 453 270 496T363 572T467 624T575 643Q580 643 591 643T614 642T637 639T657 632Q662 629 664 624T666 610Q666 605 664 596T660 581L646 528Q642 514 636 500T616 485Q606 485 602 492T596 510T595 531T596 549Q596 559 596 569T592 589T581 604T561 610Q532 610 502 594T442 549T386 483T339 403H549Q559 403 570 400T574 383L564 365Q559 357 555 354T536 351H316Q311 337 305 315T295 277H480Q484 277 490 277T500 274T507 268T505 257L494 238Q489 230 486 228T467 225H288Z"  />
<glyph unicode="&#x2122;" horiz-adv-x="958" d="M93 543V623H421V543H396Q392 566 380 582T342 598H300V326Q300 314 301 306T306 294T320 287T346 284V259H168V284Q184 285 193 287T206 293T211 306T212 326V598H172Q146 598 134 582T118 543H93ZM586 623L709 373L835 623H952V598Q921 596 913 586T905 555V320Q905 309 906 303T911 292T924 287T949 284V259H772V284Q788 285 797 286T811 292T816 302T817 320V519H815L685 259H672L547 519H545V346Q545 329 546 318T552 299T566 289T592 284V259H472V284Q487 285 495 288T508 297T514 316T515 346V552Q513 573 494 585T454 599V623H586Z"  />

</font>
</defs>
</svg>
